<svg width="35" height="35" viewBox="0 0 35 35" fill="none" xmlns="http://www.w3.org/2000/svg">
<path d="M21.7246 22.9207C21.335 22.9002 20.9658 23.0642 20.7608 23.3924L17.5 28.4783L14.2392 23.3924C14.0342 23.0642 13.665 22.8797 13.2754 22.9207C6.4873 23.6385 2.11914 25.9559 2.11914 28.8474C2.11914 32.8465 10.0352 34.9998 17.5 34.9998C24.9648 34.9998 32.8809 32.8465 32.8809 28.8474C32.8809 25.9559 28.5127 23.6385 21.7246 22.9207Z" fill="#61DE56"/>
<path d="M32.8809 28.8474C32.8809 32.8464 24.9648 34.9998 17.5 34.9998V28.4783L20.7608 23.3924C20.9658 23.0642 21.335 22.9001 21.7246 22.9207C28.5127 23.6385 32.8809 25.9559 32.8809 28.8474Z" fill="#13C37B"/>
<path d="M17.5 0C11.3477 0 6.2207 4.96282 6.2207 11.2793C6.2207 13.6786 6.93841 15.832 8.33308 17.8418L16.6387 30.9394C16.8438 31.2675 17.1719 31.4111 17.5001 31.4111C17.8281 31.4111 18.1563 31.2675 18.3613 30.9394L26.708 17.8008C28.0616 15.873 28.7793 13.6172 28.7793 11.2793C28.7793 5.06536 23.7139 0 17.5 0ZM17.5 16.4062C14.673 16.4062 12.373 14.1063 12.373 11.2793C12.373 8.45229 14.673 6.15234 17.5 6.15234C20.327 6.15234 22.627 8.45229 22.627 11.2793C22.627 14.1063 20.327 16.4062 17.5 16.4062Z" fill="#FD3018"/>
<path d="M17.5 0V6.15234C20.327 6.15234 22.627 8.4523 22.627 11.2793C22.627 14.1063 20.327 16.4062 17.5 16.4062V31.4111C17.8281 31.4111 18.1562 31.2676 18.3613 30.9395L26.708 17.8008C28.0616 15.873 28.7793 13.6172 28.7793 11.2793C28.7793 5.06536 23.7139 0 17.5 0Z" fill="#E61E14"/>
</svg>
