<svg width="85" height="85" viewBox="0 0 85 85" fill="none" xmlns="http://www.w3.org/2000/svg">
<path d="M58.4375 71.7188H26.5625C26.2103 71.7188 25.8724 71.5788 25.6234 71.3298C25.3743 71.0807 25.2344 70.7429 25.2344 70.3906C25.2344 70.0384 25.3743 69.7006 25.6234 69.4515C25.8724 69.2024 26.2103 69.0625 26.5625 69.0625H58.4375C58.7897 69.0625 59.1276 69.2024 59.3766 69.4515C59.6257 69.7006 59.7656 70.0384 59.7656 70.3906C59.7656 70.7429 59.6257 71.0807 59.3766 71.3298C59.1276 71.5788 58.7897 71.7188 58.4375 71.7188Z" fill="#95573A"/>
<path d="M29.2188 59.7656L19.9219 78.3594H25.2344L34.5312 59.7656H29.2188Z" fill="#D13330"/>
<path d="M55.7812 59.7656L65.0781 78.3594H59.7656L50.4688 59.7656H55.7812Z" fill="#D13330"/>
<path d="M4.08348 35.8594C4.08348 35.8594 0.108903 65.0843 42.4995 65.0781C84.8901 65.072 80.9155 35.8594 80.9155 35.8594H4.08348Z" fill="#EB423F"/>
<path d="M42.5 43.8281C63.7716 43.8281 81.0156 40.2604 81.0156 35.8594C81.0156 31.4584 63.7716 27.8906 42.5 27.8906C21.2284 27.8906 3.98438 31.4584 3.98438 35.8594C3.98438 40.2604 21.2284 43.8281 42.5 43.8281Z" fill="#95573A"/>
<path d="M42.5 45.1562C42.1478 45.1562 41.8099 45.0163 41.5609 44.7673C41.3118 44.5182 41.1719 44.1804 41.1719 43.8281V27.8906C41.1719 27.5384 41.3118 27.2006 41.5609 26.9515C41.8099 26.7024 42.1478 26.5625 42.5 26.5625C42.8522 26.5625 43.1901 26.7024 43.4391 26.9515C43.6882 27.2006 43.8281 27.5384 43.8281 27.8906V43.8281C43.8281 44.1804 43.6882 44.5182 43.4391 44.7673C43.1901 45.0163 42.8522 45.1562 42.5 45.1562Z" fill="#DADCDE"/>
<path d="M34.5312 44.9852C34.179 44.9852 33.8412 44.8453 33.5921 44.5962C33.3431 44.3472 33.2031 44.0094 33.2031 43.6571V28.0616C33.2031 27.7094 33.3431 27.3716 33.5921 27.1225C33.8412 26.8734 34.179 26.7335 34.5312 26.7335C34.8835 26.7335 35.2213 26.8734 35.4704 27.1225C35.7194 27.3716 35.8594 27.7094 35.8594 28.0616V43.6571C35.8594 44.0094 35.7194 44.3472 35.4704 44.5962C35.2213 44.8453 34.8835 44.9852 34.5312 44.9852Z" fill="#DADCDE"/>
<path d="M26.5625 44.4441C26.2103 44.4441 25.8724 44.3041 25.6234 44.0551C25.3743 43.806 25.2344 43.4682 25.2344 43.1159V28.6028C25.2344 28.2506 25.3743 27.9128 25.6234 27.6637C25.8724 27.4146 26.2103 27.2747 26.5625 27.2747C26.9147 27.2747 27.2526 27.4146 27.5016 27.6637C27.7507 27.9128 27.8906 28.2506 27.8906 28.6028V43.1159C27.8906 43.4682 27.7507 43.806 27.5016 44.0551C27.2526 44.3041 26.9147 44.4441 26.5625 44.4441Z" fill="#DADCDE"/>
<path d="M18.5938 43.4347C18.2415 43.4347 17.9037 43.2948 17.6546 43.0457C17.4056 42.7966 17.2656 42.4588 17.2656 42.1066V29.6122C17.2656 29.26 17.4056 28.9222 17.6546 28.6731C17.9037 28.424 18.2415 28.2841 18.5938 28.2841C18.946 28.2841 19.2838 28.424 19.5329 28.6731C19.7819 28.9222 19.9219 29.26 19.9219 29.6122V42.1066C19.9219 42.4588 19.7819 42.7966 19.5329 43.0457C19.2838 43.2948 18.946 43.4347 18.5938 43.4347Z" fill="#DADCDE"/>
<path d="M10.625 41.6633C10.2728 41.6633 9.93495 41.5234 9.68587 41.2743C9.4368 41.0252 9.29688 40.6874 9.29688 40.3352V31.3836C9.29688 31.0314 9.4368 30.6936 9.68587 30.4445C9.93495 30.1954 10.2728 30.0555 10.625 30.0555C10.9772 30.0555 11.3151 30.1954 11.5641 30.4445C11.8132 30.6936 11.9531 31.0314 11.9531 31.3836V40.3352C11.9531 40.6874 11.8132 41.0252 11.5641 41.2743C11.3151 41.5234 10.9772 41.6633 10.625 41.6633Z" fill="#DADCDE"/>
<path d="M74.375 41.6633C74.0228 41.6633 73.6849 41.5234 73.4359 41.2743C73.1868 41.0252 73.0469 40.6874 73.0469 40.3352V31.3836C73.0469 31.0314 73.1868 30.6936 73.4359 30.4445C73.6849 30.1954 74.0228 30.0555 74.375 30.0555C74.7272 30.0555 75.0651 30.1954 75.3141 30.4445C75.5632 30.6936 75.7031 31.0314 75.7031 31.3836V40.3352C75.7031 40.6874 75.5632 41.0252 75.3141 41.2743C75.0651 41.5234 74.7272 41.6633 74.375 41.6633Z" fill="#DADCDE"/>
<path d="M66.4062 43.4347C66.054 43.4347 65.7162 43.2948 65.4671 43.0457C65.2181 42.7966 65.0781 42.4588 65.0781 42.1066V29.6122C65.0781 29.26 65.2181 28.9222 65.4671 28.6731C65.7162 28.424 66.054 28.2841 66.4062 28.2841C66.7585 28.2841 67.0963 28.424 67.3454 28.6731C67.5944 28.9222 67.7344 29.26 67.7344 29.6122V42.1066C67.7344 42.4588 67.5944 42.7966 67.3454 43.0457C67.0963 43.2948 66.7585 43.4347 66.4062 43.4347Z" fill="#DADCDE"/>
<path d="M58.4375 44.4441C58.0853 44.4441 57.7474 44.3041 57.4984 44.0551C57.2493 43.806 57.1094 43.4682 57.1094 43.1159V28.6028C57.1094 28.2506 57.2493 27.9128 57.4984 27.6637C57.7474 27.4146 58.0853 27.2747 58.4375 27.2747C58.7897 27.2747 59.1276 27.4146 59.3766 27.6637C59.6257 27.9128 59.7656 28.2506 59.7656 28.6028V43.1159C59.7656 43.4682 59.6257 43.806 59.3766 44.0551C59.1276 44.3041 58.7897 44.4441 58.4375 44.4441Z" fill="#DADCDE"/>
<path d="M50.4688 44.9852C50.1165 44.9852 49.7787 44.8453 49.5296 44.5962C49.2806 44.3472 49.1406 44.0094 49.1406 43.6571V28.0616C49.1406 27.7094 49.2806 27.3716 49.5296 27.1225C49.7787 26.8734 50.1165 26.7335 50.4688 26.7335C50.821 26.7335 51.1588 26.8734 51.4079 27.1225C51.6569 27.3716 51.7969 27.7094 51.7969 28.0616V43.6571C51.7969 44.0094 51.6569 44.3472 51.4079 44.5962C51.1588 44.8453 50.821 44.9852 50.4688 44.9852Z" fill="#DADCDE"/>
<path d="M50.4688 55.7812H34.5312C34.179 55.7812 33.8412 55.6413 33.5921 55.3923C33.3431 55.1432 33.2031 54.8054 33.2031 54.4531V49.1406C33.2031 48.7884 33.3431 48.4506 33.5921 48.2015C33.8412 47.9524 34.179 47.8125 34.5312 47.8125C34.8835 47.8125 35.2213 47.9524 35.4704 48.2015C35.7194 48.4506 35.8594 48.7884 35.8594 49.1406V53.125H49.1406V49.1406C49.1406 48.7884 49.2806 48.4506 49.5296 48.2015C49.7787 47.9524 50.1165 47.8125 50.4688 47.8125C50.821 47.8125 51.1588 47.9524 51.4079 48.2015C51.6569 48.4506 51.7969 48.7884 51.7969 49.1406V54.4531C51.7969 54.8054 51.6569 55.1432 51.4079 55.3923C51.1588 55.6413 50.821 55.7812 50.4688 55.7812Z" fill="#95573A"/>
<path d="M14.6094 19.9219C17.5434 19.9219 19.9219 17.5434 19.9219 14.6094C19.9219 11.6754 17.5434 9.29688 14.6094 9.29688C11.6754 9.29688 9.29688 11.6754 9.29688 14.6094C9.29688 17.5434 11.6754 19.9219 14.6094 19.9219Z" fill="#EB423F"/>
<path d="M47.8125 19.9219C50.7465 19.9219 53.125 17.5434 53.125 14.6094C53.125 11.6754 50.7465 9.29688 47.8125 9.29688C44.8785 9.29688 42.5 11.6754 42.5 14.6094C42.5 17.5434 44.8785 19.9219 47.8125 19.9219Z" fill="#B1BD70"/>
<path d="M19.9219 7.96875H27.8906V21.25H19.9219V7.96875Z" fill="#95573A"/>
<path d="M34.5312 7.96875C32.77 7.96875 31.081 8.66839 29.8356 9.91374C28.5903 11.1591 27.8906 12.8482 27.8906 14.6094C27.8906 16.3706 28.5903 18.0596 29.8356 19.305C31.081 20.5504 32.77 21.25 34.5312 21.25V7.96875Z" fill="#F0DFCE"/>
<path d="M42.5 7.96875V21.25L34.5312 16.2695V13.2812L42.5 7.96875Z" fill="#FFD33A"/>
<path d="M75.7031 15.9375H55.7812C55.429 15.9375 55.0912 15.7976 54.8421 15.5485C54.5931 15.2994 54.4531 14.9616 54.4531 14.6094C54.4531 14.2571 54.5931 13.9193 54.8421 13.6702C55.0912 13.4212 55.429 13.2812 55.7812 13.2812H75.7031C76.0554 13.2812 76.3932 13.4212 76.6423 13.6702C76.8913 13.9193 77.0312 14.2571 77.0312 14.6094C77.0312 14.9616 76.8913 15.2994 76.6423 15.5485C76.3932 15.7976 76.0554 15.9375 75.7031 15.9375Z" fill="#DADCDE"/>
<path d="M53.125 6.64062H58.4375V22.5781H53.125V6.64062Z" fill="#95573A"/>
<path d="M42.5 45.1562C32.124 45.1562 22.3568 44.3175 14.9962 42.7947C6.69259 41.0767 2.65625 38.8081 2.65625 35.8594C2.65625 32.9106 6.69259 30.642 14.9962 28.9241C22.3568 27.4012 32.124 26.5625 42.5 26.5625C52.876 26.5625 62.6432 27.4012 70.0038 28.9241C78.3074 30.642 82.3438 32.9106 82.3438 35.8594C82.3438 38.8081 78.3074 41.0767 70.0038 42.7947C62.6432 44.3175 52.876 45.1562 42.5 45.1562ZM42.5 29.2188C32.2998 29.2188 22.7232 30.0379 15.5344 31.5252C7.14896 33.2601 5.3125 35.2421 5.3125 35.8594C5.3125 36.4766 7.14896 38.4587 15.5344 40.1935C22.7232 41.6809 32.2998 42.5 42.5 42.5C52.7002 42.5 62.2768 41.6809 69.4656 40.1935C77.851 38.4587 79.6875 36.4766 79.6875 35.8594C79.6875 35.2421 77.851 33.2601 69.4656 31.5252C62.2768 30.0379 52.7002 29.2188 42.5 29.2188Z" fill="#E9EEF2"/>
</svg>
