<svg width="80" height="80" viewBox="0 0 80 80" fill="none" xmlns="http://www.w3.org/2000/svg">
<g clip-path="url(#clip0_185_582)">
<path d="M16.0002 4.76769C14.9568 5.02863 14.2246 5.96442 14.2246 7.0399C14.2246 8.11538 14.957 9.05132 16.0002 9.3121L35.3129 14.0693V0.0104675L16.0002 4.76769Z" fill="#FF0059"/>
<path d="M33.3277 15.1698L9.89626 52.8162C9.44328 53.5393 9.42032 54.45 9.83204 55.1937C10.2463 55.9397 11.0311 56.4019 11.8824 56.4019H35.3138L36.5563 14.4261C35.4558 13.7373 34.0119 14.0715 33.3277 15.1698Z" fill="#FCBF29"/>
<path d="M68.1186 56.4019H35.3146C34.3055 56.4019 33.4107 55.7565 33.0927 54.8001C32.7724 53.8437 33.1019 52.791 33.9074 52.1846C38.8796 48.4502 42.3442 37.6698 42.3442 30.471C42.3442 24.3111 39.1704 18.1237 33.8572 13.9179C33.0266 13.2612 32.7407 12.1331 33.1547 11.1607C33.5711 10.186 34.5849 9.60711 35.6329 9.76023C54.0689 12.3254 67.7367 32.1099 69.8258 48.8277L70.4436 53.7681C70.5283 54.434 70.32 55.1045 69.8761 55.6101C69.4297 56.1137 68.7914 56.4019 68.1186 56.4019Z" fill="#D9D9D9"/>
<path d="M37.657 2.35346V63.4313C37.657 64.7433 36.6262 65.7744 35.3138 65.7744C34.0015 65.7744 32.9707 64.7433 32.9707 63.4313V2.35346C32.9707 1.0411 34.0015 0.0103149 35.3138 0.0103149C36.6262 0.0103149 37.657 1.04126 37.657 2.35346Z" fill="#883F2E"/>
<path d="M35.3125 65.7744V0.0103149C36.6249 0.0103149 37.6556 1.0411 37.6556 2.35346V63.4313C37.6556 64.7433 36.6249 65.7744 35.3125 65.7744Z" fill="#6D3326"/>
<path d="M74.9122 64.4152L69.6635 75.5843C69.6635 75.6312 69.6635 75.6312 69.6167 75.6779C68.1171 73.8504 65.8676 72.9601 63.4308 72.9601C60.7597 72.9601 58.2761 73.944 56.7764 76.1936C56.5888 76.4747 56.3077 76.6151 56.0733 76.8028L52.0901 76.8493C51.8089 76.662 51.5278 76.4747 51.3401 76.1934C49.8406 73.9439 47.357 72.9599 44.6857 72.9599C42.9518 72.9599 41.3583 73.3815 39.9994 74.2251C39.2497 74.7407 38.5935 75.3967 38.0313 76.1936C37.7969 76.5215 37.4689 76.7559 37.1409 76.9901H33.5323C33.2044 76.8028 32.8292 76.5682 32.5951 76.1936C31.0956 73.944 28.612 72.9601 25.9407 72.9601C23.2694 72.9601 20.786 73.944 19.2863 76.1936C19.005 76.6151 18.6302 76.9432 18.1616 77.1308L14.9745 77.1773C14.553 76.9429 14.1309 76.615 13.8498 76.1934C12.7251 74.5062 10.835 73.5223 8.91369 73.1471L4.93023 64.4149C4.55522 63.7121 4.64897 62.8686 5.07101 62.1656C5.49257 61.5095 6.24258 61.088 7.03915 61.088H72.8033C73.5998 61.088 74.3498 61.5095 74.7714 62.1656C75.1934 62.8691 75.287 63.7125 74.9122 64.4152Z" fill="#FF0059"/>
<path d="M74.9134 64.4152L69.6647 75.5844C69.6647 75.6312 69.6647 75.6312 69.6178 75.6779C68.1183 73.8504 65.8687 72.9601 63.432 72.9601C60.7609 72.9601 58.2773 73.944 56.7776 76.1936C56.5899 76.4747 56.3088 76.6151 56.0745 76.8028L52.0913 76.8494C51.81 76.662 51.529 76.4747 51.3413 76.1934C49.8418 73.9439 47.3581 72.96 44.6869 72.96C42.953 72.96 41.3595 73.3815 40.0006 74.2251C39.2509 74.7408 38.5946 75.3967 38.0324 76.1936C37.7981 76.5216 37.4701 76.7559 37.1421 76.9902H35.3145V61.0878H72.8047C73.6013 61.0878 74.3513 61.5094 74.7729 62.1655C75.1946 62.8691 75.2882 63.7125 74.9134 64.4152Z" fill="#E50048"/>
<path d="M79.6146 76.4279C78.1151 78.6772 75.6315 79.9895 72.9602 79.9895C70.2889 79.9895 67.6492 78.6772 66.1497 76.4279C64.9312 74.5532 61.9318 74.5532 60.7134 76.4279C59.2139 78.6772 56.7302 79.9895 54.059 79.9895C51.3877 79.9895 48.9042 78.6772 47.4045 76.4279C46.1861 74.5532 43.1867 74.5532 41.9683 76.4279C41.4059 77.2245 40.7498 77.9275 40.0001 78.4431C38.6412 79.4742 37.0477 79.9897 35.3138 79.9897C32.6427 79.9897 30.1591 78.6773 28.6594 76.4281C27.441 74.5534 24.4416 74.5534 23.2231 76.4281C21.7236 78.6773 19.24 79.9897 16.5687 79.9897C13.8974 79.9897 11.2577 78.6773 9.75816 76.4281C8.53972 74.5534 5.54032 74.5534 4.32187 76.4281C3.57218 77.5058 2.11951 77.787 1.04154 77.0842C-0.036129 76.3811 -0.317381 74.9284 0.385593 73.8507C1.88514 71.6012 4.36875 70.6173 7.04002 70.6173C9.71129 70.6173 12.351 71.6012 13.8505 73.8507C15.069 75.6782 18.0684 75.6782 19.2868 73.8507C20.7864 71.6012 23.27 70.6173 25.9413 70.6173C28.6125 70.6173 31.096 71.6012 32.5957 73.8507C33.2049 74.7411 34.2829 75.2097 35.3138 75.2097C36.3448 75.2097 37.4226 74.7412 38.032 73.8507C38.5943 73.0539 39.2504 72.3981 40.0001 71.8823C41.359 71.0387 42.9525 70.6171 44.6864 70.6171C47.3575 70.6171 49.8411 71.601 51.3408 73.8506C52.5593 75.6781 55.5587 75.6781 56.7771 73.8506C58.2767 71.601 60.7603 70.6171 63.4315 70.6171C66.1028 70.6171 68.5863 71.601 70.086 73.8506C71.3044 75.6781 74.4599 75.6781 75.6784 73.8506C76.428 72.7726 77.8807 72.4914 78.9587 73.1945C80.0365 73.8975 80.3178 75.3503 79.6146 76.4279Z" fill="#1DE8F1"/>
<path d="M79.6133 76.428C78.1138 78.6772 75.6302 79.9895 72.9589 79.9895C70.2876 79.9895 67.6479 78.6772 66.1484 76.428C64.9299 74.5533 61.9305 74.5533 60.7121 76.428C59.2125 78.6772 56.7289 79.9895 54.0576 79.9895C51.3864 79.9895 48.9029 78.6772 47.4032 76.428C46.1848 74.5533 43.1854 74.5533 41.9669 76.428C41.4046 77.2245 40.7485 77.9275 39.9988 78.4431C38.6399 79.4742 37.0464 79.9897 35.3125 79.9897V75.2095C36.3433 75.2095 37.4213 74.7411 38.0306 73.8506C38.593 73.0537 39.2491 72.3979 39.9988 71.8821C41.3577 71.0385 42.9512 70.617 44.6851 70.617C47.3562 70.617 49.8398 71.6009 51.3395 73.8504C52.5579 75.6779 55.5574 75.6779 56.7758 73.8504C58.2753 71.6009 60.759 70.617 63.4302 70.617C66.1015 70.617 68.585 71.6009 70.0847 73.8504C71.3031 75.6779 74.4586 75.6779 75.677 73.8504C76.4267 72.7725 77.8794 72.4912 78.9574 73.1943C80.0352 73.8975 80.3165 75.3503 79.6133 76.428Z" fill="#15B7BE"/>
</g>
<defs>
<clipPath id="clip0_185_582">
<rect width="80" height="80" fill="white"/>
</clipPath>
</defs>
</svg>
