<svg width="130" height="47" viewBox="0 0 130 47" fill="none" xmlns="http://www.w3.org/2000/svg">
<path d="M127.306 20.6854C123.767 18.2059 116.343 14.677 102.742 14.677H100.645L73.8302 2.16415C70.7764 0.738907 67.4468 0 64.0766 0H40.7549C38.7663 0 36.7995 0.403671 34.9726 1.18721L10.7603 11.5636C9.19418 12.2351 7.50809 12.5813 5.80414 12.5813H4.19342C1.87752 12.5803 0 14.4578 0 16.7737V30.0482C0 32.0755 1.44905 33.8122 3.4436 34.1742L23.0648 37.7418V39.8385H125.807C128.122 39.8385 130 37.961 130 35.6451V25.8518C130 23.7888 128.995 21.8687 127.306 20.6854Z" fill="#FF8086"/>
<path d="M41.1105 4.19312H58.1648V14.6767H32.9894C29.0856 14.6767 27.9331 9.35654 31.4878 7.74086L37.6401 4.94492C38.7301 4.44901 39.9134 4.19312 41.1105 4.19312Z" fill="#E5646E"/>
<path d="M128.024 31.4513C126.381 31.4513 124.955 30.4605 124.209 28.9956C121.785 24.2319 116.841 20.9668 111.129 20.9668C105.418 20.9668 100.473 24.2319 98.0485 28.9956C97.3036 30.4605 95.8774 31.4513 94.2339 31.4513H52.4187V23.0645H32.3572C31.3495 23.0645 30.3349 22.8949 29.4293 22.4525C27.5042 21.5113 25.3519 20.9668 23.0648 20.9668C20.7737 20.9668 18.6175 21.5083 16.6914 22.4516C15.7848 22.8949 14.7672 23.0645 13.7576 23.0645H0V30.0479C0 30.2939 0.0228119 30.5349 0.0644683 30.77C0.105133 31.002 0.166626 31.2272 0.243988 31.4464C0.24498 31.4474 0.24498 31.4494 0.24498 31.4513C0.736923 32.8329 1.93207 33.8992 3.4436 34.1739L23.0648 37.7415L27.2582 39.8382H125.807C128.122 39.8382 130 37.9607 130 35.6448V31.4513H128.024Z" fill="#E5646E"/>
<path d="M125.806 39.8384H31.4512V35.645H130C130 37.9609 128.122 39.8384 125.806 39.8384Z" fill="#DB4655"/>
<path d="M100.645 14.6767L78.1795 4.19312H48.0608C46.2428 4.19312 45.2619 6.32652 46.4451 7.70714L50.5364 12.4808C51.7316 13.8743 53.4762 14.6777 55.313 14.6777H100.645V14.6767Z" fill="#C3DDFF"/>
<path d="M47.0283 8.38672L50.5364 12.48C51.7315 13.8745 53.4762 14.6769 55.313 14.6769H100.645L87.1663 8.38672H47.0283Z" fill="#A4CCFF"/>
<path d="M52.42 23.0647H46.6327C45.5616 23.0647 44.9496 24.2876 45.5923 25.1445L49.0647 29.7744C49.8571 30.8297 51.0999 31.4515 52.42 31.4515H58.2063C59.2775 31.4515 59.8894 30.2286 59.2467 29.3707L55.7744 24.7419C54.9829 23.6856 53.7391 23.0647 52.42 23.0647Z" fill="#6F6571"/>
<path d="M4.19342 18.8704H0V23.0648H4.19342C5.35286 23.0648 6.29013 22.1265 6.29013 20.9671C6.29013 19.8086 5.35286 18.8704 4.19342 18.8704Z" fill="#FF9A9F"/>
<path d="M121.613 35.6452C121.613 41.4354 116.918 46.1287 111.128 46.1287C105.339 46.1287 100.645 41.4354 100.645 35.6452C100.645 29.8549 105.339 25.1616 111.128 25.1616C116.918 25.1616 121.613 29.8549 121.613 35.6452Z" fill="#5D5360"/>
<path d="M117.418 35.6451C117.418 39.1185 114.602 41.9352 111.128 41.9352C107.655 41.9352 104.838 39.1185 104.838 35.6451C104.838 32.1708 107.655 29.355 111.128 29.355C114.602 29.355 117.418 32.1708 117.418 35.6451Z" fill="#B6B1B7"/>
<path d="M111.129 29.355C108.853 29.355 106.861 30.5591 105.757 32.3701C106.71 31.7889 107.834 31.4517 109.032 31.4517C112.506 31.4517 115.322 34.2675 115.322 37.7418C115.322 38.9399 114.985 40.0627 114.403 41.0158C116.214 39.9109 117.419 37.9213 117.419 35.6451C117.42 32.1708 114.603 29.355 111.129 29.355Z" fill="#9B959D"/>
<path d="M113.225 35.6451C113.225 36.8025 112.286 37.7418 111.128 37.7418C109.971 37.7418 109.031 36.8025 109.031 35.6451C109.031 34.4866 109.971 33.5483 111.128 33.5483C112.286 33.5483 113.225 34.4866 113.225 35.6451Z" fill="#DAD8DB"/>
<path d="M33.5482 35.6452C33.5482 41.4354 28.8549 46.1287 23.0646 46.1287C17.2744 46.1287 12.5811 41.4354 12.5811 35.6452C12.5811 29.8549 17.2744 25.1616 23.0646 25.1616C28.8549 25.1616 33.5482 29.8549 33.5482 35.6452Z" fill="#5D5360"/>
<path d="M29.3537 35.6451C29.3537 39.1185 26.5369 41.9352 23.0636 41.9352C19.5892 41.9352 16.7734 39.1185 16.7734 35.6451C16.7734 32.1708 19.5892 29.355 23.0636 29.355C26.5369 29.355 29.3537 32.1708 29.3537 35.6451Z" fill="#B6B1B7"/>
<path d="M23.0651 29.355C20.7888 29.355 18.7982 30.56 17.6934 32.3701C18.6465 31.7889 19.7702 31.4517 20.9684 31.4517C24.4417 31.4517 27.2585 34.2675 27.2585 37.7418C27.2585 38.9399 26.9203 40.0637 26.3391 41.0158C28.1501 39.9119 29.3552 37.9213 29.3552 35.6451C29.3552 32.1708 26.5384 29.355 23.0651 29.355Z" fill="#9B959D"/>
<path d="M25.1612 35.6451C25.1612 36.8025 24.2219 37.7418 23.0645 37.7418C21.906 37.7418 20.9678 36.8025 20.9678 35.6451C20.9678 34.4866 21.906 33.5483 23.0645 33.5483C24.2219 33.5483 25.1612 34.4866 25.1612 35.6451Z" fill="#DAD8DB"/>
<path d="M60.1431 14.6767H65.6636L56.6767 4.19312H51.1572L60.1431 14.6767Z" fill="#857E87"/>
<path d="M54.752 8.38672L60.1435 14.6769H65.664L60.2724 8.38672H54.752Z" fill="#6F6571"/>
<path d="M125.806 25.1612H129.96C129.776 23.5098 128.979 22.0142 127.678 20.9668H125.806C124.647 20.9668 123.709 21.9061 123.709 23.0645C123.709 24.222 124.647 25.1612 125.806 25.1612Z" fill="#FFC269"/>
<path d="M54.4473 30.2941L49.025 23.0647H46.6327C45.5616 23.0647 44.9496 24.2876 45.5923 25.1445L49.0647 29.7744C49.8571 30.8297 51.0999 31.4515 52.42 31.4515H56.7622C55.8517 31.4515 54.9938 31.0221 54.4473 30.2941Z" fill="#5D5360"/>
</svg>
