<svg width="22" height="22" viewBox="0 0 22 22" fill="none" xmlns="http://www.w3.org/2000/svg">
<g clip-path="url(#clip0_207_3070)">
<path d="M1.07442 22C0.861931 22 0.654203 21.937 0.477511 21.819C0.30082 21.701 0.163103 21.5332 0.0817818 21.3369C0.00046016 21.1406 -0.0208133 20.9245 0.0206523 20.7161C0.0621179 20.5077 0.16446 20.3163 0.314732 20.1661L20.1663 0.31452C20.3678 0.113039 20.6411 -0.000152588 20.926 -0.000152588C21.2109 -0.000152588 21.4842 0.113039 21.6857 0.31452C21.8872 0.516002 22.0004 0.78927 22.0004 1.07421C22.0004 1.35915 21.8872 1.63241 21.6857 1.8339L1.83411 21.6855C1.73444 21.7853 1.61601 21.8645 1.48564 21.9185C1.35527 21.9725 1.21552 22.0002 1.07442 22Z" fill="white"/>
<path d="M20.9259 22C20.7848 22.0002 20.6451 21.9725 20.5147 21.9185C20.3843 21.8645 20.2659 21.7853 20.1662 21.6855L0.314673 1.8339C0.113191 1.63241 0 1.35915 0 1.07421C0 0.78927 0.113191 0.516002 0.314673 0.31452C0.516155 0.113039 0.789422 -0.000152588 1.07436 -0.000152588C1.3593 -0.000152588 1.63257 0.113039 1.83405 0.31452L21.6856 20.1661C21.8359 20.3163 21.9382 20.5077 21.9797 20.7161C22.0212 20.9245 21.9999 21.1406 21.9186 21.3369C21.8372 21.5332 21.6995 21.701 21.5228 21.819C21.3461 21.937 21.1384 22 20.9259 22V22Z" fill="white"/>
</g>
<defs>
<clipPath id="clip0_207_3070">
<rect width="22" height="22" fill="white"/>
</clipPath>
</defs>
</svg>
