<svg width="35" height="35" viewBox="0 0 35 35" fill="none" xmlns="http://www.w3.org/2000/svg">
<path d="M17.5 0C7.85011 0 0 7.85011 0 17.5C0 27.1499 7.85011 35 17.5 35C27.1499 35 35 27.1499 35 17.5C35 7.85011 27.1499 0 17.5 0Z" fill="white"/>
<path d="M26.3687 13.7915L16.8894 23.2705C16.605 23.5549 16.2317 23.698 15.8584 23.698C15.4851 23.698 15.1118 23.5549 14.8274 23.2705L10.0879 18.531C9.51756 17.9609 9.51756 17.0391 10.0879 16.469C10.658 15.8987 11.5796 15.8987 12.1499 16.469L15.8584 20.1775L24.3067 11.7295C24.8768 11.1592 25.7983 11.1592 26.3687 11.7295C26.9388 12.2996 26.9388 13.2212 26.3687 13.7915Z" fill="#030303"/>
</svg>
