<svg width="55" height="83" viewBox="0 0 55 83" fill="none" xmlns="http://www.w3.org/2000/svg">
<path d="M34.9628 35.0346C33.6605 34.7189 32.8605 33.4071 33.1763 32.1048L40.5097 1.85479C40.7734 0.76644 41.7479 0 42.8678 0H52.5736C53.9137 0 55.0001 1.08641 55.0001 2.42647C55.0001 3.76653 53.9137 4.85294 52.5736 4.85294H44.7763L37.8925 33.2481C37.5769 34.5505 36.2652 35.3504 34.9628 35.0346Z" fill="#2EBEEF"/>
<path d="M29.5954 9.70243C25.5751 2.73911 16.6711 0.353244 9.70762 4.37358C2.74414 8.39391 0.358437 17.2979 4.37877 24.2612L29.5954 9.70243Z" fill="#FFF04A"/>
<path d="M16.9825 16.9843L29.595 9.70243C25.5747 2.73911 16.6706 0.353245 9.70717 4.37358C9.70571 4.37439 9.70442 4.3752 9.70312 4.376L16.9825 16.9843Z" fill="#FFCD00"/>
<path d="M31.6917 8.48923C27.0089 0.378358 16.6003 -2.41062 8.4893 2.27214C0.37842 6.9549 -2.41057 17.3635 2.2722 25.4745C2.94223 26.635 4.42626 27.0328 5.58676 26.3626L30.8034 11.8038C31.9641 11.1339 32.3617 9.64989 31.6917 8.48923ZM10.9158 6.47494C12.08 5.80281 13.3107 5.34874 14.561 5.09509V12.7791L7.90371 8.93554C8.74747 7.98226 9.75414 7.14562 10.9158 6.47494ZM5.4732 20.8249C4.62506 18.2868 4.66534 15.5891 5.48161 13.1406L12.1321 16.9803L5.4732 20.8249ZM19.4139 12.776V5.10302C21.9392 5.62147 24.2926 6.93484 26.0645 8.93635L19.4139 12.776Z" fill="#FFCD00"/>
<path d="M10.9149 6.47494C12.0791 5.80281 13.3098 5.34874 14.5601 5.09509V12.7791L14.5519 12.7742L18.1943 19.0832L30.8026 11.8038C31.9631 11.1338 32.3607 9.64973 31.6906 8.48923C27.0077 0.378358 16.5993 -2.41062 8.48828 2.27214L10.9149 6.47494ZM26.0637 8.93619L19.413 12.776V5.10302C21.9384 5.62147 24.2917 6.93484 26.0637 8.93619Z" fill="#FF9F22"/>
<path d="M51.7644 16.9853C51.7644 15.6452 50.678 14.5588 49.338 14.5588H16.9851C15.645 14.5588 14.5586 15.6452 14.5586 16.9853V28.3088C14.5586 29.6489 15.645 30.7353 16.9851 30.7353H49.338C50.678 30.7353 51.7644 29.6489 51.7644 28.3088V16.9853Z" fill="#FFF04A"/>
<path d="M49.3386 14.5588H33.1621V30.7353H49.3386C50.6786 30.7353 51.765 29.6489 51.765 28.3088V16.9853C51.765 15.6452 50.6786 14.5588 49.3386 14.5588Z" fill="#FFCD00"/>
<path d="M33.5059 30.7353H38.4994L42.421 14.5588H37.4275L33.5059 30.7353Z" fill="#FF9F22"/>
<path d="M51.7644 28.3088H14.5586V32.8701C14.5586 36.2864 15.1104 39.6593 16.1774 42.8676L33.1615 45.2941L50.1457 42.8676C51.2125 39.6592 51.7644 36.2864 51.7644 32.8701V28.3088Z" fill="#FF6379"/>
<path d="M33.1621 45.2941L50.1463 42.8676C51.2131 39.6592 51.765 36.2864 51.765 32.8701V28.3088H33.1621V45.2941Z" fill="#E50058"/>
<path d="M19.2919 49.5303C22.3882 54.5402 26.8091 58.5804 32.0768 61.2144C32.4182 61.3853 32.7901 61.4705 33.1619 61.4705C33.5336 61.4705 33.9055 61.3851 34.247 61.2144C39.5147 58.5806 43.9357 54.5404 47.0319 49.5303C48.332 47.4266 49.3738 45.19 50.146 42.8676H16.1777C16.95 45.19 17.9918 47.4266 19.2919 49.5303Z" fill="#B10042"/>
<path d="M33.1621 61.4705C33.5338 61.4705 33.9056 61.3851 34.2472 61.2144C39.5149 58.5806 43.936 54.5404 47.0321 49.5303C48.3322 47.4266 49.374 45.19 50.1463 42.8676H33.1621V61.4705Z" fill="#B40042"/>
<path d="M46.0655 78.5546L35.5895 69.5751V60.498H30.7366V69.5751L20.2604 78.5546C18.55 80.0207 19.5868 82.8234 21.8395 82.8234H44.4865C46.7393 82.8234 47.776 80.0207 46.0655 78.5546Z" fill="#E1EBF0"/>
<path d="M46.0646 78.5546L35.5886 69.5751V60.498H33.1621V82.8234H44.4856C46.7384 82.8234 47.7751 80.0207 46.0646 78.5546Z" fill="#B3D8F4"/>
</svg>
