<svg width="80" height="80" viewBox="0 0 80 80" fill="none" xmlns="http://www.w3.org/2000/svg">
<g clip-path="url(#clip0_201_776)">
<path d="M73.089 80L70.6775 65.3943C70.0116 61.3615 67.3287 57.9497 63.5667 56.3515L53.9628 52.2716H40.0237H39.9755H26.0364L16.4325 56.3515C12.6705 57.9497 9.98765 61.3615 9.32174 65.3943L6.91016 80H73.089Z" fill="#D6F3FF"/>
<path d="M64.7318 80L62.125 74.3046L68.0228 70.6846L73.0623 80H64.7318Z" fill="#9EE3FF"/>
<path d="M57.0461 15.6128L58.827 11.6019C60.1782 8.55883 58.5465 5.01711 55.3632 4.08367L42.8422 0.411577C40.9707 -0.137314 38.9821 -0.137314 37.1106 0.411577L24.5894 4.08367C21.4062 5.01727 19.7745 8.55883 21.1256 11.6019L22.9065 15.6128L40.5665 18.0012L57.0461 15.6128Z" fill="#344DB3"/>
<path d="M30.0453 46.7232L26.0371 52.2717L36.3873 58.4717L39.9764 49.7591L30.0453 46.7232Z" fill="#9EE3FF"/>
<path d="M49.9075 46.7232L53.9157 52.2717L43.5656 58.4717L39.9766 49.7591L49.9075 46.7232Z" fill="#9EE3FF"/>
<path d="M50.5593 46.4801L43.4338 49.1356C41.2028 49.967 38.7491 49.967 36.5181 49.1356L29.3927 46.4801C25.4938 45.0271 22.9062 41.2896 22.9062 37.111V20.3896H57.0457V37.111C57.0457 41.2896 54.4582 45.0271 50.5593 46.4801Z" fill="#FDCFA4"/>
<path d="M50.6082 20.3896V37.111C50.6082 41.2897 48.0207 45.0271 44.1218 46.4801L36.9964 49.1356C36.9173 49.165 36.8375 49.1911 36.7578 49.2185C38.9244 49.9636 41.283 49.9377 43.435 49.1356L50.5604 46.4801C54.4593 45.0271 57.0468 41.2897 57.0468 37.111V20.3896H50.6082Z" fill="#FDC590"/>
<path d="M22.9062 20.3896C22.9062 23.8474 25.6958 26.6505 29.1369 26.6505H50.815C54.2562 26.6505 57.0457 23.8473 57.0457 20.3896L39.976 18.0012L22.9062 20.3896Z" fill="#344DB3"/>
<path d="M39.9771 18.0012L36.7578 18.4516L50.6082 20.3894C50.6082 23.8473 47.8187 26.6503 44.3776 26.6503H50.8162C54.2573 26.6503 57.0468 23.8473 57.0468 20.3894L39.9771 18.0012Z" fill="#1C37A6"/>
<path d="M22.9062 15.6128H57.0457V20.3896H22.9062V15.6128Z" fill="#FFBE00"/>
<path d="M55.3639 4.08367L42.8429 0.411577C40.9714 -0.137314 38.9828 -0.137314 37.1113 0.411577L36.7578 0.515238L48.9255 4.08351C52.1087 5.01711 53.7405 8.55867 52.3893 11.6017L50.6084 15.6126H57.047L58.8279 11.6017C60.1791 8.55883 58.5474 5.01711 55.3639 4.08367Z" fill="#1C37A6"/>
<path d="M50.6074 15.6128H57.046V20.3896H50.6074V15.6128Z" fill="#F0B300"/>
<path d="M36.3867 58.4717L39.9758 49.7592L43.5648 58.4717L42.2289 62.1694H38.0043L36.3867 58.4717Z" fill="#FFBE00"/>
<path d="M15.2406 80L17.8476 74.3046L11.9498 70.6846L6.91016 80H15.2406Z" fill="#9EE3FF"/>
<path d="M12.9971 68.3091L11.6452 71.0745C11.0981 72.1935 11.1974 73.5207 11.9047 74.5458L11.9694 74.6397C12.6129 75.5723 13.6737 76.1293 14.8067 76.1293C16.0798 76.1293 17.249 75.4276 17.8481 74.3044L21.2162 67.9897" fill="#FDCFA4"/>
<path d="M66.9749 68.3091L68.3268 71.0745C68.8739 72.1935 68.7746 73.5207 68.0674 74.5458L68.0026 74.6397C67.3591 75.5723 66.2983 76.1293 65.1653 76.1293C63.8922 76.1293 62.723 75.4276 62.1239 74.3044L58.7559 67.9897" fill="#FDCFA4"/>
<path d="M65.2583 79.8295C62.5499 68.3741 52.2578 59.8494 39.9748 59.8494C27.6919 59.8494 17.3998 68.3741 14.6914 79.8295H65.2583ZM19.8004 79.8295C22.1629 71.901 29.083 65.9168 37.5081 64.9287V77.1698C37.5081 78.0745 37.4105 78.9653 37.2228 79.8295H19.8004ZM42.727 79.8295C42.5393 78.9655 42.4418 78.0745 42.4418 77.1698V64.9287C50.8669 65.9168 57.7869 71.901 60.1494 79.8295" fill="#8986A6"/>
<path d="M12.9961 68.3091C12.9961 68.3091 17.0529 72.7867 20.5729 70.9317C24.0929 69.0766 23.8732 63.0668 22.4317 62.4221C20.415 61.5201 14.9698 64.4005 12.9961 68.3091Z" fill="#FDCFA4"/>
<path d="M66.9756 68.3091C66.9756 68.3091 62.9188 72.7867 59.3988 70.9317C55.879 69.0766 56.0986 63.0668 57.54 62.4221C59.5567 61.5201 65.0019 64.4005 66.9756 68.3091Z" fill="#FDCFA4"/>
<path d="M39.9758 42.6102C38.017 42.6102 36.1802 41.7856 34.8038 40.2883C33.7812 39.1763 35.5128 37.4913 36.5813 38.6545C37.4951 39.6484 38.7006 40.1957 39.9758 40.1957C41.2509 40.1957 42.4564 39.6484 43.3702 38.6545C44.3923 37.5419 46.2169 39.1258 45.1477 40.2883C43.7713 41.7856 41.9345 42.6102 39.9758 42.6102Z" fill="#DD9962"/>
</g>
<defs>
<clipPath id="clip0_201_776">
<rect width="80" height="80" fill="white"/>
</clipPath>
</defs>
</svg>
