<svg width="30" height="30" viewBox="0 0 30 30" fill="none" xmlns="http://www.w3.org/2000/svg">
<path d="M29.1211 30H0.878906C0.393516 30 0 29.6065 0 29.1211V12.5976C0 12.3362 0.116367 12.0883 0.317637 11.9213L14.4387 0.202544C14.7642 -0.0675147 15.2358 -0.0675147 15.5613 0.202544L29.6824 11.9213C29.8836 12.0883 30 12.3362 30 12.5976V29.1211C30 29.6065 29.6065 30 29.1211 30Z" fill="#FFCD14"/>
<path d="M29.6824 11.9213L15.5613 0.202559C15.3986 0.0675 15.1993 0 15 0V30H29.1211C29.6065 30 30 29.6065 30 29.1211V12.5977C30 12.3362 29.8836 12.0883 29.6824 11.9213Z" fill="#FFB400"/>
<path d="M24.9609 22.2656H5.03906C4.55367 22.2656 4.16016 21.8721 4.16016 21.3867V4.39453C4.16016 3.90914 4.55367 3.51562 5.03906 3.51562H24.9609C25.4463 3.51562 25.8398 3.90914 25.8398 4.39453V21.3867C25.8398 21.8721 25.4463 22.2656 24.9609 22.2656Z" fill="#DCF5FA"/>
<path d="M24.9609 3.51562H15V22.2656H24.9609C25.4463 22.2656 25.8398 21.8721 25.8398 21.3867V4.39453C25.8398 3.90914 25.4463 3.51562 24.9609 3.51562Z" fill="#BEDCE6"/>
<path d="M20.3679 10.7157C20.3663 10.7096 20.3645 10.7035 20.3627 10.6975C19.9285 9.25902 18.9572 8.08111 17.6275 7.38086C16.2982 6.68072 14.7769 6.54643 13.344 7.00246C11.9862 7.43465 10.8567 8.36647 10.1634 9.62617C9.46981 10.8862 9.28746 12.339 9.64981 13.7169C9.96363 14.9103 10.6413 15.9398 11.6097 16.6942C12.5419 17.4205 13.7032 17.8384 14.8794 17.871C14.885 17.8711 14.8904 17.8712 14.8959 17.8712C15.212 17.8712 15.4725 17.6194 15.4813 17.3014C15.4902 16.9779 15.2353 16.7085 14.9118 16.6996C12.9748 16.646 11.277 15.2969 10.7831 13.4188C10.1883 11.1569 11.4693 8.82901 13.6994 8.11908C14.8308 7.75885 16.032 7.86496 17.0814 8.41768C18.1283 8.96904 18.8939 9.89553 19.238 11.027C19.4559 11.8509 19.3843 12.6163 18.9993 13.5844C18.8937 13.85 18.5663 14.4677 17.8089 14.4677C17.6662 14.4677 17.5561 14.3784 17.5031 14.3252C17.3768 14.1982 17.3019 14.0113 17.3029 13.8249L17.3101 12.3573C17.3113 12.3172 17.3125 12.2771 17.3125 12.2365C17.3125 12.2111 17.3115 12.1861 17.3111 12.1609L17.3245 9.45602C17.3261 9.13246 17.0651 8.86879 16.7415 8.86721C16.7405 8.86721 16.7396 8.86721 16.7385 8.86721C16.4163 8.86721 16.1542 9.12766 16.1527 9.45028L16.1517 9.65225C15.7688 9.37656 15.3096 9.22147 14.8015 9.22147C13.4891 9.22147 12.1315 10.355 12.1315 12.2518C12.1315 13.9812 13.3055 15.388 14.7485 15.388C15.36 15.388 15.9147 15.137 16.3508 14.7132C16.4358 14.8741 16.5438 15.0225 16.6725 15.1518C16.9855 15.4664 17.3891 15.6396 17.809 15.6396C19.014 15.6396 19.7765 14.8016 20.0884 14.0174C20.5687 12.8096 20.655 11.7912 20.3679 10.7157ZM14.7485 14.2163C14.0535 14.2163 13.3034 13.4653 13.3034 12.2519C13.3034 11.0886 14.0651 10.3935 14.8014 10.3935C15.5685 10.3935 16.1102 11.1107 16.1393 12.1486L16.1383 12.3491C16.0971 13.3885 15.4896 14.2163 14.7485 14.2163Z" fill="#696969"/>
<path d="M15.4818 17.3016C15.4898 17.0081 15.2805 16.7598 15 16.7095V17.8617C15.2674 17.8137 15.4739 17.584 15.4818 17.3016Z" fill="#555555"/>
<path d="M20.3631 10.6978C19.929 9.25928 18.9577 8.08137 17.628 7.38112C16.8035 6.94688 15.9053 6.73055 15 6.73747V7.90999C15.7171 7.90331 16.4289 8.07411 17.0818 8.41799C18.1287 8.96936 18.8944 9.89584 19.2385 11.0273C19.4563 11.8512 19.3848 12.6166 18.9998 13.5847C18.8941 13.8503 18.5667 14.468 17.8093 14.468C17.6667 14.468 17.5566 14.3787 17.5035 14.3255C17.3773 14.1986 17.3024 14.0116 17.3033 13.8252L17.3106 12.3576C17.3118 12.3175 17.313 12.2774 17.313 12.2368C17.313 12.2114 17.312 12.1865 17.3116 12.1613L17.325 9.45633C17.3266 9.13278 17.0655 8.86911 16.742 8.86752C16.7409 8.86752 16.7401 8.86752 16.739 8.86752C16.4168 8.86752 16.1547 9.12797 16.1531 9.45059L16.1521 9.65256C15.8197 9.41321 15.4297 9.26491 15.0001 9.22999V10.4106C15.6608 10.5236 16.1133 11.2029 16.1398 12.1489L16.1388 12.3493C16.1024 13.2685 15.623 14.0217 15.0001 14.1838V15.3737C15.5121 15.3149 15.9757 15.0786 16.3512 14.7137C16.4362 14.8746 16.5442 15.0229 16.6729 15.1522C16.9859 15.4668 17.3895 15.64 17.8094 15.64C19.0144 15.64 19.7769 14.802 20.0887 14.0179C20.5692 12.8099 20.6554 11.7915 20.3684 10.716C20.3667 10.7099 20.365 10.7039 20.3631 10.6978Z" fill="#555555"/>
<path d="M29.1211 30H0.878906C0.393516 30 0 29.6065 0 29.1211V12.5977C0 12.2784 0.173086 11.9844 0.452109 11.8293C0.731133 11.6743 1.07227 11.6828 1.34332 11.8515L15 20.3515L28.6567 11.8515C28.9276 11.6828 29.2687 11.6743 29.5479 11.8293C29.8269 11.9844 30 12.2784 30 12.5977V29.1211C30 29.6065 29.6065 30 29.1211 30Z" fill="#FFF037"/>
<path d="M29.5479 11.8293C29.2687 11.6743 28.9276 11.6828 28.6567 11.8515L15 20.3515V30H29.1211C29.6065 30 30 29.6065 30 29.1211V12.5977C30 12.2784 29.8269 11.9844 29.5479 11.8293Z" fill="#FFCD14"/>
</svg>
