<svg width="80" height="80" viewBox="0 0 80 80" fill="none" xmlns="http://www.w3.org/2000/svg">
<g clip-path="url(#clip0_201_1196)">
<path d="M72 10.6667H5.33333C2.38802 10.6667 0 13.0547 0 16C0 18.9453 2.38802 21.3333 5.33333 21.3333H8V69.3333H74.6667C77.612 69.3333 80 66.9453 80 64C80 61.0547 77.612 58.6667 74.6667 58.6667H72V10.6667Z" fill="#D1A339"/>
<path d="M15.3333 65.3333C42.2109 65.3333 64 43.5443 64 16.6667C64 14.6335 63.8613 12.6348 63.6185 10.6667H5.33333C2.38802 10.6667 0 13.0547 0 16C0 18.9453 2.38802 21.3333 5.33333 21.3333H8V64.7826C10.3919 65.1439 12.8398 65.3333 15.3333 65.3333Z" fill="#F0D365"/>
<path d="M8 44H13.3333L16 46.6667V52L18.6667 54.6667V58.6667L14.6667 62.6667H8" fill="#976947"/>
<path d="M8 33.3333V21.3333H5.33333C2.38802 21.3333 0 18.9453 0 16C0 13.0547 2.38802 10.6667 5.33333 10.6667H40V14.6667L37.3333 17.3333V21.3333L34.6667 24H30.6667L28 21.3333H24L20 25.3333L24 29.3333V33.3333L20 37.3333H16L12 33.3333H8Z" fill="#976947"/>
<path d="M35.9994 52C35.9994 48.3184 33.0143 45.3333 29.3327 45.3333C25.651 45.3333 22.666 48.3184 22.666 52C22.666 53.7344 23.207 55.4251 24.2155 56.8359L29.3327 64L34.4499 56.8359C35.4583 55.4251 35.9994 53.7344 35.9994 52Z" fill="#E4725F"/>
<path d="M80 64V5.33333C80 2.38802 77.612 0 74.6667 0H72V58.6667H74.6667C77.612 58.6667 80 61.0547 80 64Z" fill="#F0D365"/>
<path d="M0 16V74.6667C0 77.612 2.38802 80 5.33333 80H8V21.3333H5.33333C2.38802 21.3333 0 18.9453 0 16Z" fill="#D1A339"/>
<path d="M60 21.3333C60 18.388 58.209 16 56 16C53.791 16 52 18.388 52 21.3333C52 24.2787 53.791 26.6667 56 26.6667C58.209 26.6667 60 24.2787 60 21.3333Z" fill="#7ECB92"/>
<path d="M48 26.6667C48 28.8757 46.209 30.6667 44 30.6667C41.791 30.6667 40 28.8757 40 26.6667C40 24.4577 41.791 22.6667 44 22.6667C46.209 22.6667 48 24.4577 48 26.6667Z" fill="#7ECB92"/>
<path d="M28 49.3333H30.6667V52H28V49.3333Z" fill="white"/>
<path d="M53.3327 65.3333H50.666V62.6667H53.3327V65.3333ZM47.9993 65.3333H45.3327V62.6667H47.9993V65.3333ZM42.666 65.3333H39.9993V62.6667H42.666V65.3333ZM37.3327 65.3333H34.666V62.6667H37.3327V65.3333ZM56.3991 64.931L55.5273 62.4108C56.1751 62.1868 56.7793 61.8105 57.2741 61.3255L59.1432 63.2252C58.3685 63.9883 57.4193 64.5775 56.3991 64.931ZM60.8926 60.5078L58.3874 59.5957C58.5742 59.084 58.6673 58.5482 58.666 58.0013C58.666 57.8509 58.6595 57.7025 58.6445 57.5573L61.2982 57.3001C61.321 57.5306 61.3327 57.7643 61.3327 58C61.334 58.8574 61.1875 59.7025 60.8926 60.5078ZM58.0046 55.6042C57.6484 55.0117 57.1569 54.4961 56.5833 54.1133L58.0618 51.8945C58.9635 52.4961 59.7337 53.304 60.2917 54.2305L58.0046 55.6042ZM54.6647 53.3815C54.4473 53.3496 54.2246 53.3333 53.9993 53.3333H52.1901V50.6667H53.9993C54.3529 50.6667 54.6992 50.692 55.0391 50.7402L54.6647 53.3815ZM49.5234 53.3333H49.3327C48.2845 53.3333 47.2806 53.0957 46.3477 52.6295L47.5423 50.2454C48.1009 50.5254 48.7031 50.6667 49.3327 50.6667H49.5234V53.3333ZM43.8568 50.4681C43.2207 49.5534 42.8236 48.4837 42.7044 47.3776L45.3555 47.0931C45.4271 47.7572 45.6647 48.3984 46.0475 48.9466L43.8568 50.4681ZM45.6367 45.1374L43.1725 44.1133C43.5996 43.0866 44.2832 42.1745 45.151 41.4746L46.8236 43.5521C46.3034 43.972 45.8913 44.5202 45.6367 45.1374ZM48.6204 42.7292L48.1543 40.1042C48.5391 40.0358 48.9355 40 49.3301 40H51.0475V42.6667H49.3327C49.0911 42.6667 48.8542 42.6894 48.6204 42.7292ZM61.3327 42.6667H59.0475V40H61.3327C61.4271 40 61.5247 39.9974 61.6178 39.9896L61.8112 42.6491C61.651 42.6615 61.4928 42.6667 61.3327 42.6667ZM56.3809 42.6667H53.7142V40H56.3809V42.6667ZM64.9395 41.6081L63.4941 39.3652C64.0566 39.0039 64.5234 38.5013 64.8457 37.9147L67.1849 39.196C66.6497 40.1719 65.8724 41.0052 64.9395 41.6081ZM67.9993 36H65.3327V33.3333H67.9993V36Z" fill="white"/>
<path d="M54.666 22.6667H57.3327V37.3333H54.666V22.6667Z" fill="#976947"/>
<path d="M42.666 26.6667H45.3327V37.3333H42.666V26.6667Z" fill="#976947"/>
</g>
<defs>
<clipPath id="clip0_201_1196">
<rect width="80" height="80" fill="white"/>
</clipPath>
</defs>
</svg>
