<svg width="100" height="100" viewBox="0 0 100 100" fill="none" xmlns="http://www.w3.org/2000/svg">
<path d="M20.5445 53.2461C19.2652 54.8145 17.4567 55.6094 15.1695 55.6094C13.8004 55.6094 12.6051 55.3242 11.5895 54.7598C10.9098 54.3809 10.3102 53.877 9.79649 53.2461C6.7711 49.5371 8.11876 42.7715 8.17735 42.4844C8.30431 41.8691 8.81017 41.4023 9.43517 41.3262C9.6129 41.3047 12.8805 40.918 16.9918 41.0449C18.2379 41.082 19.5602 41.168 20.8981 41.3242C21.527 41.3984 22.0367 41.8672 22.1637 42.4844C22.2223 42.7715 23.568 49.5371 20.5445 53.2461Z" fill="#DCF8FF"/>
<path d="M13.7051 54.1451H16.6348V62.4516H13.7051V54.1451Z" fill="#D2E1F9"/>
<path d="M20.5449 53.2461C19.2656 54.8145 17.457 55.6094 15.1699 55.6094C13.8008 55.6094 12.6055 55.3242 11.5898 54.7598C17.168 51.7578 17.1152 43.3379 16.9922 41.0449C18.2383 41.082 19.5605 41.168 20.8984 41.3242C21.5273 41.3984 22.0371 41.8672 22.1641 42.4844C22.2227 42.7715 23.5684 49.5371 20.5449 53.2461Z" fill="#D2E1F9"/>
<path d="M20.5445 53.2461C19.2652 54.8145 17.4567 55.6094 15.1695 55.6094C13.8004 55.6094 12.6051 55.3242 11.5895 54.7598C10.9098 54.3809 10.3102 53.877 9.79649 53.2461C6.7711 49.5371 8.11876 42.7715 8.17735 42.4844C8.30431 41.8691 8.81017 41.4023 9.43517 41.3262C9.6129 41.3047 12.8805 40.918 16.9918 41.0449C18.2379 41.082 19.5602 41.168 20.8981 41.3242C21.527 41.3984 22.0367 41.8672 22.1637 42.4844C22.2223 42.7715 23.568 49.5371 20.5445 53.2461Z" fill="#DCF8FF"/>
<path d="M13.7051 54.1451H16.6348V62.4516H13.7051V54.1451Z" fill="#D2E1F9"/>
<path d="M20.5449 53.2461C19.2656 54.8145 17.457 55.6094 15.1699 55.6094C13.8008 55.6094 12.6055 55.3242 11.5898 54.7598C17.168 51.7578 17.1152 43.3379 16.9922 41.0449C18.2383 41.082 19.5605 41.168 20.8984 41.3242C21.5273 41.3984 22.0371 41.8672 22.1641 42.4844C22.2227 42.7715 23.5684 49.5371 20.5449 53.2461Z" fill="#D2E1F9"/>
<path d="M91.0523 53.2717C89.773 54.84 87.9645 55.635 85.6773 55.635C84.3082 55.635 83.1129 55.3498 82.0973 54.7854C81.4176 54.4065 80.818 53.9025 80.3043 53.2717C77.2789 49.5627 78.6266 42.7971 78.6852 42.51C78.8121 41.8947 79.318 41.4279 79.943 41.3518C80.1207 41.3303 83.3883 40.9436 87.4996 41.0705C88.7457 41.1076 90.068 41.1936 91.4059 41.3498C92.0348 41.424 92.5445 41.8928 92.6715 42.51C92.7301 42.7971 94.0758 49.5627 91.0523 53.2717Z" fill="#DCF8FF"/>
<path d="M84.2129 54.1707H87.1426V62.4772H84.2129V54.1707Z" fill="#D2E1F9"/>
<path d="M91.0527 53.2717C89.7734 54.84 87.9648 55.635 85.6777 55.635C84.3086 55.635 83.1133 55.3498 82.0977 54.7854C87.6758 51.7834 87.623 43.3635 87.5 41.0705C88.7461 41.1076 90.0683 41.1936 91.4062 41.3498C92.0351 41.424 92.5449 41.8928 92.6719 42.51C92.7305 42.7971 94.0762 49.5627 91.0527 53.2717Z" fill="#D2E1F9"/>
<path d="M50 32.9117C47.5768 32.9117 45.6055 34.8822 45.6055 37.3041C45.6055 39.726 47.5768 41.6965 50 41.6965C52.4232 41.6965 54.3945 39.726 54.3945 37.3041C54.3945 34.8822 52.423 32.9117 50 32.9117ZM50 38.767C49.1922 38.767 48.5352 38.1107 48.5352 37.3043C48.5352 36.4978 49.1922 35.8416 50 35.8416C50.8078 35.8416 51.4648 36.4978 51.4648 37.3043C51.4648 38.1107 50.8076 38.767 50 38.767Z" fill="#D2E1F9"/>
<path d="M72.3596 62.3887C72.3088 63.1582 71.6702 63.7559 70.8987 63.7559H29.1018C28.3303 63.7559 27.6916 63.1582 27.6408 62.3887C27.6116 61.9648 27.0276 51.9434 33.5061 45.0234C37.3909 40.873 42.9416 38.7676 50.0002 38.7676C51.4084 38.7676 52.758 38.8516 54.0451 39.0195C59.2073 39.6895 63.385 41.7012 66.4944 45.0234C72.9729 51.9434 72.3889 61.9648 72.3596 62.3887Z" fill="#DCF8FF"/>
<path d="M72.3594 62.3887C72.3086 63.1582 71.6699 63.7559 70.8984 63.7559H65.2637C66.9961 46.6504 54.0449 39.0195 54.0449 39.0195C59.207 39.6895 63.3848 41.7012 66.4941 45.0234C72.9726 51.9434 72.3887 61.9648 72.3594 62.3887Z" fill="#D2E1F9"/>
<path d="M91.8027 98.5351C91.8027 99.3437 91.1465 100 90.3379 100H82.123C81.3145 100 80.6582 99.3437 80.6582 98.5351C80.6582 87.998 80.8184 75.8476 80.8203 75.7265C80.832 74.9258 81.4844 74.2812 82.2852 74.2812H90.1758C90.9766 74.2812 91.6289 74.9258 91.6406 75.7265C91.6426 75.8476 91.8027 87.998 91.8027 98.5351Z" fill="#D18766"/>
<path d="M91.8027 98.5351C91.8027 99.3437 91.1465 100 90.3379 100H86.4316C86.6992 88.748 86.5098 78.3574 86.4102 74.2812H90.1758C90.9766 74.2812 91.6289 74.9258 91.6406 75.7265C91.6426 75.8476 91.8027 87.998 91.8027 98.5351Z" fill="#C16756"/>
<path d="M19.3418 98.5351C19.3418 99.3437 18.6855 100 17.877 100H9.66211C8.85352 100 8.19727 99.3437 8.19727 98.5351C8.19727 87.998 8.35742 75.8476 8.35937 75.7265C8.37109 74.9258 9.02344 74.2812 9.82422 74.2812H17.7148C18.5156 74.2812 19.168 74.9258 19.1797 75.7265C19.1816 75.8476 19.3418 87.998 19.3418 98.5351Z" fill="#D18766"/>
<path d="M19.3418 98.5351C19.3418 99.3437 18.6855 100 17.877 100H13.9707C14.2383 88.748 14.0488 78.3574 13.9492 74.2812H17.7148C18.5156 74.2812 19.168 74.9258 19.1797 75.7265C19.1816 75.8476 19.3418 87.998 19.3418 98.5351Z" fill="#C16756"/>
<path d="M100 69.1289C100 72.5019 99.4258 75.8105 99.4004 75.9492C99.2793 76.6445 98.6797 77.1523 97.9746 77.1601C97.9316 77.1601 96.1582 77.1816 93.1367 77.209C88.3418 77.2558 80.4023 77.3223 71.2207 77.3711H28.748C13.7891 77.293 2.14062 77.1621 2.02539 77.1601C1.32031 77.1523 0.720703 76.6445 0.599609 75.9492C0.574219 75.8105 0 72.5019 0 69.1289C0 65.7558 0.574219 62.4472 0.599609 62.3086C0.720703 61.6133 1.32031 61.1055 2.02539 61.0957C2.16406 61.0937 10.2812 61.0039 21.6973 60.9297L50 68.5898L78.3027 60.9297C84.4434 60.9687 89.6309 61.0137 93.1348 61.0469C96.1426 61.0762 97.9121 61.0937 97.9746 61.0957C98.6797 61.1055 99.2793 61.6133 99.4004 62.3086C99.4258 62.4472 100 65.7558 100 69.1289Z" fill="#E2A67D"/>
<path d="M78.3027 60.9297C77.9961 61.8574 75.5742 68.9121 70.5508 77.3711C66.1484 84.7832 59.75 93.2695 51.0254 99.664C50.4141 100.111 49.584 100.111 48.9746 99.664C40.25 93.2695 33.8516 84.7832 29.4492 77.3711C24.4258 68.9121 22.0039 61.8574 21.6973 60.9297C29.9902 60.873 40.0234 60.8261 50 60.8261C57.3594 60.8261 64.7481 60.8515 71.4473 60.8886C73.832 60.9004 76.127 60.916 78.3027 60.9297Z" fill="#FF5F85"/>
<path d="M33.9844 71.5195C34.7934 71.5195 35.4492 70.8637 35.4492 70.0547C35.4492 69.2456 34.7934 68.5898 33.9844 68.5898C33.1754 68.5898 32.5195 69.2456 32.5195 70.0547C32.5195 70.8637 33.1754 71.5195 33.9844 71.5195Z" fill="#FFA1A8"/>
<path d="M41.9922 71.5195C42.8012 71.5195 43.457 70.8637 43.457 70.0547C43.457 69.2457 42.8012 68.5898 41.9922 68.5898C41.1832 68.5898 40.5273 69.2457 40.5273 70.0547C40.5273 70.8637 41.1832 71.5195 41.9922 71.5195Z" fill="#FFA1A8"/>
<path d="M50 71.5195C50.809 71.5195 51.4648 70.8637 51.4648 70.0547C51.4648 69.2457 50.809 68.5898 50 68.5898C49.191 68.5898 48.5352 69.2457 48.5352 70.0547C48.5352 70.8637 49.191 71.5195 50 71.5195Z" fill="#FFA1A8"/>
<path d="M58.0078 71.5195C58.8168 71.5195 59.4727 70.8637 59.4727 70.0547C59.4727 69.2457 58.8168 68.5898 58.0078 68.5898C57.1988 68.5898 56.543 69.2457 56.543 70.0547C56.543 70.8637 57.1988 71.5195 58.0078 71.5195Z" fill="#FFA1A8"/>
<path d="M66.0156 71.5195C66.8246 71.5195 67.4805 70.8637 67.4805 70.0547C67.4805 69.2457 66.8246 68.5898 66.0156 68.5898C65.2066 68.5898 64.5508 69.2457 64.5508 70.0547C64.5508 70.8637 65.2066 71.5195 66.0156 71.5195Z" fill="#FFA1A8"/>
<path d="M41.9922 79.7246C42.8012 79.7246 43.457 79.0688 43.457 78.2597C43.457 77.4507 42.8012 76.7949 41.9922 76.7949C41.1832 76.7949 40.5273 77.4507 40.5273 78.2597C40.5273 79.0688 41.1832 79.7246 41.9922 79.7246Z" fill="#FFA1A8"/>
<path d="M50 79.7246C50.809 79.7246 51.4648 79.0688 51.4648 78.2597C51.4648 77.4507 50.809 76.7949 50 76.7949C49.191 76.7949 48.5352 77.4507 48.5352 78.2597C48.5352 79.0688 49.191 79.7246 50 79.7246Z" fill="#FFA1A8"/>
<path d="M58.0078 79.7246C58.8168 79.7246 59.4727 79.0688 59.4727 78.2597C59.4727 77.4507 58.8168 76.7949 58.0078 76.7949C57.1988 76.7949 56.543 77.4507 56.543 78.2597C56.543 79.0688 57.1988 79.7246 58.0078 79.7246Z" fill="#FFA1A8"/>
<path d="M45.9961 87.709C46.8051 87.709 47.4609 87.0531 47.4609 86.2441C47.4609 85.4351 46.8051 84.7793 45.9961 84.7793C45.1871 84.7793 44.5312 85.4351 44.5312 86.2441C44.5312 87.0531 45.1871 87.709 45.9961 87.709Z" fill="#FFA1A8"/>
<path d="M54.0039 87.709C54.8129 87.709 55.4688 87.0531 55.4688 86.2441C55.4688 85.4351 54.8129 84.7793 54.0039 84.7793C53.1949 84.7793 52.5391 85.4351 52.5391 86.2441C52.5391 87.0531 53.1949 87.709 54.0039 87.709Z" fill="#FFA1A8"/>
<path d="M21.8022 25.3174C21.9529 26.001 22.5588 26.4668 23.2311 26.4668C23.3358 26.4668 23.4418 26.4555 23.5483 26.432C24.3383 26.2576 24.8373 25.4758 24.6631 24.6859C23.9461 21.4373 22.5334 18.3606 20.4643 15.5414C19.9856 14.8895 19.069 14.7488 18.4166 15.2272C17.7645 15.7059 17.6237 16.6227 18.1024 17.2748C19.9287 19.7633 21.1736 22.4691 21.8022 25.3174Z" fill="#FFE878"/>
<path d="M8.60559 9.20274C8.62531 9.21211 10.6068 10.1574 13.0298 12.0717C13.2986 12.284 13.6189 12.3871 13.9368 12.3871C14.3695 12.3871 14.7982 12.1961 15.0872 11.8301C15.5886 11.1953 15.4806 10.2742 14.8458 9.77266C12.1388 7.63438 9.94387 6.59454 9.85188 6.55137C9.11985 6.20801 8.24953 6.52286 7.90539 7.25391C7.56106 7.98516 7.87492 8.85743 8.60559 9.20274Z" fill="#FFE878"/>
<path d="M38.5863 14.4221C38.6507 15.1865 39.291 15.7641 40.0443 15.7641C40.0855 15.7641 40.1271 15.7623 40.1689 15.7588C40.975 15.6908 41.5736 14.9822 41.5056 14.1762C40.8746 6.68164 37.7031 0.983791 37.5685 0.745119C37.1716 0.0410174 36.2796 -0.207615 35.5748 0.188478C34.8703 0.584767 34.6203 1.47754 35.0158 2.18262C35.0457 2.23574 38.0109 7.58887 38.5863 14.4221Z" fill="#77E0AB"/>
<path d="M62.2349 11.9943C62.587 11.9943 62.9404 11.8682 63.2212 11.6121C64.6845 10.2785 66.2743 9.14766 67.9466 8.25078C68.6595 7.86836 68.9277 6.98067 68.5452 6.26758C68.163 5.55469 67.2751 5.28672 66.562 5.66895C64.6773 6.67969 62.8894 7.95059 61.2478 9.44649C60.6497 9.99141 60.6068 10.918 61.1517 11.5158C61.4407 11.8334 61.8372 11.9943 62.2349 11.9943Z" fill="#FF5F85"/>
<path d="M53.7626 23.9996C53.9117 24.0477 54.0628 24.0705 54.2115 24.0705C54.83 24.0705 55.405 23.6754 55.6056 23.0555C55.614 23.0293 56.4804 20.3891 58.5359 17.2016C58.9744 16.5217 58.7785 15.615 58.0986 15.1766C57.4187 14.7385 56.5121 14.934 56.0736 15.6139C53.7951 19.1473 52.8552 22.0379 52.8163 22.1592C52.5697 22.9287 52.9933 23.7518 53.7626 23.9996Z" fill="#FF5F85"/>
<path d="M74.1539 27.2527C74.4147 27.4439 74.7178 27.5359 75.0184 27.5359C75.469 27.5359 75.9137 27.3287 76.201 26.9379C76.2684 26.8461 83.0665 17.7443 93.9631 15.7396C94.7588 15.5932 95.2852 14.8295 95.1389 14.034C94.9924 13.2385 94.2296 12.7129 93.4333 12.8582C81.3631 15.0787 74.1389 24.7947 73.8372 25.2072C73.3598 25.8598 73.502 26.7746 74.1539 27.2527Z" fill="#58768C"/>
<path d="M33.5254 27.1285C34.3344 27.1285 34.9902 26.4727 34.9902 25.6637C34.9902 24.8547 34.3344 24.1988 33.5254 24.1988C32.7164 24.1988 32.0605 24.8547 32.0605 25.6637C32.0605 26.4727 32.7164 27.1285 33.5254 27.1285Z" fill="#E2A67D"/>
<path d="M48.4023 9.3414C49.2114 9.3414 49.8672 8.68557 49.8672 7.87656C49.8672 7.06755 49.2114 6.41171 48.4023 6.41171C47.5933 6.41171 46.9375 7.06755 46.9375 7.87656C46.9375 8.68557 47.5933 9.3414 48.4023 9.3414Z" fill="#E2A67D"/>
<path d="M66.2363 31.2066C67.0453 31.2066 67.7012 30.5508 67.7012 29.7418C67.7012 28.9328 67.0453 28.2769 66.2363 28.2769C65.4273 28.2769 64.7715 28.9328 64.7715 29.7418C64.7715 30.5508 65.4273 31.2066 66.2363 31.2066Z" fill="#E2A67D"/>
<path d="M100 69.1289C100 72.5019 99.4258 75.8105 99.4004 75.9492C99.2793 76.6445 98.6797 77.1523 97.9746 77.1601C97.9316 77.1601 96.1582 77.1816 93.1367 77.209C93.834 69.1543 93.2578 62.3398 93.1348 61.0469C96.1426 61.0762 97.9121 61.0937 97.9746 61.0957C98.6797 61.1055 99.2793 61.6133 99.4004 62.3086C99.4258 62.4472 100 65.7558 100 69.1289Z" fill="#D18766"/>
<path d="M78.3027 60.9297C77.9961 61.8574 75.5742 68.9121 70.5508 77.3711C66.1484 84.7832 59.75 93.2695 51.0254 99.664C64.5977 81.0957 70.0684 65.3555 71.4473 60.8887C73.832 60.9004 76.1269 60.916 78.3027 60.9297Z" fill="#B2527E"/>
</svg>
