<svg width="85" height="85" viewBox="0 0 85 85" fill="none" xmlns="http://www.w3.org/2000/svg">
<path d="M85 42.5C85 65.9724 65.9724 85 42.5 85C19.0276 85 0 65.9724 0 42.5C0 19.0276 19.0276 0 42.5 0C65.9724 0 85 19.0276 85 42.5Z" fill="#F18BC3"/>
<path d="M76.0877 46.1264C76.0877 66.6786 59.4265 83.3399 38.8736 83.3399C18.3214 83.3399 1.66016 66.6786 1.66016 46.1264C1.66016 25.5735 18.3214 8.91232 38.8736 8.91232C59.4258 8.91232 76.0877 25.5735 76.0877 46.1264Z" fill="#9BB9C3"/>
<path d="M38.8744 7.25217C18.0025 7.25217 0.974861 23.702 0.0429688 44.3443C0.982643 66.3485 18.6523 84.0182 40.6565 84.9579C61.2982 84.026 77.748 66.9983 77.748 46.1264C77.7487 24.6566 60.3443 7.25217 38.8744 7.25217ZM38.8744 79.4612C20.4642 79.4612 5.53964 64.5366 5.53964 46.1264C5.53964 27.7162 20.4642 12.7916 38.8744 12.7916C57.2846 12.7916 72.2092 27.7162 72.2092 46.1264C72.2092 64.5366 57.2846 79.4612 38.8744 79.4612Z" fill="#B4D2D7"/>
<path d="M42.2557 84.8502C41.7252 84.8956 41.1928 84.9339 40.6565 84.9579C18.6523 84.0182 0.982643 66.3485 0.0429688 44.3443C0.974861 23.702 18.0025 7.25217 38.8744 7.25217C39.4224 7.25217 39.9665 7.26643 40.5093 7.28913C40.2992 7.29821 40.0903 7.30794 39.8815 7.32026C7.65764 9.17691 -7.30906 47.996 14.7613 71.5489C21.7631 79.0215 31.4355 83.9618 42.2557 84.8502Z" fill="#9BB9C3"/>
<path d="M61.5962 43.2763C61.3893 43.3495 61.1811 43.4157 60.973 43.4786C61.0683 43.7425 61.1448 44.0104 61.1973 44.2814C61.9165 48.0116 58.1857 50.9538 52.7792 51.0375C48.3149 54.8105 42.3507 56.1529 38.8099 54.1399C35.0551 56.2741 28.5753 54.6373 24.0488 50.33C19.3614 45.869 18.5456 40.2335 22.2265 37.7426C22.4839 37.5688 22.7583 37.4164 23.0449 37.2815C22.9288 37.0656 22.816 36.847 22.709 36.624C20.0274 31.0125 21.4373 25.4691 25.8581 24.2441C27.2692 23.8531 28.8159 23.9503 30.3561 24.4445C30.8651 19.0911 34.4546 14.9414 38.8099 14.9414C41.1393 14.9414 43.2495 16.1295 44.7864 18.0536C46.743 16.5043 49.0769 16.1145 51.1352 17.2792C52.2656 17.9193 53.1754 18.9511 53.831 20.2273C57.51 17.1878 62.3659 16.8363 65.0987 19.5691C67.8315 22.3019 67.48 27.1578 64.4405 30.8368C65.7167 31.4924 66.7485 32.4022 67.3885 33.5326C69.3931 37.0753 66.7997 41.4384 61.5962 43.2763Z" fill="#509C49"/>
<path d="M53.5701 50.33C51.194 52.5913 48.2796 54.1153 45.5034 54.7456C46.7362 54.0381 47.9223 53.1678 48.9975 52.1445C53.6849 47.6834 54.5007 42.048 50.8198 39.5571C50.5623 39.3833 50.288 39.2309 50.0014 39.096C50.1175 38.8801 50.2303 38.6615 50.3373 38.4385C53.0188 32.827 51.609 27.2843 47.1882 26.0586C46.2628 25.8018 45.2784 25.7558 44.2764 25.8939C43.4263 26.0113 42.6195 25.4639 42.4334 24.6261C41.4237 20.0846 38.1371 16.7559 34.2364 16.7559C34.1845 16.7559 34.1339 16.7591 34.082 16.7604C35.4348 15.612 37.0599 14.9414 38.8096 14.9414C42.9146 14.9414 46.3393 18.6281 47.1454 23.5353C47.2219 23.9983 47.672 24.3109 48.1298 24.2091C49.3788 23.9315 50.6149 23.9264 51.7608 24.2441C56.1816 25.4698 57.5914 31.0125 54.9099 36.624C54.8035 36.847 54.69 37.0656 54.5746 37.2815C54.8606 37.4164 55.1349 37.5688 55.393 37.7433C59.0739 40.2335 58.2574 45.8689 53.5701 50.33Z" fill="#46853E"/>
<path d="M47.1058 38.8853C47.0604 40.7374 46.7252 42.5435 46.17 44.1997C46.7258 46.6913 46.5585 49.068 45.552 50.8384C47.6862 54.5932 46.0494 61.073 41.7421 65.5995C37.2811 70.2869 31.645 71.1027 29.1547 67.4218C28.9803 67.1644 28.8285 66.89 28.6936 66.6034C28.4777 66.7195 28.2592 66.8323 28.0361 66.9393C22.424 69.6209 16.8812 68.211 15.6562 63.7902C15.2645 62.3791 15.3625 60.8324 15.8566 59.2922C10.5033 58.7832 6.35352 55.1937 6.35352 50.8384C6.35352 48.769 7.29124 46.8741 8.84894 45.3988C8.08177 43.6394 8.09279 41.7523 9.06489 40.0351C9.78537 38.7608 10.9488 37.7361 12.3871 36.9968C8.96178 32.851 8.56554 27.3783 11.6446 24.2992C14.7243 21.2195 20.1964 21.6158 24.3429 25.0411C25.0822 23.6028 26.1068 22.44 27.3811 21.7189C31.3732 19.4595 36.2895 22.3816 38.3615 28.246C38.4438 28.4795 38.5184 28.7136 38.5891 28.9483C38.8868 28.8413 39.189 28.7551 39.4944 28.6961C43.8581 27.8543 47.266 32.4165 47.1058 38.8853Z" fill="#B8EB6A"/>
<path d="M47.1058 38.8853C47.0929 39.4119 47.0546 39.9345 46.9969 40.4507C46.3776 35.2848 43.2998 31.9094 39.4944 32.6435C39.4179 32.6584 39.342 32.6746 39.2661 32.6928C38.8829 32.7836 38.497 32.5773 38.366 32.2057C38.3647 32.2018 38.3634 32.198 38.3615 32.1941C36.2902 26.3297 31.3739 23.4069 27.3811 25.6663C26.1068 26.3874 25.0822 27.5502 24.3429 28.9885C20.197 25.5632 14.7243 25.1669 11.6453 28.2467C10.6926 29.1987 10.074 30.3802 9.77305 31.6805C9.19459 28.8932 9.78472 26.1598 11.6453 24.2992C14.7243 21.2195 20.197 21.6158 24.3429 25.0418C25.0822 23.6034 26.1068 22.44 27.3811 21.7189C31.3739 19.4595 36.2902 22.3823 38.3615 28.2467C38.4438 28.4795 38.5184 28.7142 38.5897 28.949C38.8874 28.8413 39.189 28.7551 39.4944 28.6961C43.8581 27.8543 47.266 32.4165 47.1058 38.8853ZM29.1547 34.2556C28.9803 34.5131 28.8285 34.7874 28.6936 35.074C28.4777 34.958 28.2592 34.8451 28.0361 34.7381C22.4246 32.0566 16.8819 33.4664 15.6562 37.8872C15.2652 39.2984 15.3625 40.845 15.8573 42.3846C10.5033 42.8943 6.35352 46.4837 6.35352 50.839C6.35352 53.5809 7.99941 56.0186 10.5538 57.5756C9.95009 56.5141 9.61352 55.3377 9.61352 54.099C9.61352 49.7437 13.7633 46.1543 19.1173 45.6452C18.6231 44.105 18.5252 42.5584 18.9162 41.1472C20.1419 36.7264 25.6846 35.3166 31.2961 37.9988C31.5192 38.1051 31.7377 38.218 31.9537 38.334C32.0885 38.0474 32.2409 37.7731 32.4154 37.5156C34.5425 34.3717 38.9639 34.5112 42.9885 37.539C42.602 37.0345 42.187 36.5455 41.7421 36.0779C37.2811 31.3906 31.6456 30.5741 29.1547 34.2556Z" fill="#A1E52E"/>
<path d="M19.9219 44.8242C19.9219 45.7412 19.1787 46.4844 18.2617 46.4844C17.3447 46.4844 16.6016 45.7412 16.6016 44.8242C16.6016 43.9072 17.3447 43.1641 18.2617 43.1641C19.1787 43.1641 19.9219 43.9072 19.9219 44.8242ZM24.9023 26.5625C23.9854 26.5625 23.2422 27.3057 23.2422 28.2227C23.2422 29.1396 23.9854 29.8828 24.9023 29.8828C25.8193 29.8828 26.5625 29.1396 26.5625 28.2227C26.5625 27.3057 25.8193 26.5625 24.9023 26.5625ZM43.1641 34.8633C42.2471 34.8633 41.5039 35.6065 41.5039 36.5234C41.5039 37.4404 42.2471 38.1836 43.1641 38.1836C44.081 38.1836 44.8242 37.4404 44.8242 36.5234C44.8242 35.6065 44.081 34.8633 43.1641 34.8633ZM33.2031 36.5234C32.2861 36.5234 31.543 37.2666 31.543 38.1836C31.543 39.1006 32.2861 39.8438 33.2031 39.8438C34.1201 39.8438 34.8633 39.1006 34.8633 38.1836C34.8633 37.2666 34.1201 36.5234 33.2031 36.5234ZM61.4258 33.2031C60.5088 33.2031 59.7656 33.9463 59.7656 34.8633C59.7656 35.7803 60.5088 36.5234 61.4258 36.5234C62.3428 36.5234 63.0859 35.7803 63.0859 34.8633C63.0859 33.9463 62.3428 33.2031 61.4258 33.2031Z" fill="#31662B"/>
<path d="M47.1944 70.8653C46.2839 71.2797 45.7463 72.0877 45.7463 72.9399V75.5371C45.7463 76.9521 44.3034 78.0922 42.5557 78.0248C40.9183 77.9612 39.6589 76.8075 39.6589 75.4664V75.4509C39.6589 74.1 38.3003 73.0378 36.6498 73.0469C36.6382 73.0469 36.6271 73.0469 36.6155 73.0469C33.6246 73.0469 31.2381 70.9289 31.5747 68.4257C31.8283 66.5424 42.8624 62.9057 45.2697 63.1086C47.6166 63.3064 49.516 64.8479 49.7728 66.7668C50.0082 68.5217 48.9058 70.0865 47.1944 70.8653Z" fill="#FDBF43"/>
<path d="M45.7463 75.3685V75.5371C45.7463 76.9521 44.3034 78.0922 42.5557 78.0247C40.9189 77.9612 39.6595 76.8075 39.6595 75.4664V75.4509C39.6595 74.1 38.3009 73.0378 36.6498 73.0469C36.6382 73.0469 36.6271 73.0469 36.6155 73.0469C33.6246 73.0469 31.2381 70.9282 31.5747 68.4257C31.6558 67.8245 32.8347 67.045 34.4806 66.2688C34.4994 68.5482 36.762 70.3913 39.5525 70.3913H39.5869C41.238 70.3822 42.5959 71.4451 42.5959 72.7959V72.8115C42.5959 74.1526 43.8553 75.3062 45.4928 75.3691C45.5777 75.3724 45.6627 75.3704 45.7463 75.3685Z" fill="#FCB30B"/>
<path d="M67.7084 63.8363C66.6287 65.6884 65.1034 67.2519 63.2137 68.2636C60.0419 69.962 56.3013 70.9431 52.2949 70.9431C51.6892 70.9431 51.0894 70.9205 50.4973 70.8764C47.5991 70.6611 44.9247 69.3037 42.9325 67.1883C41.4715 65.6371 39.7166 64.3012 37.74 63.2442C33.9891 61.2371 31.5689 57.3694 31.543 53.1159C31.543 53.0841 31.543 53.0524 31.543 53.0206C31.543 45.4163 37.0267 38.9183 44.7659 36.3153C48.2172 35.1545 51.9875 35.4301 55.2657 37.0156C57.5445 38.1181 60.3642 39.0104 62.715 39.6473C68.6079 41.2432 72.8685 46.4746 73.0404 52.577C73.0443 52.7249 73.0469 52.8727 73.0469 53.0206C73.0469 53.0413 73.0469 53.0621 73.0462 53.0828C73.0352 55.898 71.9652 58.6236 70.0502 60.6878C69.1494 61.6592 68.3628 62.7143 67.7084 63.8363Z" fill="#8F4A4B"/>
<path d="M73.0417 52.577C73.0456 52.7249 73.0476 52.8727 73.0476 53.0206V53.0828C73.0366 55.898 71.9659 58.6236 70.0515 60.6878C69.1501 61.6592 68.3635 62.7143 67.7091 63.8363C66.6294 65.6884 65.1041 67.2519 63.2144 68.2635C60.8312 69.5398 58.1263 70.4107 55.2294 70.7648C52.6912 70.3569 50.3702 69.0761 48.5927 67.1883C47.1316 65.6371 45.3768 64.3012 43.4008 63.2442C39.6499 61.2371 37.2291 57.3694 37.2038 53.1159C37.2038 53.0841 37.2031 53.0524 37.2031 53.0206C37.2031 45.4163 42.6875 38.9183 50.4267 36.3153C50.9364 36.1434 51.4539 36.0072 51.9753 35.8983C53.1056 36.133 54.2113 36.5053 55.2664 37.0156C57.5452 38.1181 60.3655 39.0104 62.7157 39.6473C68.6086 41.2432 72.8699 46.4746 73.0417 52.577Z" fill="#B7696A"/>
<path d="M68.4723 55.9726L67.6967 55.3798L69.1111 53.9661C69.7589 53.3176 69.7589 52.2664 69.1111 51.6179L68.7907 51.2982C68.1422 50.6497 67.091 50.6497 66.4431 51.2982L64.6727 53.0686L60.2124 49.6588L63.3842 46.487C64.0327 45.8385 64.0327 44.7873 63.3842 44.1388L63.0645 43.819C62.416 43.1705 61.3647 43.1705 60.7162 43.819L57.1884 47.3469L52.728 43.9377L54.0192 42.6466C54.6671 41.9987 54.6671 40.9475 54.0192 40.299L53.6988 39.9786C53.0504 39.3301 51.9991 39.3301 51.3506 39.9786L49.7041 41.6258L47.7943 40.1661C47.066 39.6096 46.0239 39.7484 45.4675 40.4767L45.1925 40.8366C44.6354 41.5649 44.7749 42.607 45.5031 43.1641L47.0122 44.3177L43.5284 47.8008L42.1342 46.7353C41.4059 46.1783 40.3638 46.3177 39.8074 47.046L39.5324 47.4059C38.9753 48.1342 39.1148 49.1763 39.843 49.7334L40.8365 50.4927L39.4825 51.8468C38.834 52.4953 38.834 53.5465 39.4825 54.195L39.8022 54.5147C40.4507 55.1632 41.5019 55.1632 42.1504 54.5147L43.8605 52.804L48.3209 56.2138L45.1419 59.3934C44.4934 60.0412 44.4934 61.0925 45.1419 61.741L45.4623 62.0607C46.1101 62.7092 47.1613 62.7092 47.8098 62.0607L51.3454 58.525L55.8058 61.9349L53.6314 64.1093C52.9829 64.7578 52.9829 65.809 53.6314 66.4568L53.9518 66.7772C54.5996 67.4257 55.6508 67.4257 56.2993 66.7772L58.8298 64.2467L60.737 65.7039C61.4653 66.261 62.5074 66.1216 63.0638 65.3933L63.3388 65.0334C63.8958 64.3051 63.7564 63.263 63.0281 62.7066L61.5217 61.5548L65.0054 58.0711L66.1805 58.9699C66.9094 59.5263 67.9509 59.3876 68.508 58.6593L68.7829 58.2994C69.3393 57.5711 69.2006 56.5296 68.4723 55.9726ZM46.5524 50.1127L50.0361 46.629L54.4965 50.0388L51.0128 53.5219L46.5524 50.1127ZM58.4971 59.2436L54.0367 55.8338L57.5204 52.3507L61.9808 55.7598L58.4971 59.2436Z" fill="#783D3E"/>
<path d="M41.5039 62.2559C41.5039 70.0495 35.1862 76.3672 27.3926 76.3672C19.5989 76.3672 13.2812 70.0495 13.2812 62.2559C13.2812 54.4622 19.5989 48.1445 27.3926 48.1445C35.1862 48.1445 41.5039 54.4622 41.5039 62.2559Z" fill="#E84444"/>
<path d="M27.3926 48.1445C28.2428 48.1445 29.0741 48.2243 29.8828 48.3683C26.2045 49.0232 23.0204 51.1036 20.9193 54.0167C22.0353 54.1743 22.9646 54.994 23.2396 56.1139L23.8855 58.7488L21.2506 58.1029C20.4368 57.9031 19.7818 57.3565 19.4238 56.6451C18.905 57.8409 18.5471 59.1217 18.3772 60.4615C18.9666 60.4005 19.5769 60.5244 20.1125 60.8493L22.4335 62.2559L20.1125 63.6625C19.5769 63.9867 18.9666 64.1112 18.3772 64.0496C18.5471 65.3901 18.905 66.6708 19.4238 67.866C19.7824 67.1546 20.4368 66.6086 21.2506 66.4088L23.8855 65.7623L23.2396 68.3978C22.9646 69.5177 22.0353 70.3374 20.9193 70.495C23.0198 73.4081 26.2045 75.4885 29.8828 76.1435C29.0741 76.2881 28.2428 76.3672 27.3926 76.3672C19.5989 76.3672 13.2812 70.0495 13.2812 62.2559C13.2812 54.4622 19.5989 48.1445 27.3926 48.1445ZM27.3926 59.7656C26.0171 59.7656 24.9023 60.8804 24.9023 62.2559C24.9023 63.6313 26.0171 64.7461 27.3926 64.7461C28.768 64.7461 29.8828 63.6313 29.8828 62.2559C29.8828 60.8804 28.768 59.7656 27.3926 59.7656ZM27.3926 57.2968L28.7992 54.9758C29.4652 53.8766 29.2946 52.4648 28.3854 51.5556C28.3828 51.5524 28.3796 51.5498 28.377 51.5466C27.8374 51.0128 26.9471 51.0128 26.4082 51.5466C26.4049 51.5498 26.4023 51.5524 26.3991 51.5556C25.4905 52.4642 25.32 53.8766 25.986 54.9758L27.3926 57.2968ZM27.3926 67.2149L25.986 69.5359C25.32 70.6351 25.4905 72.0469 26.3997 72.9561C26.4023 72.9593 26.4056 72.9619 26.4082 72.9652C26.9477 73.4989 27.8381 73.4989 28.377 72.9652C28.3802 72.9619 28.3828 72.9593 28.3861 72.9561C29.2946 72.0475 29.4652 70.6351 28.7992 69.5359L27.3926 67.2149ZM38.1012 61.2714C38.0986 61.2688 38.0954 61.2656 38.0928 61.263C37.1836 60.3538 35.7718 60.1833 34.6726 60.8493L32.3516 62.2559L34.6726 63.6625C35.7718 64.3285 37.1836 64.1579 38.0928 63.2487C38.096 63.2461 38.0986 63.2429 38.1019 63.2403C38.6356 62.7014 38.6356 61.8103 38.1012 61.2714ZM33.5345 66.4088L30.899 65.7623L31.5456 68.3978C31.8517 69.6461 32.971 70.5242 34.2563 70.5242H34.2693C35.028 70.521 35.6577 69.8913 35.6609 69.1325C35.6609 69.128 35.6609 69.1241 35.6609 69.1202C35.6609 67.8342 34.7829 66.7149 33.5345 66.4088ZM35.6609 55.3922C35.6609 55.3876 35.6609 55.3837 35.6609 55.3792C35.6577 54.6204 35.0273 53.9907 34.2686 53.9875C34.2647 53.9875 34.2608 53.9875 34.2563 53.9875C32.971 53.9875 31.8517 54.8656 31.5456 56.1139L30.899 58.7494L33.5345 58.1029C34.7829 57.7968 35.6609 56.6775 35.6609 55.3922Z" fill="#C92C2C"/>
<path d="M73.0469 9.13086C73.0469 10.5063 71.9321 11.6211 70.5566 11.6211H51.4648C50.5479 11.6211 49.8047 12.3643 49.8047 13.2812C49.8047 14.1982 50.5479 14.9414 51.4648 14.9414H60.5957C61.9712 14.9414 63.0859 16.0562 63.0859 17.4316C63.0859 18.8071 61.9712 19.9219 60.5957 19.9219H58.1055C57.1885 19.9219 56.4453 20.6651 56.4453 21.582C56.4453 22.499 57.1885 23.2422 58.1055 23.2422H58.9355C60.311 23.2422 61.4258 24.357 61.4258 25.7324C61.4258 27.1079 60.311 28.2227 58.9355 28.2227H52.2949C50.9195 28.2227 49.8047 27.1079 49.8047 25.7324C49.8047 24.357 50.9195 23.2422 52.2949 23.2422H53.125C54.042 23.2422 54.7852 22.499 54.7852 21.582C54.7852 20.6651 54.042 19.9219 53.125 19.9219H40.6738C39.2984 19.9219 38.1836 18.8071 38.1836 17.4316C38.1836 16.0562 39.2984 14.9414 40.6738 14.9414H46.4844C47.4014 14.9414 48.1445 14.1982 48.1445 13.2812C48.1445 12.3643 47.4014 11.6211 46.4844 11.6211H45.6543C44.2788 11.6211 43.1641 10.5063 43.1641 9.13086C43.1641 7.75539 44.2788 6.64062 45.6543 6.64062H70.5566C71.9321 6.64062 73.0469 7.75539 73.0469 9.13086Z" fill="#FFF5F5"/>
</svg>
