<svg width="90" height="90" viewBox="0 0 90 90" fill="none" xmlns="http://www.w3.org/2000/svg">
<path d="M73.931 63.1952H15.1367V55.5656C15.1367 47.5347 21.6471 41.0244 29.6779 41.0244H57.0105C66.3553 41.0244 73.9308 48.5999 73.9308 57.9448V63.1952H73.931Z" fill="#FFF4F4"/>
<path d="M57.0109 41.0244H45.1172V63.1952H73.9312V57.9446C73.9312 48.5999 66.3558 41.0244 57.0109 41.0244Z" fill="#EEE1DC"/>
<path d="M46.2799 31.992C45.605 31.992 44.9302 31.7347 44.4155 31.2196C43.3858 30.1899 43.3858 28.5205 44.4155 27.4908L54.4163 17.4902L41.5809 4.65487C40.5512 3.62514 40.5512 1.95575 41.5809 0.92602C42.6104 -0.103707 44.28 -0.103707 45.3097 0.92602L60.0094 15.6257C61.0392 16.6555 61.0392 18.3249 60.0094 19.3546L48.1444 31.2198C47.6293 31.7347 46.9545 31.992 46.2799 31.992Z" fill="#F6EFEA"/>
<path d="M60.0104 15.6257L45.3107 0.926019C45.2479 0.863265 45.1826 0.804554 45.1152 0.749359V8.18825L54.4172 17.4902L45.1154 26.7921V31.7185C45.4821 31.8994 45.8811 31.992 46.281 31.992C46.9557 31.992 47.6305 31.7347 48.1455 31.2196L60.0106 19.3544C61.0402 18.3249 61.0402 16.6555 60.0104 15.6257Z" fill="#EEE1DC"/>
<path d="M56.0742 42.5391H33.9258C32.4696 42.5391 31.2891 41.3586 31.2891 39.9024V29.3555C31.2891 27.8993 32.4696 26.7188 33.9258 26.7188H56.0742C57.5304 26.7188 58.7109 27.8993 58.7109 29.3555V39.9024C58.7109 41.3586 57.5304 42.5391 56.0742 42.5391Z" fill="#FFCD00"/>
<path d="M87.3624 5.27344H2.63672C1.18055 5.27344 0 4.09289 0 2.63672C0 1.18055 1.18055 0 2.63672 0H87.3624C88.8186 0 89.9991 1.18055 89.9991 2.63672C89.9991 4.09289 88.8186 5.27344 87.3624 5.27344Z" fill="#09607D"/>
<path d="M87.3622 0H45.1152V5.27344H87.3622C88.8183 5.27344 89.9989 4.09289 89.9989 2.63672C89.9989 1.18055 88.8183 0 87.3622 0Z" fill="#07485E"/>
<path d="M59.6274 89.9999H30.3736C25.355 89.9999 20.9798 87.3402 18.6697 82.885L11.8338 69.7014C10.8293 67.7641 10.3187 65.7272 10.3164 63.6472C10.3157 62.9476 10.5929 62.2761 11.0874 61.7809C11.5819 61.2859 12.2528 61.0076 12.9526 61.0075L77.0474 60.9962C77.7468 60.9962 78.4176 61.2738 78.912 61.7684C79.4065 62.2629 79.6846 62.9337 79.6846 63.6329C79.6846 65.718 79.1741 67.7597 78.1671 69.7016L71.3311 82.8852C69.0212 87.3402 64.6458 89.9999 59.6274 89.9999Z" fill="#FF3F5C"/>
<path d="M78.9129 61.7682C78.4184 61.2738 77.7476 60.996 77.0482 60.996L45.1172 61.0017V89.9999H59.6281C64.6467 89.9999 69.0219 87.3402 71.332 82.885L78.1679 69.7014C79.175 67.7596 79.6854 65.7177 79.6854 63.6328C79.6853 62.9335 79.4074 62.2627 78.9129 61.7682Z" fill="#D20763"/>
<path d="M78.1671 57.564L71.3311 44.3804C69.0209 39.9254 64.6457 37.2655 59.6273 37.2655H30.3736C25.3552 37.2655 20.98 39.9253 18.6697 44.3804L11.8338 57.564C10.8244 59.5105 10.314 61.5571 10.3164 63.6469C10.3182 65.1022 11.4984 66.2808 12.9535 66.2807L77.0484 66.2694C78.5044 66.2692 79.6846 65.0887 79.6846 63.6327C79.6846 61.5478 79.1742 59.5059 78.1671 57.564ZM16.5153 59.9916L23.3513 46.808C24.7579 44.095 27.3175 42.539 30.3736 42.539H42.3638V61.0021L16.0666 61.0067C16.1917 60.6657 16.3415 60.327 16.5153 59.9916ZM47.6372 61.0012V42.539H59.6275C62.6834 42.539 65.243 44.095 66.6497 46.808L73.4857 59.9916C73.6578 60.3236 73.8063 60.6588 73.9306 60.9965L47.6372 61.0012Z" fill="#77DD00"/>
<path d="M56.0754 26.7186H45.1172V42.5389H56.0754C57.5316 42.5389 58.7121 41.3584 58.7121 39.9022V29.3553C58.7121 27.8992 57.5316 26.7186 56.0754 26.7186Z" fill="#FDBF00"/>
<path d="M78.166 57.564L71.33 44.3804C69.0197 39.9254 64.6445 37.2655 59.6262 37.2655H45.1152V66.275L77.0473 66.2694C78.5033 66.2692 79.6835 65.0887 79.6835 63.6327C79.6835 61.5478 79.173 59.5059 78.166 57.564ZM47.6361 61.0012V42.539H59.6263C62.6823 42.539 65.2418 44.095 66.6486 46.808L73.4846 59.9916C73.6567 60.3236 73.8052 60.6588 73.9295 60.9965L47.6361 61.0012Z" fill="#00CC71"/>
</svg>
