<svg width="80" height="80" viewBox="0 0 80 80" fill="none" xmlns="http://www.w3.org/2000/svg">
<path d="M53.7908 39.8655H33.4811C32.4227 39.8655 31.4952 39.1576 31.2161 38.1366C30.9371 37.1157 31.3755 36.0343 32.2866 35.4957C41.1355 30.2669 45.7319 24.1676 46.3381 16.8491C46.5496 14.3093 48.8117 12.2805 51.3797 12.3141C54 12.356 56.4549 13.4063 58.2935 15.2719C60.1335 17.1393 61.1475 19.6121 61.1485 22.2346C61.1485 22.2349 61.1485 22.2352 61.1485 22.2355V23.0244C61.1485 29.4307 59.251 33.5154 55.7499 38.8119C55.3147 39.4699 54.5792 39.8655 53.7908 39.8655Z" fill="#FFC380"/>
<path d="M78.6808 42.5267C78.6808 38.4698 75.3803 35.1692 71.3233 35.1692H33.4809C33.0605 35.1692 32.6477 35.282 32.2859 35.4961C29.6295 37.0667 26.9473 38.3597 24.7922 39.3989C24.0405 39.7612 23.3305 40.1036 22.6847 40.4264C21.8892 40.8242 21.3867 41.6372 21.3867 42.5267V72.5828C21.3867 73.4723 21.8892 74.2853 22.6847 74.6831C32.1727 79.4264 40.0595 80 49.2566 80C50.6808 80 52.1373 79.9862 53.6352 79.9721C55.2917 79.9565 57.0044 79.9403 58.8 79.9403H66.2233C70.2802 79.9403 73.5808 76.6398 73.5808 72.5828C73.5808 71.2187 73.2078 69.9403 72.5581 68.8439C74.672 67.5498 76.0855 65.219 76.0855 62.564C76.0855 61.2 75.7125 59.9215 75.0628 58.8251C77.1767 57.5311 78.5902 55.2003 78.5902 52.5453C78.5902 50.6372 77.86 48.8964 76.6645 47.5878C77.9664 46.2158 78.6808 44.4262 78.6808 42.5267Z" fill="#FFCF99"/>
<path d="M73.7979 22.0495H68.7886C67.4918 22.0495 66.4404 20.9981 66.4404 19.7014C66.4404 18.4047 67.4918 17.3533 68.7886 17.3533H73.7979C75.0946 17.3533 76.146 18.4047 76.146 19.7014C76.146 20.9981 75.0948 22.0495 73.7979 22.0495Z" fill="#29CCB1"/>
<path d="M38.7325 22.0495H33.7231C32.4264 22.0495 31.375 20.9981 31.375 19.7014C31.375 18.4047 32.4264 17.3533 33.7231 17.3533H38.7325C40.0292 17.3533 41.0806 18.4047 41.0806 19.7014C41.0806 20.9981 40.0295 22.0495 38.7325 22.0495Z" fill="#29CCB1"/>
<path d="M46.2489 9.03539C45.4371 9.03539 44.6481 8.6143 44.2132 7.86101L41.7085 3.52273C41.0601 2.39976 41.4449 0.963514 42.5679 0.315233C43.6909 -0.333205 45.1271 0.0516391 45.7754 1.17461L48.2801 5.51289C48.9285 6.63586 48.5437 8.07211 47.4207 8.72039C47.051 8.93398 46.6471 9.03539 46.2489 9.03539Z" fill="#29CCB1"/>
<path d="M61.272 9.03528C60.8736 9.03528 60.4698 8.93388 60.1001 8.72028C58.9772 8.07185 58.5923 6.63575 59.2408 5.51278L61.7455 1.1745C62.3937 0.0515339 63.83 -0.333622 64.953 0.315128C66.0759 0.963565 66.4608 2.39966 65.8123 3.52263L63.3076 7.86091C62.8731 8.61419 62.0836 9.03528 61.272 9.03528Z" fill="#29CCB1"/>
<path d="M16.0332 67.603V79.9699H11.3369V67.603C11.3369 66.3069 12.3889 65.2549 13.685 65.2549C14.9811 65.2549 16.0332 66.3069 16.0332 67.603Z" fill="#73C3FF"/>
<path d="M73.7979 22.0495H68.7886C67.4918 22.0495 66.4404 20.9981 66.4404 19.7014C66.4404 18.4047 67.4918 17.3533 68.7886 17.3533H73.7979C75.0946 17.3533 76.146 18.4047 76.146 19.7014C76.146 20.9981 75.0948 22.0495 73.7979 22.0495Z" fill="#29CCB1"/>
<path d="M38.7325 22.0495H33.7231C32.4264 22.0495 31.375 20.9981 31.375 19.7014C31.375 18.4047 32.4264 17.3533 33.7231 17.3533H38.7325C40.0292 17.3533 41.0806 18.4047 41.0806 19.7014C41.0806 20.9981 40.0295 22.0495 38.7325 22.0495Z" fill="#29CCB1"/>
<path d="M46.2489 9.03539C45.4371 9.03539 44.6481 8.6143 44.2132 7.86101L41.7085 3.52273C41.0601 2.39976 41.4449 0.963514 42.5679 0.315233C43.6909 -0.333205 45.1271 0.0516391 45.7754 1.17461L48.2801 5.51289C48.9285 6.63586 48.5437 8.07211 47.4207 8.72039C47.051 8.93398 46.6471 9.03539 46.2489 9.03539Z" fill="#29CCB1"/>
<path d="M61.272 9.03528C60.8736 9.03528 60.4698 8.93388 60.1001 8.72028C58.9772 8.07185 58.5923 6.63575 59.2408 5.51278L61.7455 1.1745C62.3937 0.0515339 63.83 -0.333622 64.953 0.315128C66.0759 0.963565 66.4608 2.39966 65.8123 3.52263L63.3076 7.86091C62.8731 8.61419 62.0836 9.03528 61.272 9.03528Z" fill="#29CCB1"/>
<path d="M16.0332 67.603V79.9699H11.3369V67.603C11.3369 66.3069 12.3889 65.2549 13.685 65.2549C14.9811 65.2549 16.0332 66.3069 16.0332 67.603Z" fill="#73C3FF"/>
<path d="M23.7038 35.1692H3.66648C2.37039 35.1692 1.31836 36.2212 1.31836 37.5173V77.592C1.31836 78.8896 2.37039 79.9401 3.66648 79.9698H18.6945C21.5732 79.9401 24.0701 78.2792 25.2771 75.8653C25.7734 74.8775 26.052 73.7614 26.052 72.5826V37.5173C26.052 36.2211 24.9999 35.1692 23.7038 35.1692Z" fill="#44A4EC"/>
<path d="M16.0332 67.4465V79.97H11.3369V67.4465C11.3369 66.1504 12.3889 65.0984 13.685 65.0984C14.9811 65.0984 16.0332 66.1504 16.0332 67.4465Z" fill="#73C3FF"/>
</svg>
