<svg width="80" height="80" viewBox="0 0 80 80" fill="none" xmlns="http://www.w3.org/2000/svg">
<g clip-path="url(#clip0_147_256)">
<path d="M72.8549 58.3295L56.9295 76.5432C55.4024 78.2906 52.7146 78.381 51.0734 76.7415L46.9457 72.6154V78.814C46.9457 79.4688 46.4145 80.0001 45.7596 80.0001H2.77523C1.89992 80.0001 1.18945 79.2896 1.18945 78.4143V59.2968C1.18945 54.9202 4.17539 51.1081 8.42508 50.0599L18.301 47.6243C19.7171 47.2738 20.7129 46.0037 20.7129 44.5448V34.6704H31.686V44.3021C31.686 45.8751 32.8246 47.2151 34.377 47.4704L37.9485 47.6717L43.2429 48.5393C46.6902 49.1054 49.6777 51.2413 51.327 54.3224L55.166 61.4899C55.3166 61.7706 55.5609 61.9546 55.8337 62.0354C56.2332 62.1543 56.6932 62.0496 57.0007 61.6992L65.9823 51.4538L72.8549 58.3295Z" fill="#82AEE3"/>
<path d="M37.9492 47.6714L43.2436 48.539C46.6909 49.1051 49.6784 51.2411 51.3277 54.3222L55.1667 61.4897C55.3173 61.7703 55.5616 61.9544 55.8344 62.0351C55.2889 62.4189 54.7419 62.7995 54.1962 63.1815C52.5883 64.3075 50.3603 63.7747 49.4327 62.0461L46.5705 56.7006C44.9212 53.6195 41.9337 51.4836 38.4864 50.9175L35.9844 50.5075L37.9492 47.6714Z" fill="#528FD8"/>
<path d="M34.3755 47.4697L37.9483 47.6713C36.0233 51.5693 32.011 54.2515 27.3707 54.2515C22.8457 54.2515 18.9199 51.6996 16.9424 47.9583L18.3 47.6235C19.7166 47.2741 20.7121 46.0033 20.7121 44.5443V44.4472V34.6694H34.0294L31.6857 44.3018C31.6857 45.8743 32.8243 47.2152 34.3755 47.4697Z" fill="#FFCEBF"/>
<path d="M70.5224 51.2157C69.8655 51.2157 69.333 50.6832 69.333 50.0264V22.3872C69.333 21.7303 69.8654 21.198 70.5224 21.198C71.1794 21.198 71.7116 21.7305 71.7116 22.3872V50.0264C71.7118 50.6833 71.1794 51.2157 70.5224 51.2157Z" fill="#EAF6FF"/>
<path d="M78.8108 19.5806C78.8108 19.9484 78.6522 20.3164 78.3383 20.5733L69.333 27.8898V12.6034C69.333 12.0691 69.953 11.7741 70.3669 12.1119L78.3383 18.588C78.6524 18.8448 78.8108 19.2127 78.8108 19.5806Z" fill="#F58A97"/>
<path d="M75.8012 47.271C74.2891 46.0623 72.2671 45.9024 70.629 46.7113C71.8013 47.6713 72.4077 49.0635 72.4077 50.4659C72.4077 51.5965 72.0145 52.7334 71.209 53.6548L67.6427 57.7348L51.7157 75.9485C51.486 76.2113 51.2298 76.4359 50.9551 76.6235L51.0734 76.7418C52.7146 78.3815 55.4024 78.291 56.9295 76.5435L72.8565 58.3299L76.4227 54.2499C77.2284 53.3287 77.6215 52.1917 77.6215 51.061C77.6216 49.6418 77.0016 48.232 75.8012 47.271Z" fill="#528FD8"/>
<path d="M29.2726 46.6804C29.2726 48.2529 30.4117 49.594 31.9634 49.8485L35.9839 50.5079C36.769 49.6676 37.434 48.7135 37.9487 47.6713L36.7204 47.4699H36.7203L36.7195 47.4697C35.1682 47.2154 34.0296 45.8743 34.0296 44.3018V34.6694L29.2725 37.048V46.6804H29.2726Z" fill="#FFB09E"/>
<path d="M13.2234 80.0001C13.8803 80.0001 14.4126 79.4676 14.4126 78.8107V69.6249C14.4126 68.968 13.8803 68.4355 13.2234 68.4355C12.5665 68.4355 12.0342 68.968 12.0342 69.6249V78.8107C12.0342 79.4676 12.5665 80.0001 13.2234 80.0001Z" fill="#528FD8"/>
<path d="M45.7566 80.0001C46.4135 80.0001 46.946 79.4676 46.946 78.8107V69.6249C46.946 68.968 46.4136 68.4355 45.7566 68.4355C45.0996 68.4355 44.5674 68.968 44.5674 69.6249V78.8107C44.5674 79.4676 45.0997 80.0001 45.7566 80.0001Z" fill="#528FD8"/>
<path d="M40.9435 18.44V30.3886C40.9435 35.4632 38.1605 39.8875 34.038 42.2177C33.2673 42.6533 32.4496 40.6721 31.5946 40.9519C30.8421 41.1982 30.0605 43.7241 29.2565 43.836C28.6404 43.9216 28.0109 43.966 27.3712 43.966C19.8754 43.966 13.7988 37.8874 13.7988 30.389V18.4404L27.3712 16.0618L40.9435 18.44Z" fill="#FFCEBF"/>
<path d="M36.1866 18.4399V30.3885C36.1882 31.7484 35.9916 34.8759 33.847 37.7118C31.0062 41.4681 25.9065 43.1809 20.7129 42.2212C22.078 42.9654 23.9241 43.7071 26.1676 43.911C26.5845 43.9488 26.9863 43.9656 27.3716 43.9657C34.8674 43.9657 40.944 37.8871 40.944 30.3887C40.944 26.8574 40.944 21.9712 40.944 18.4401H36.1866V18.4399Z" fill="#FFB09E"/>
<path d="M33.9197 29.4883C33.2628 29.4883 32.7305 28.9558 32.7305 28.299V25.6787C32.7305 25.0218 33.2628 24.4895 33.9197 24.4895C34.5766 24.4895 35.1089 25.022 35.1089 25.6787V28.299C35.1089 28.9558 34.5766 29.4883 33.9197 29.4883Z" fill="#554E56"/>
<path d="M20.823 29.4883C20.1661 29.4883 19.6338 28.9558 19.6338 28.299V25.6787C19.6338 25.0218 20.1661 24.4895 20.823 24.4895C21.4799 24.4895 22.0122 25.022 22.0122 25.6787V28.299C22.0124 28.9558 21.4799 29.4883 20.823 29.4883Z" fill="#554E56"/>
<path d="M27.3711 37.8361C25.9695 37.8361 24.8644 37.3928 24.18 37.0173C23.604 36.7014 23.3934 35.9784 23.7094 35.4026C24.0253 34.8267 24.7483 34.6161 25.324 34.932C25.7706 35.177 26.4972 35.4687 27.4159 35.4575C28.2967 35.4483 28.9911 35.1667 29.4186 34.9322C29.9945 34.6164 30.7175 34.8269 31.0334 35.4026C31.3494 35.9784 31.1387 36.7014 30.563 37.0175C29.8969 37.383 28.8147 37.8217 27.4408 37.8359C27.4173 37.8359 27.3942 37.8361 27.3711 37.8361Z" fill="#FFB09E"/>
<path d="M77.6215 51.0606C77.6215 52.1912 77.2282 53.3281 76.4227 54.2495L72.8549 58.3295L65.9824 51.4538L69.1332 47.8621C69.5645 47.3688 70.0751 46.9853 70.6285 46.7109C72.2666 45.9021 74.2884 46.0623 75.8012 47.2707C77.0015 48.2317 77.6215 49.6413 77.6215 51.0606Z" fill="#FFCEBF"/>
<path d="M77.6217 51.0605C77.6217 52.1911 77.2285 53.328 76.423 54.2494L72.8552 58.3294L69.7979 55.2689C72.1352 53.0314 73.8811 49.6524 70.6288 46.7106C72.2669 45.9019 74.2886 46.062 75.8014 47.2705C77.0018 48.2316 77.6217 49.6413 77.6217 51.0605Z" fill="#FFB09E"/>
<path d="M12.1513 28.6832H13.7988V22.3513H12.1513C10.4029 22.3513 8.98535 23.7688 8.98535 25.5173C8.98535 27.2659 10.4029 28.6832 12.1513 28.6832Z" fill="#FFB09E"/>
<path d="M42.5909 28.6832H40.9434V22.3513H42.5909C44.3393 22.3513 45.7568 23.7688 45.7568 25.5173C45.7568 27.2659 44.3394 28.6832 42.5909 28.6832Z" fill="#FFCEBF"/>
<path d="M42.4018 19.6397L27.3713 17.2178L12.3408 19.6397V7.935C12.3408 3.55266 15.8935 0 20.2758 0H34.4668C38.8491 0 42.4018 3.55266 42.4018 7.935V19.6397Z" fill="#F58A97"/>
<path d="M34.4671 0H29.71C34.0923 0 37.645 3.55266 37.645 7.935V18.8731L42.4022 19.6397V7.935C42.4022 3.55266 38.8495 0 34.4671 0V0Z" fill="#F07281"/>
<path d="M44.7136 21.301C44.7057 21.317 44.6977 21.3327 44.6899 21.347C44.0539 22.549 42.5983 23.0373 41.355 22.4871C40.2974 22.0177 39.2207 21.6054 38.1313 21.2487C30.0536 18.5973 21.2305 19.0112 13.386 22.4871C12.1444 23.0373 10.6886 22.549 10.0527 21.347C10.0447 21.3326 10.0369 21.3168 10.0274 21.301C9.33127 19.9848 9.8958 18.3499 11.2578 17.7459C20.0872 13.8276 29.9964 13.282 39.1255 16.1093C40.6017 16.5676 42.0575 17.113 43.4847 17.7459C44.8469 18.3499 45.4114 19.9848 44.7136 21.301Z" fill="#82AEE3"/>
<path d="M44.7142 21.3011C44.0686 22.5189 42.6123 23.0448 41.3556 22.4872C40.2979 22.0178 39.2212 21.6055 38.1318 21.2488C38.6615 20.9681 39.3734 20.4495 39.7254 19.5727C40.1584 18.4944 39.9253 17.1781 39.1261 16.1094C40.6023 16.5677 42.0581 17.1131 43.4853 17.7459C44.8475 18.35 45.412 19.9848 44.7142 21.3011Z" fill="#528FD8"/>
<path d="M78.8112 19.5808C78.8112 19.9486 78.6526 20.3165 78.3387 20.5734L73.2803 24.6836V14.4778L78.3387 18.5879C78.6528 18.845 78.8112 19.2128 78.8112 19.5808Z" fill="#F07281"/>
</g>
<defs>
<clipPath id="clip0_147_256">
<rect width="80" height="80" fill="white"/>
</clipPath>
</defs>
</svg>
