<svg width="80" height="80" viewBox="0 0 80 80" fill="none" xmlns="http://www.w3.org/2000/svg">
<g clip-path="url(#clip0_201_1053)">
<path d="M55.0488 28.0378H75.6923C76.0586 28.0378 76.3549 27.7407 76.3549 27.3751V24.8027C76.3549 24.437 76.0586 24.14 75.6923 24.14H55.0488V28.0378Z" fill="#FFD551"/>
<path d="M55.0488 24.14H63.9691V28.0378H55.0488V24.14Z" fill="#FFC34C"/>
<path d="M55.0488 80H71.7518C72.1181 80 72.4145 79.7036 72.4145 79.3374V28.0378H55.0488V80Z" fill="#BF6C0D"/>
<path d="M55.0488 28.0378H63.9691V79.9994H55.0488V28.0378Z" fill="#A56021"/>
<path d="M67.9017 42.598H61.8541C61.4878 42.598 61.1914 42.3016 61.1914 41.9353V32.9762C61.1914 32.6105 61.4878 32.3135 61.8541 32.3135H67.9017C68.268 32.3135 68.5644 32.6105 68.5644 32.9762V41.9353C68.5644 42.301 68.2673 42.598 67.9017 42.598Z" fill="#FFD551"/>
<path d="M67.9017 58.1866H61.8541C61.4878 58.1866 61.1914 57.8902 61.1914 57.5239V48.5647C61.1914 48.1991 61.4878 47.9021 61.8541 47.9021H67.9017C68.268 47.9021 68.5644 48.1991 68.5644 48.5647V57.5239C68.5644 57.8895 68.2673 58.1866 67.9017 58.1866Z" fill="#FFD551"/>
<path d="M67.9017 73.7751H61.8541C61.4878 73.7751 61.1914 73.4787 61.1914 73.1124V64.1539C61.1914 63.7876 61.4878 63.4912 61.8541 63.4912H67.9017C68.268 63.4912 68.5644 63.7876 68.5644 64.1539V73.1124C68.5644 73.4787 68.2673 73.7751 67.9017 73.7751Z" fill="#FFD551"/>
<path d="M63.969 63.4912H61.8541C61.4884 63.4912 61.1914 63.7876 61.1914 64.1539V73.1124C61.1914 73.4787 61.4884 73.7751 61.8541 73.7751H63.969V63.4912Z" fill="#FFC34C"/>
<path d="M63.969 47.9021H61.8541C61.4884 47.9021 61.1914 48.1991 61.1914 48.5647V57.5239C61.1914 57.8902 61.4884 58.1866 61.8541 58.1866H63.969V47.9021Z" fill="#FFC34C"/>
<path d="M63.969 32.3135H61.8541C61.4884 32.3135 61.1914 32.6099 61.1914 32.9762V41.9347C61.1914 42.301 61.4884 42.5974 61.8541 42.5974H63.969V32.3135Z" fill="#FFC34C"/>
<path d="M21.4533 28.0378H0.809166C0.443526 28.0378 0.146484 27.7407 0.146484 27.3751V24.8027C0.146484 24.437 0.443526 24.14 0.809166 24.14H21.4533V28.0378Z" fill="#FFD551"/>
<path d="M21.4535 80H4.75057C4.38429 80 4.08789 79.7036 4.08789 79.3374V28.0378H21.4535V80Z" fill="#A56021"/>
<path d="M4.08789 28.0378V79.3367C4.08789 79.703 4.38429 79.9994 4.75057 79.9994H13.3654V28.0378H4.08789Z" fill="#8C4C17"/>
<path d="M18.959 13.0983H57.3421V79.9994H18.959V13.0983Z" fill="#FFA730"/>
<path d="M18.959 13.0983H28.2365V79.9994H18.959V13.0983Z" fill="#E58D23"/>
<path d="M14.5469 17.0375V13.7241C14.5469 13.3578 14.8433 13.0614 15.2096 13.0614H60.2719C60.6382 13.0614 60.9346 13.3578 60.9346 13.7241V17.0375C60.9346 17.4038 60.6382 17.7002 60.2719 17.7002H15.2096C14.8433 17.7002 14.5469 17.4038 14.5469 17.0375Z" fill="#FFDF74"/>
<path d="M53.5775 33.6097H47.5299C47.1636 33.6097 46.8672 33.3133 46.8672 32.9471V23.9879C46.8672 23.6223 47.1636 23.3252 47.5299 23.3252H53.5775C53.9438 23.3252 54.2402 23.6223 54.2402 23.9879V32.9471C54.2402 33.3127 53.9431 33.6097 53.5775 33.6097Z" fill="#FFDF74"/>
<path d="M41.1751 33.6097H35.1275C34.7619 33.6097 34.4648 33.3133 34.4648 32.9471V23.9879C34.4648 23.6223 34.7619 23.3252 35.1275 23.3252H41.1751C41.5414 23.3252 41.8378 23.6223 41.8378 23.9879V32.9471C41.8378 33.3127 41.5414 33.6097 41.1751 33.6097Z" fill="#FFDF74"/>
<path d="M53.6244 48.403H47.5767C47.2105 48.403 46.9141 48.1059 46.9141 47.7403V38.7811C46.9141 38.4148 47.2105 38.1184 47.5767 38.1184H53.6244C53.99 38.1184 54.287 38.4148 54.287 38.7811V47.7403C54.287 48.1059 53.99 48.403 53.6244 48.403Z" fill="#FFDF74"/>
<path d="M41.2207 48.403H35.1724C34.8062 48.403 34.5098 48.1059 34.5098 47.7403V38.7811C34.5098 38.4148 34.8062 38.1184 35.1724 38.1184H41.2201C41.5864 38.1184 41.8828 38.4148 41.8828 38.7811V47.7403C41.8834 48.1059 41.5864 48.403 41.2207 48.403Z" fill="#FFDF74"/>
<path d="M53.597 63.488H47.5494C47.1831 63.488 46.8867 63.1916 46.8867 62.8253V53.8662C46.8867 53.5005 47.1831 53.2035 47.5494 53.2035H53.597C53.9627 53.2035 54.2597 53.5005 54.2597 53.8662V62.8253C54.2597 63.191 53.9627 63.488 53.597 63.488Z" fill="#FFDF74"/>
<path d="M41.1947 63.488H35.1471C34.7808 63.488 34.4844 63.1916 34.4844 62.8253V53.8662C34.4844 53.5005 34.7808 53.2035 35.1471 53.2035H41.1947C41.5603 53.2035 41.8573 53.5005 41.8573 53.8662V62.8253C41.8573 63.191 41.5603 63.488 41.1947 63.488Z" fill="#FFDF74"/>
<path d="M39.8696 2.72386L42.3612 3.04873C42.6698 3.0882 42.8025 3.46161 42.5889 3.68746L40.8054 5.57843C40.7226 5.66645 40.6857 5.78941 40.7077 5.90848L41.1846 8.49837C41.2422 8.81095 40.9148 9.05234 40.6333 8.90543L38.4181 7.74703C38.3022 7.68685 38.1637 7.68944 38.0511 7.7548L35.8825 9.00445C35.6069 9.163 35.2697 8.93455 35.3156 8.62004L35.6916 6.01397C35.7085 5.89424 35.6677 5.77258 35.581 5.68716L33.7262 3.87319C33.5043 3.6564 33.6214 3.27846 33.9275 3.2254L36.4067 2.79569C36.5316 2.77433 36.6378 2.69215 36.6895 2.57631L37.7444 0.22521C37.8764 -0.0685962 38.2899 -0.0770093 38.4336 0.21162L39.5778 2.51483C39.6341 2.62937 39.7441 2.70768 39.8696 2.72386Z" fill="#FFA730"/>
<path d="M50.073 3.261L51.5077 3.44867C51.8164 3.48815 51.9491 3.86155 51.7355 4.08741L50.6994 5.18627C50.6159 5.27493 50.5797 5.39724 50.6017 5.51632L50.878 7.01447C50.9356 7.32704 50.6082 7.56843 50.3267 7.42088L49.0628 6.76078C48.9469 6.7006 48.8091 6.70319 48.6959 6.76855L47.4598 7.48106C47.1841 7.63961 46.8469 7.41117 46.8922 7.09601L47.1097 5.59009C47.1272 5.46972 47.0857 5.34806 46.999 5.26263L45.9215 4.20907C45.6995 3.99163 45.8167 3.61434 46.1234 3.56128L47.5523 3.31342C47.6772 3.29141 47.7834 3.20923 47.8351 3.09403L48.4383 1.74925C48.5703 1.45545 48.9845 1.44768 49.1275 1.73566L49.7811 3.05197C49.8374 3.16651 49.9468 3.24482 50.073 3.261Z" fill="#FFB74B"/>
<path d="M59.2174 3.261L60.6521 3.44867C60.9608 3.48815 61.0935 3.86155 60.8805 4.08741L59.8438 5.18627C59.7603 5.27493 59.7241 5.39724 59.7461 5.51632L60.0224 7.01447C60.08 7.32704 59.7526 7.56843 59.4711 7.42088L58.2072 6.76078C58.092 6.7006 57.9535 6.70319 57.8402 6.76855L56.6042 7.48106C56.3285 7.63961 55.9913 7.41117 56.0373 7.09601L56.2541 5.59009C56.2715 5.46972 56.2308 5.34806 56.1434 5.26263L55.0659 4.20907C54.8439 3.99163 54.9617 3.61434 55.2678 3.56128L56.6974 3.31342C56.8223 3.29141 56.9277 3.20923 56.9795 3.09403L57.5833 1.74925C57.7147 1.45545 58.1289 1.44768 58.2719 1.73566L58.9255 3.05197C58.9818 3.16651 59.0912 3.24482 59.2174 3.261Z" fill="#FFC34C"/>
<path d="M19.5886 3.261L21.0233 3.44867C21.332 3.48815 21.4647 3.86155 21.2511 4.08741L20.2151 5.18627C20.1316 5.27493 20.0953 5.39724 20.1173 5.51632L20.3937 7.01447C20.4513 7.32704 20.1238 7.56843 19.8423 7.42088L18.5784 6.76078C18.4626 6.7006 18.3247 6.70319 18.2115 6.76855L16.9754 7.48106C16.6997 7.63961 16.3626 7.41117 16.4079 7.09601L16.6253 5.59009C16.6428 5.46972 16.6014 5.34806 16.5147 5.26263L15.4371 4.20907C15.2152 3.99163 15.3323 3.61434 15.6391 3.56128L17.068 3.31342C17.1929 3.29141 17.299 3.20923 17.3508 3.09403L17.9539 1.74925C18.0859 1.45545 18.5001 1.44768 18.6431 1.73566L19.2967 3.05197C19.3531 3.16651 19.4624 3.24482 19.5886 3.261Z" fill="#FFC34C"/>
<path d="M28.733 3.261L30.1677 3.44867C30.4764 3.48815 30.6091 3.86155 30.3962 4.08741L29.3594 5.18627C29.2759 5.27493 29.2397 5.39724 29.2617 5.51632L29.538 7.01447C29.5956 7.32704 29.2682 7.56843 28.9867 7.42088L27.7228 6.76078C27.6076 6.7006 27.4691 6.70319 27.3559 6.76855L26.1198 7.48106C25.8441 7.63961 25.5069 7.41117 25.5529 7.09601L25.7697 5.59009C25.7872 5.46972 25.7464 5.34806 25.659 5.26263L24.5815 4.20907C24.3595 3.99163 24.4773 3.61434 24.7834 3.56128L26.213 3.31342C26.3379 3.29141 26.4434 3.20923 26.4951 3.09403L27.0989 1.74925C27.2303 1.45545 27.6445 1.44768 27.7875 1.73566L28.4411 3.05197C28.4974 3.16651 28.6068 3.24482 28.733 3.261Z" fill="#FFB74B"/>
<path d="M23.8244 17.0375V13.7241C23.8244 13.3578 24.1208 13.0614 24.4871 13.0614H15.2096C14.8433 13.0614 14.5469 13.3578 14.5469 13.7241V17.0375C14.5469 17.4038 14.8433 17.7002 15.2096 17.7002H24.4871C24.1208 17.7002 23.8244 17.4038 23.8244 17.0375Z" fill="#FFD551"/>
<path d="M28.109 18.4742V16.3735C28.109 16.1768 27.9459 16.0176 27.7447 16.0176H26.1054C25.9042 16.0176 25.7411 16.1768 25.7411 16.3735V18.4742C25.7411 18.6703 25.578 18.8301 25.3767 18.8301H24.2979C24.0967 18.8301 23.9336 18.6703 23.9336 18.4742V12.0441C23.9336 11.8474 24.0967 11.6882 24.2979 11.6882H25.3767C25.578 11.6882 25.7411 11.8474 25.7411 12.0441V14.0891C25.7411 14.2858 25.9042 14.445 26.1054 14.445H27.7447C27.9459 14.445 28.109 14.2858 28.109 14.0891V12.0441C28.109 11.8474 28.2721 11.6882 28.4727 11.6882H29.5522C29.7534 11.6882 29.9165 11.8474 29.9165 12.0441V18.4742C29.9165 18.6703 29.7534 18.8301 29.5522 18.8301H28.4727C28.2721 18.8301 28.109 18.6703 28.109 18.4742Z" fill="#A56021"/>
<path d="M33.9735 18.8942C30.9979 18.8942 29.048 15.8157 31.0898 12.5644C31.1156 12.5224 31.1745 12.4648 31.2173 12.4389C34.543 10.4249 37.6978 12.3321 37.6978 15.2449C37.6985 17.3255 36.0968 18.8942 33.9735 18.8942ZM33.9735 13.242C32.8254 13.242 32.0838 14.0283 32.0838 15.2449C32.0838 16.4732 32.8254 17.2666 33.9735 17.2666C35.1209 17.2666 35.8625 16.4732 35.8625 15.2449C35.8625 14.0283 35.1209 13.242 33.9735 13.242Z" fill="#A56021"/>
<path d="M39.4503 18.4742V13.616C39.4503 13.4199 39.2873 13.2601 39.086 13.2601H38.0532C37.8525 13.2601 37.6895 13.1009 37.6895 12.9042V12.0441C37.6895 11.8474 37.8525 11.6882 38.0532 11.6882H42.6453C42.8459 11.6882 43.009 11.8474 43.009 12.0441V12.9042C43.009 13.1009 42.8459 13.2601 42.6453 13.2601H41.6222C41.4209 13.2601 41.2578 13.4199 41.2578 13.616V18.4742C41.2578 18.6703 41.0948 18.8301 40.8935 18.8301H39.814C39.6134 18.8301 39.4503 18.6703 39.4503 18.4742Z" fill="#A56021"/>
<path d="M43.3711 18.4742V12.0344C43.3711 11.8383 43.5342 11.6791 43.7354 11.6791H47.3711C47.5724 11.6791 47.7348 11.8383 47.7348 12.0344V12.8951C47.7348 13.0919 47.5724 13.2511 47.3711 13.2511H45.5429C45.3417 13.2511 45.1786 13.4102 45.1786 13.607V14.071C45.1786 14.2677 45.3417 14.4269 45.5429 14.4269H47.087C47.2883 14.4269 47.4514 14.5861 47.4514 14.7829V15.6436C47.4514 15.8397 47.2883 15.9995 47.087 15.9995H45.5429C45.3417 15.9995 45.1786 16.1587 45.1786 16.3548V16.9023C45.1786 17.099 45.3417 17.2582 45.5429 17.2582H47.3711C47.5724 17.2582 47.7348 17.4174 47.7348 17.6141V18.4748C47.7348 18.6709 47.5724 18.8308 47.3711 18.8308H43.7354C43.5342 18.8301 43.3711 18.6703 43.3711 18.4742Z" fill="#A56021"/>
<path d="M48.332 18.4742V12.0441C48.332 11.8474 48.4945 11.6882 48.6957 11.6882H49.7752C49.9764 11.6882 50.1389 11.8474 50.1389 12.0441V16.9113C50.1389 17.1074 50.302 17.2666 50.5032 17.2666H52.0001C52.2013 17.2666 52.3644 17.4265 52.3644 17.6225V18.4742C52.3644 18.6703 52.2013 18.8301 52.0001 18.8301H48.6957C48.4945 18.8301 48.332 18.6703 48.332 18.4742Z" fill="#A56021"/>
<path d="M28.8809 33.6097H22.8326C22.4663 33.6097 22.1699 33.3133 22.1699 32.9471V23.9879C22.1699 23.6223 22.4663 23.3252 22.8326 23.3252H28.8802C29.2465 23.3252 29.5429 23.6223 29.5429 23.9879V32.9471C29.5435 33.3127 29.2465 33.6097 28.8809 33.6097Z" fill="#FFDF74"/>
<path d="M28.9251 48.403H22.8775C22.5112 48.403 22.2148 48.1059 22.2148 47.7403V38.7811C22.2148 38.4148 22.5112 38.1184 22.8775 38.1184H28.9251C29.2914 38.1184 29.5878 38.4148 29.5878 38.7811V47.7403C29.5878 48.1059 29.2914 48.403 28.9251 48.403Z" fill="#FFDF74"/>
<path d="M28.8984 63.488H22.8502C22.4839 63.488 22.1875 63.1916 22.1875 62.8253V53.8662C22.1875 53.5005 22.4839 53.2035 22.8502 53.2035H28.8978C29.2641 53.2035 29.5605 53.5005 29.5605 53.8662V62.8253C29.5611 63.191 29.2641 63.488 28.8984 63.488Z" fill="#FFDF74"/>
<path d="M28.2377 53.2035H22.8521C22.4858 53.2035 22.1895 53.5005 22.1895 53.8662V62.8253C22.1895 63.1916 22.4858 63.488 22.8521 63.488H28.2377V53.2035Z" fill="#FFD551"/>
<path d="M28.2379 38.1184H22.8795C22.5132 38.1184 22.2168 38.4148 22.2168 38.7811V47.7396C22.2168 48.1052 22.5132 48.4023 22.8795 48.4023H28.2379V38.1184Z" fill="#FFD551"/>
<path d="M28.2369 23.3252H22.8326C22.4663 23.3252 22.1699 23.6223 22.1699 23.9879V32.9471C22.1699 33.3127 22.4663 33.6097 22.8326 33.6097H28.2369V23.3252Z" fill="#FFD551"/>
<path d="M49.5179 32.9471V23.9879C49.5179 23.6223 49.8143 23.3252 50.1806 23.3252H47.5299C47.1636 23.3252 46.8672 23.6223 46.8672 23.9879V32.9471C46.8672 33.3127 47.1636 33.6097 47.5299 33.6097H50.1806C49.8143 33.6097 49.5179 33.3127 49.5179 32.9471Z" fill="#FFD551"/>
<path d="M37.1156 32.9471V23.9879C37.1156 23.6223 37.4126 23.3252 37.7783 23.3252H35.1275C34.7619 23.3252 34.4648 23.6223 34.4648 23.9879V32.9471C34.4648 33.3127 34.7619 33.6097 35.1275 33.6097H37.7783C37.4126 33.6097 37.1156 33.3127 37.1156 32.9471Z" fill="#FFD551"/>
<path d="M49.5648 47.7403V38.7811C49.5648 38.4148 49.8612 38.1184 50.2275 38.1184H47.5767C47.2105 38.1184 46.9141 38.4148 46.9141 38.7811V47.7396C46.9141 48.1053 47.2105 48.4023 47.5767 48.4023H50.2275C49.8612 48.4029 49.5648 48.1059 49.5648 47.7403Z" fill="#FFD551"/>
<path d="M37.1605 47.7403V38.7811C37.1605 38.4148 37.4569 38.1184 37.8232 38.1184H35.1724C34.8062 38.1184 34.5098 38.4148 34.5098 38.7811V47.7396C34.5098 48.1053 34.8062 48.4023 35.1724 48.4023H37.8232C37.4575 48.4029 37.1605 48.1059 37.1605 47.7403Z" fill="#FFD551"/>
<path d="M49.5374 62.8253V53.8662C49.5374 53.5005 49.8338 53.2035 50.2001 53.2035H47.5494C47.1831 53.2035 46.8867 53.5005 46.8867 53.8662V62.8253C46.8867 63.1916 47.1831 63.488 47.5494 63.488H50.2001C49.8338 63.488 49.5374 63.1916 49.5374 62.8253Z" fill="#FFD551"/>
<path d="M37.1331 62.8253V53.8662C37.1331 53.5005 37.4295 53.2035 37.7958 53.2035H35.1451C34.7788 53.2035 34.4824 53.5005 34.4824 53.8662V62.8253C34.4824 63.1916 34.7788 63.488 35.1451 63.488H37.7958C37.4302 63.488 37.1331 63.1916 37.1331 62.8253Z" fill="#FFD551"/>
<path d="M37.9067 62.1769L31.0637 68.4775C30.9854 68.5494 30.9414 68.6503 30.9414 68.7558V80H45.3974V68.7558C45.3974 68.6503 45.3528 68.5494 45.2745 68.4775L38.4322 62.1769C38.2846 62.041 38.0542 62.041 37.9067 62.1769Z" fill="#FFDF74"/>
<path d="M43.41 78.3433C42.8606 78.3433 42.416 77.8981 42.416 77.3493V69.7531C42.416 69.2036 42.8606 68.759 43.41 68.759C43.9588 68.759 44.4041 69.2036 44.4041 69.7531V77.3493C44.4041 77.8981 43.9588 78.3433 43.41 78.3433Z" fill="#FFF4C1"/>
<path d="M41.2337 79.7166H35.2695V70.439C35.2695 70.0728 35.5666 69.7764 35.9322 69.7764H40.571C40.9373 69.7764 41.2337 70.0728 41.2337 70.439V79.7166Z" fill="#F9BB32"/>
<path d="M33.7144 68.4775L39.4948 63.1554L38.4328 62.1769C38.2846 62.041 38.0542 62.041 37.9067 62.1769L31.0637 68.4775C30.9854 68.5494 30.9414 68.6503 30.9414 68.7558V80H33.5921V68.7558C33.5921 68.6503 33.6361 68.5494 33.7144 68.4775Z" fill="#FFD551"/>
<path d="M45.3984 70.9166V68.8982L38.1704 62.802L30.9424 68.8982V70.9166H29.8086C29.2113 70.9166 28.7246 70.4494 28.7246 69.8741V67.4764L37.456 60.1099C37.6533 59.9436 37.907 59.8517 38.1704 59.8517C38.4338 59.8517 38.6875 59.9436 38.8849 60.1099L47.6156 67.4764V69.8741C47.6156 70.4494 47.1296 70.9173 46.5322 70.9173H45.3984V70.9166Z" fill="#FF624B"/>
<path d="M30.05 69.8741V67.4764L38.7813 60.1099C38.7975 60.0963 38.8163 60.0866 38.8331 60.0736C38.6435 59.9319 38.4118 59.851 38.1704 59.851C37.907 59.851 37.6533 59.9429 37.456 60.1099L28.7246 67.4758V69.8734C28.7246 70.4488 29.2113 70.9167 29.8086 70.9167H30.9424V70.8979C30.4363 70.8105 30.05 70.386 30.05 69.8741Z" fill="#FF4B34"/>
<path d="M38.5829 69.7764H35.9322C35.5666 69.7764 35.2695 70.0728 35.2695 70.439V79.7166H37.9203V70.439C37.9203 70.0728 38.2173 69.7764 38.5829 69.7764Z" fill="#DB9C2E"/>
<path d="M24.8382 62.8253V53.8662C24.8382 53.5005 25.1346 53.2035 25.5009 53.2035H22.8502C22.4839 53.2035 22.1875 53.5005 22.1875 53.8662V62.8253C22.1875 63.1916 22.4839 63.488 22.8502 63.488H25.5009C25.1353 63.488 24.8382 63.1916 24.8382 62.8253Z" fill="#FFC34C"/>
<path d="M24.8656 47.7403V38.7811C24.8656 38.4148 25.162 38.1184 25.5283 38.1184H22.8775C22.5112 38.1184 22.2148 38.4148 22.2148 38.7811V47.7396C22.2148 48.1053 22.5112 48.4023 22.8775 48.4023H25.5283C25.162 48.4029 24.8656 48.1059 24.8656 47.7403Z" fill="#FFC34C"/>
<path d="M24.8206 32.9471V23.9879C24.8206 23.6223 25.117 23.3252 25.4833 23.3252H22.8326C22.4663 23.3252 22.1699 23.6223 22.1699 23.9879V32.9471C22.1699 33.3127 22.4663 33.6097 22.8326 33.6097H25.4833C25.1177 33.6097 24.8206 33.3127 24.8206 32.9471Z" fill="#FFC34C"/>
<path d="M9.42403 27.3751V24.8027C9.42403 24.437 9.72107 24.14 10.0867 24.14H0.809166C0.443526 24.14 0.146484 24.437 0.146484 24.8027V27.3751C0.146484 27.7407 0.443526 28.0378 0.809166 28.0378H10.0867C9.72107 28.0378 9.42403 27.7407 9.42403 27.3751Z" fill="#FFC34C"/>
<path d="M14.5469 42.598H8.49862C8.13298 42.598 7.83594 42.3016 7.83594 41.9353V32.9762C7.83594 32.6105 8.13298 32.3135 8.49862 32.3135H14.5469C14.9125 32.3135 15.2096 32.6105 15.2096 32.9762V41.9353C15.2096 42.301 14.9125 42.598 14.5469 42.598Z" fill="#FFD551"/>
<path d="M14.5469 58.1866H8.49862C8.13298 58.1866 7.83594 57.8902 7.83594 57.5239V48.5647C7.83594 48.1991 8.13298 47.9021 8.49862 47.9021H14.5469C14.9125 47.9021 15.2096 48.1991 15.2096 48.5647V57.5239C15.2096 57.8895 14.9125 58.1866 14.5469 58.1866Z" fill="#FFD551"/>
<path d="M14.5469 73.7751H8.49862C8.13298 73.7751 7.83594 73.4787 7.83594 73.1124V64.1539C7.83594 63.7876 8.13298 63.4912 8.49862 63.4912H14.5469C14.9125 63.4912 15.2096 63.7876 15.2096 64.1539V73.1124C15.2096 73.4787 14.9125 73.7751 14.5469 73.7751Z" fill="#FFD551"/>
<path d="M13.3645 63.4912H8.49862C8.13298 63.4912 7.83594 63.7876 7.83594 64.1539V73.1124C7.83594 73.4787 8.13298 73.7751 8.49862 73.7751H13.3645V63.4912Z" fill="#FFC34C"/>
<path d="M13.3645 47.9021H8.49862C8.13298 47.9021 7.83594 48.1991 7.83594 48.5647V57.5239C7.83594 57.8902 8.13298 58.1866 8.49862 58.1866H13.3645V47.9021Z" fill="#FFC34C"/>
<path d="M13.3645 32.3135H8.49862C8.13298 32.3135 7.83594 32.6099 7.83594 32.9762V41.9347C7.83594 42.301 8.13298 42.5974 8.49862 42.5974H13.3645V32.3135Z" fill="#FFC34C"/>
<path d="M10.4867 73.1124V64.1539C10.4867 63.7876 10.7837 63.4912 11.1493 63.4912H8.49862C8.13298 63.4912 7.83594 63.7876 7.83594 64.1539V73.1124C7.83594 73.4787 8.13298 73.7751 8.49862 73.7751H11.1493C10.7837 73.7751 10.4867 73.4787 10.4867 73.1124Z" fill="#FFB74B"/>
<path d="M10.4867 57.5239V48.5647C10.4867 48.1991 10.7837 47.9021 11.1493 47.9021H8.49862C8.13298 47.9021 7.83594 48.1991 7.83594 48.5647V57.5239C7.83594 57.8902 8.13298 58.1866 8.49862 58.1866H11.1493C10.7837 58.1866 10.4867 57.8902 10.4867 57.5239Z" fill="#FFB74B"/>
<path d="M10.4867 41.9353V32.9762C10.4867 32.6105 10.7837 32.3135 11.1493 32.3135H8.49862C8.13298 32.3135 7.83594 32.6105 7.83594 32.9762V41.9353C7.83594 42.301 8.13298 42.598 8.49862 42.598H11.1493C10.7837 42.598 10.4867 42.301 10.4867 41.9353Z" fill="#FFB74B"/>
<path d="M53.554 75.4603C53.554 77.1066 52.2189 78.4423 50.5719 78.4423C48.9249 78.4423 47.5898 77.1066 47.5898 75.4603C47.5898 73.8133 48.9249 72.4782 50.5719 72.4782C52.2189 72.4782 53.554 73.8133 53.554 75.4603Z" fill="#E58D23"/>
<path d="M70.4257 78.3433C69.8762 78.3433 69.4316 77.8981 69.4316 77.3493V55.6271C69.4316 55.0783 69.8762 54.6331 70.4257 54.6331C70.9745 54.6331 71.4197 55.0783 71.4197 55.6271V77.3493C71.4197 77.8981 70.9745 78.3433 70.4257 78.3433Z" fill="#E58D23"/>
</g>
<defs>
<clipPath id="clip0_201_1053">
<rect width="80" height="80" fill="white"/>
</clipPath>
</defs>
</svg>
