<svg width="80" height="80" viewBox="0 0 80 80" fill="none" xmlns="http://www.w3.org/2000/svg">
<path d="M56.168 24.1369C56.0255 24.1398 55.8832 24.1506 55.7418 24.1694V25.005C55.7418 25.9925 55.6371 26.9772 55.4293 27.9425L54.4668 32.3375C55.0501 32.5912 55.6826 32.7116 56.3182 32.6901C56.9539 32.6685 57.5768 32.5056 58.1416 32.213C58.7063 31.9205 59.1988 31.5057 59.5831 30.9989C59.9675 30.4922 60.234 29.9061 60.3633 29.2833C60.4926 28.6606 60.4815 28.0168 60.3308 27.3989C60.18 26.781 59.8935 26.2044 59.4919 25.7112C59.0903 25.218 58.5838 24.8205 58.0093 24.5476C57.4347 24.2747 56.8066 24.1333 56.1705 24.1338L56.168 24.1369Z" fill="#FFCC99"/>
<path d="M24.5774 27.945C24.3663 26.9786 24.2599 25.9923 24.2599 25.0031V24.1813C23.5982 24.089 22.924 24.1529 22.2913 24.3678C21.6586 24.5827 21.085 24.9427 20.6164 25.419C20.1478 25.8953 19.7971 26.4747 19.5925 27.1108C19.3878 27.7468 19.3349 28.422 19.4379 29.0822C19.5409 29.7424 19.797 30.3693 20.1857 30.9128C20.5743 31.4563 21.0848 31.9013 21.6763 32.2122C22.2677 32.5231 22.9237 32.6913 23.5918 32.7033C24.2599 32.7153 24.9215 32.5708 25.5237 32.2813L24.5774 27.945Z" fill="#FFCC99"/>
<path d="M49.3201 51.8181C49.0878 51.3816 48.9348 50.9074 48.8682 50.4175L48.1807 45.0231C45.8139 46.7738 42.9477 47.7187 40.0038 47.7187C37.0599 47.7187 34.1937 46.7738 31.827 45.0231L31.1395 50.4175C31.0245 50.8904 30.8524 51.3475 30.627 51.7788L40.002 58.3988L49.3201 51.8181Z" fill="#FFCC99"/>
<path d="M34.6004 14.2981C31.1985 20.6875 26.4998 21.5625 24.2598 21.5806V25.0056C24.26 25.9931 24.3647 26.9777 24.5723 27.9431L25.5223 32.2775C26.0173 34.5488 26.3504 36.9731 27.226 39.1356C28.262 41.6726 30.03 43.8436 32.3046 45.3718C34.5793 46.8999 37.2576 47.716 39.9979 47.716C42.7382 47.716 45.4165 46.8999 47.6911 45.3718C49.9658 43.8436 51.7338 41.6726 52.7698 39.1356C53.6448 36.9731 53.9785 34.5488 54.4735 32.2775L55.4229 27.9431C55.6307 26.9778 55.7354 25.9931 55.7354 25.0056V23.1994C35.9448 22.3169 34.6004 14.2981 34.6004 14.2981Z" fill="#FFE5B3"/>
<path d="M40.1589 33.0706H41.3901C41.6802 33.0706 41.9584 32.9554 42.1635 32.7503C42.3687 32.5452 42.4839 32.267 42.4839 31.9769C42.4839 31.6868 42.3687 31.4086 42.1635 31.2035C41.9584 30.9984 41.6802 30.8831 41.3901 30.8831L40.1951 30.925L40.6414 27.9763C40.6629 27.8342 40.6563 27.6893 40.6219 27.5499C40.5874 27.4104 40.5258 27.2791 40.4406 27.1634C40.3554 27.0478 40.2483 26.95 40.1253 26.8757C40.0023 26.8015 39.8659 26.7522 39.7239 26.7306C39.5819 26.7091 39.437 26.7157 39.2975 26.7502C39.158 26.7846 39.0267 26.8462 38.9111 26.9314C38.7954 27.0166 38.6976 27.1238 38.6234 27.2467C38.5491 27.3697 38.4998 27.5061 38.4783 27.6481L38.032 30.5969C37.9857 30.903 38.006 31.2155 38.0915 31.513C38.177 31.8105 38.3257 32.0861 38.5274 32.321C38.7291 32.5558 38.9791 32.7443 39.2604 32.8737C39.5416 33.0031 39.8474 33.0703 40.157 33.0706H40.1589Z" fill="#393647"/>
<path d="M46.921 22.2957C46.4039 22.2957 45.8984 22.449 45.4685 22.7363C45.0385 23.0236 44.7034 23.4319 44.5056 23.9097C44.3077 24.3874 44.256 24.9131 44.3569 25.4203C44.4578 25.9275 44.7069 26.3933 45.0726 26.7589C45.4383 27.1245 45.9042 27.3734 46.4114 27.4743C46.9185 27.5751 47.4442 27.5232 47.9219 27.3252C48.3996 27.1273 48.8079 26.7921 49.0951 26.362C49.3823 25.932 49.5355 25.4265 49.5354 24.9094C49.5346 24.2163 49.2588 23.5519 48.7687 23.0619C48.2786 22.5719 47.6141 22.2963 46.921 22.2957Z" fill="#393647"/>
<path d="M43.2767 35.9313C42.8411 36.3729 42.3169 36.7174 41.7387 36.9422C41.1605 37.167 40.5413 37.267 39.9217 37.2356C39.302 37.267 38.6827 37.167 38.1043 36.9421C37.526 36.7172 37.0018 36.3725 36.5661 35.9306C36.4763 35.8153 36.3643 35.7191 36.2367 35.6478C36.1091 35.5765 35.9685 35.5315 35.8232 35.5155C35.6779 35.4994 35.5308 35.5127 35.3908 35.5544C35.2507 35.5962 35.1204 35.6656 35.0075 35.7585C34.8947 35.8515 34.8017 35.9661 34.734 36.0957C34.6662 36.2252 34.6251 36.367 34.6131 36.5127C34.6011 36.6584 34.6184 36.805 34.664 36.9439C34.7096 37.0827 34.7826 37.2111 34.8786 37.3213C35.5171 38.0159 36.2987 38.5635 37.1695 38.9264C38.0404 39.2893 38.9796 39.4588 39.9224 39.4231C40.8649 39.4587 41.8039 39.2894 42.6746 38.9267C43.5453 38.564 44.3269 38.0167 44.9655 37.3225C45.0603 37.2121 45.1321 37.084 45.1767 36.9455C45.2213 36.807 45.2379 36.6611 45.2254 36.5161C45.2129 36.3712 45.1717 36.2302 45.104 36.1014C45.0364 35.9726 44.9437 35.8586 44.8315 35.7661C44.7192 35.6735 44.5896 35.6043 44.4503 35.5624C44.311 35.5206 44.1647 35.507 44.02 35.5224C43.8754 35.5377 43.7352 35.5818 43.6078 35.652C43.4804 35.7223 43.3683 35.8172 43.278 35.9313H43.2767Z" fill="#393647"/>
<path d="M35.6955 24.9094C35.6955 24.3923 35.5422 23.8868 35.2549 23.4569C34.9676 23.0269 34.5593 22.6918 34.0815 22.494C33.6038 22.2961 33.0781 22.2444 32.5709 22.3453C32.0637 22.4462 31.5979 22.6953 31.2323 23.061C30.8667 23.4267 30.6178 23.8926 30.517 24.3997C30.4162 24.9069 30.468 25.4326 30.666 25.9103C30.864 26.388 31.1991 26.7963 31.6292 27.0835C32.0592 27.3707 32.5647 27.5239 33.0818 27.5238C33.7749 27.5229 34.4393 27.2472 34.9293 26.7571C35.4193 26.267 35.6949 25.6025 35.6955 24.9094Z" fill="#393647"/>
<path d="M23.6766 24.1369C23.8715 24.1383 24.0661 24.1532 24.2591 24.1813V21.5806C26.5003 21.5625 31.1991 20.6875 34.6009 14.2981C34.6009 14.2981 35.9453 22.3169 55.7403 23.1994V24.1694C55.8817 24.1506 56.024 24.1398 56.1666 24.1369C56.937 24.1368 57.693 24.3456 58.3541 24.7413V12.9669C58.3541 9.81744 57.1029 6.79699 54.876 4.56999C52.649 2.343 49.6285 1.09189 46.4791 1.09189H33.2122C31.2847 1.09189 29.4362 1.85757 28.0733 3.22049C26.7104 4.58341 25.9447 6.43193 25.9447 8.35939C24.8053 8.35955 23.7126 8.81224 22.907 9.61791C22.1013 10.4236 21.6486 11.5163 21.6484 12.6556V24.6475C22.2717 24.3117 22.9686 24.1362 23.6766 24.1369Z" fill="#FF7038"/>
<path d="M47.2756 65.0575L53.8125 54.3825C53.7581 54.3756 53.7044 54.3712 53.6494 54.3644C52.3794 54.1769 49.9619 53.6319 49.3488 51.885C49.3369 51.8631 49.3275 51.84 49.3162 51.8181L40 58.3987L47.2756 65.0575Z" fill="#7DD5F4"/>
<path d="M74.9129 69.2063V78.9H5.08789V69.2063C5.0891 66.1151 6.10567 63.1098 7.98127 60.6527C9.85688 58.1956 12.4877 56.4225 15.4691 55.6063C17.691 55.074 19.9608 54.7662 22.2441 54.6875C23.5566 54.6063 24.8754 54.5063 26.1816 54.375L32.7254 65.0562L40.0004 58.4L47.2754 65.0562L53.8129 54.3813C55.3566 54.5688 56.8566 54.65 58.3941 54.7875C60.4602 54.8781 62.5141 55.1521 64.5316 55.6063C67.5131 56.4225 70.1439 58.1956 72.0195 60.6527C73.8951 63.1098 74.9117 66.1151 74.9129 69.2063Z" fill="#49566D"/>
<path d="M15.125 71.7125V78.9H12.9375V71.7125C12.9375 71.4224 13.0527 71.1442 13.2579 70.9391C13.463 70.734 13.7412 70.6188 14.0312 70.6188C14.3213 70.6188 14.5995 70.734 14.8046 70.9391C15.0098 71.1442 15.125 71.4224 15.125 71.7125Z" fill="#393647"/>
<path d="M66.9062 71.7125V78.9H64.7188V71.7125C64.7188 71.4224 64.834 71.1442 65.0391 70.9391C65.2442 70.734 65.5224 70.6188 65.8125 70.6188C66.1026 70.6188 66.3808 70.734 66.5859 70.9391C66.791 71.1442 66.9062 71.4224 66.9062 71.7125Z" fill="#393647"/>
<path d="M40.001 58.3987L30.626 51.7787C30.2208 52.5955 29.586 53.2761 28.7995 53.7373C28.0131 54.1985 27.1091 54.4201 26.1985 54.375H26.1816L32.7254 65.0581L40.001 58.3987Z" fill="#7DD5F4"/>
<path d="M40 66.875C40.2901 66.875 40.5683 66.7598 40.7734 66.5546C40.9785 66.3495 41.0938 66.0713 41.0938 65.7812V59.3994L40 58.3987L38.9062 59.3987V65.7812C38.9062 66.0713 39.0215 66.3495 39.2266 66.5546C39.4317 66.7598 39.7099 66.875 40 66.875Z" fill="#393647"/>
<path d="M45.9375 71.7137H59.8438V78.9031H45.9375V71.7137Z" fill="#F4F1F1"/>
</svg>
