<svg width="22" height="22" viewBox="0 0 22 22" fill="none" xmlns="http://www.w3.org/2000/svg">
<path d="M20.6548 0.233337L21.7658 1.34512L9.98795 13.123L8.87695 12.012L20.6548 0.233337Z" fill="#12161E"/>
<path d="M22 7.85714H20.4286V1.57143H14.1429V0H22V7.85714ZM18.0714 22H2.35714C1.02143 22 0 20.9786 0 19.6429V3.92857C0 2.59286 1.02143 1.57143 2.35714 1.57143H11V3.14286H2.35714C1.88571 3.14286 1.57143 3.45714 1.57143 3.92857V19.6429C1.57143 20.1143 1.88571 20.4286 2.35714 20.4286H18.0714C18.5429 20.4286 18.8571 20.1143 18.8571 19.6429V11H20.4286V19.6429C20.4286 20.9786 19.4071 22 18.0714 22Z" fill="#12161E"/>
</svg>
