<svg width="30" height="30" viewBox="0 0 30 30" fill="none" xmlns="http://www.w3.org/2000/svg">
<path fill-rule="evenodd" clip-rule="evenodd" d="M9.37521 21.5627C9.37521 21.3141 9.47398 21.0756 9.6498 20.8998C9.82561 20.724 10.0641 20.6252 10.3127 20.6252H27.1877C27.4363 20.6252 27.6748 20.724 27.8506 20.8998C28.0264 21.0756 28.1252 21.3141 28.1252 21.5627C28.1252 21.8114 28.0264 22.0498 27.8506 22.2256C27.6748 22.4014 27.4363 22.5002 27.1877 22.5002H10.3127C10.0641 22.5002 9.82561 22.4014 9.6498 22.2256C9.47398 22.0498 9.37521 21.8114 9.37521 21.5627ZM9.37521 14.0627C9.37521 13.8141 9.47398 13.5756 9.6498 13.3998C9.82561 13.224 10.0641 13.1252 10.3127 13.1252H27.1877C27.4363 13.1252 27.6748 13.224 27.8506 13.3998C28.0264 13.5756 28.1252 13.8141 28.1252 14.0627C28.1252 14.3114 28.0264 14.5498 27.8506 14.7256C27.6748 14.9014 27.4363 15.0002 27.1877 15.0002H10.3127C10.0641 15.0002 9.82561 14.9014 9.6498 14.7256C9.47398 14.5498 9.37521 14.3114 9.37521 14.0627ZM9.37521 6.56271C9.37521 6.31407 9.47398 6.07561 9.6498 5.8998C9.82561 5.72398 10.0641 5.62521 10.3127 5.62521H27.1877C27.4363 5.62521 27.6748 5.72398 27.8506 5.8998C28.0264 6.07561 28.1252 6.31407 28.1252 6.56271C28.1252 6.81135 28.0264 7.04981 27.8506 7.22562C27.6748 7.40144 27.4363 7.50021 27.1877 7.50021H10.3127C10.0641 7.50021 9.82561 7.40144 9.6498 7.22562C9.47398 7.04981 9.37521 6.81135 9.37521 6.56271ZM7.22646 4.02396C7.31376 4.11105 7.38303 4.2145 7.43029 4.3284C7.47756 4.4423 7.50188 4.5644 7.50188 4.68771C7.50188 4.81102 7.47756 4.93313 7.43029 5.04702C7.38303 5.16092 7.31376 5.26438 7.22646 5.35146L4.41396 8.16396C4.32687 8.25127 4.22342 8.32054 4.10952 8.3678C3.99562 8.41506 3.87352 8.43939 3.75021 8.43939C3.62689 8.43939 3.50479 8.41506 3.39089 8.3678C3.277 8.32054 3.17354 8.25127 3.08646 8.16396L2.14896 7.22646C2.06179 7.1393 1.99265 7.03582 1.94548 6.92193C1.8983 6.80804 1.87402 6.68598 1.87402 6.56271C1.87402 6.43944 1.8983 6.31738 1.94548 6.20349C1.99265 6.08961 2.06179 5.98613 2.14896 5.89896C2.23612 5.8118 2.3396 5.74265 2.45349 5.69548C2.56738 5.64831 2.68944 5.62403 2.81271 5.62403C2.93598 5.62403 3.05804 5.64831 3.17193 5.69548C3.28581 5.74265 3.38929 5.8118 3.47646 5.89896L3.75021 6.17459L5.89896 4.02396C5.98604 3.93665 6.0895 3.86739 6.20339 3.82013C6.31729 3.77286 6.43939 3.74854 6.56271 3.74854C6.68602 3.74854 6.80812 3.77286 6.92202 3.82013C7.03592 3.86739 7.13937 3.93665 7.22646 4.02396V4.02396ZM7.22646 11.524C7.31376 11.611 7.38303 11.7145 7.43029 11.8284C7.47756 11.9423 7.50188 12.0644 7.50188 12.1877C7.50188 12.311 7.47756 12.4331 7.43029 12.547C7.38303 12.6609 7.31376 12.7644 7.22646 12.8515L4.41396 15.664C4.32687 15.7513 4.22342 15.8205 4.10952 15.8678C3.99562 15.9151 3.87352 15.9394 3.75021 15.9394C3.62689 15.9394 3.50479 15.9151 3.39089 15.8678C3.277 15.8205 3.17354 15.7513 3.08646 15.664L2.14896 14.7265C1.97292 14.5504 1.87402 14.3117 1.87402 14.0627C1.87402 13.8138 1.97292 13.575 2.14896 13.399C2.325 13.2229 2.56375 13.124 2.81271 13.124C3.06166 13.124 3.30042 13.2229 3.47646 13.399L3.75021 13.6746L5.89896 11.524C5.98604 11.4367 6.0895 11.3674 6.20339 11.3201C6.31729 11.2729 6.43939 11.2485 6.56271 11.2485C6.68602 11.2485 6.80812 11.2729 6.92202 11.3201C7.03592 11.3674 7.13937 11.4367 7.22646 11.524V11.524ZM7.22646 19.024C7.31376 19.111 7.38303 19.2145 7.43029 19.3284C7.47756 19.4423 7.50188 19.5644 7.50188 19.6877C7.50188 19.811 7.47756 19.9331 7.43029 20.047C7.38303 20.1609 7.31376 20.2644 7.22646 20.3515L4.41396 23.164C4.32687 23.2513 4.22342 23.3205 4.10952 23.3678C3.99562 23.4151 3.87352 23.4394 3.75021 23.4394C3.62689 23.4394 3.50479 23.4151 3.39089 23.3678C3.277 23.3205 3.17354 23.2513 3.08646 23.164L2.14896 22.2265C1.97292 22.0504 1.87402 21.8117 1.87402 21.5627C1.87402 21.3138 1.97292 21.075 2.14896 20.899C2.325 20.7229 2.56375 20.624 2.81271 20.624C3.06166 20.624 3.30042 20.7229 3.47646 20.899L3.75021 21.1746L5.89896 19.024C5.98604 18.9367 6.0895 18.8674 6.20339 18.8201C6.31729 18.7729 6.43939 18.7485 6.56271 18.7485C6.68602 18.7485 6.80812 18.7729 6.92202 18.8201C7.03592 18.8674 7.13937 18.9367 7.22646 19.024V19.024Z" fill="#FBC418"/>
</svg>
