<svg width="30" height="30" viewBox="0 0 30 30" fill="none" xmlns="http://www.w3.org/2000/svg">
<path d="M28.6434 23.6999C28.4962 24.9771 27.9939 26.1875 27.1934 27.1936C26.7743 27.6964 26.2466 28.0976 25.6502 28.3671C25.0537 28.6367 24.4039 28.7675 23.7496 28.7499C20.7432 28.7532 17.7671 28.1495 14.9996 26.9749C10.9242 25.2546 7.44628 22.3711 5.0007 18.6849C2.55512 14.9988 1.25039 10.6735 1.24963 6.24987C1.23196 5.59557 1.36281 4.94578 1.63236 4.34931C1.9019 3.75285 2.30312 3.22524 2.80587 2.80612C3.81196 2.00561 5.02237 1.50326 6.29962 1.35612C6.71322 1.29797 7.13428 1.32332 7.53791 1.43067C7.94154 1.53802 8.31956 1.72519 8.64962 1.98112C8.6929 2.00987 8.73095 2.04581 8.76212 2.08737L11.7434 5.86862C12.1737 6.43732 12.3966 7.1361 12.375 7.84893C12.3534 8.56177 12.0886 9.24577 11.6246 9.78737L10.7246 10.7311L9.99962 11.4874C10.1621 13.6999 12.4621 16.4436 14.9996 18.2186C16.0662 19.0132 17.2725 19.6005 18.5559 19.9499L19.2746 19.2749L20.1934 18.3999C20.7323 17.9282 21.4168 17.6559 22.1324 17.6286C22.8481 17.6013 23.5514 17.8206 24.1246 18.2499L27.9184 21.2499L28.0246 21.3561C28.2787 21.6859 28.4643 22.0631 28.5705 22.4656C28.6768 22.868 28.7015 23.2877 28.6434 23.6999Z" fill="#F5C12E"/>
<path d="M28.6438 23.7001C28.4966 24.9773 27.9943 26.1878 27.1937 27.1938C26.7746 27.6966 26.247 28.0978 25.6506 28.3674C25.0541 28.6369 24.4043 28.7678 23.75 28.7501C20.7436 28.7535 17.7674 28.1497 15 26.9751V18.2251C16.0666 19.0197 17.2729 19.6069 18.5563 19.9563L19.275 19.2813L20.1938 18.4063C20.7326 17.9347 21.4172 17.6624 22.1328 17.6351C22.8484 17.6078 23.5517 17.8271 24.125 18.2563L27.9187 21.2501L28.025 21.3563C28.279 21.6861 28.4646 22.0633 28.5709 22.4658C28.6771 22.8683 28.7019 23.2879 28.6438 23.7001Z" fill="#F0AB00"/>
</svg>
