<svg width="80" height="80" viewBox="0 0 80 80" fill="none" xmlns="http://www.w3.org/2000/svg">
<path d="M11.875 51.7188H2.34375C1.04828 51.7188 0 50.6705 0 49.375V7.1875C0 5.89203 1.04828 4.84375 2.34375 4.84375H58.75C60.0455 4.84375 61.0938 5.89203 61.0938 7.1875V16.5625C61.0938 17.858 60.0455 18.9062 58.75 18.9062H23.5938V30.625C23.5938 31.9205 22.5455 32.9688 21.25 32.9688H14.2188V49.375C14.2188 50.6705 13.1705 51.7188 11.875 51.7188Z" fill="#FFCB66"/>
<path d="M58.75 4.84375H40V18.9062H58.75C60.0455 18.9062 61.0938 17.858 61.0938 16.5625V7.1875C61.0938 5.89203 60.0455 4.84375 58.75 4.84375Z" fill="#FFA54D"/>
<path d="M77.6562 61.0938H68.125C66.8295 61.0938 65.7812 60.0455 65.7812 58.75V32.9688H21.25C19.9545 32.9688 18.9062 31.9205 18.9062 30.625V16.5625C18.9062 15.267 19.9545 14.2188 21.25 14.2188H77.6562C78.9517 14.2188 80 15.267 80 16.5625V58.75C80 60.0455 78.9517 61.0938 77.6562 61.0938Z" fill="#E6F2F2"/>
<path d="M77.6562 14.2188H40V32.9688H65.7812V58.75C65.7812 60.0455 66.8295 61.0938 68.125 61.0938H77.6562C78.9517 61.0938 80 60.0455 80 58.75V16.5625C80 15.267 78.9517 14.2188 77.6562 14.2188Z" fill="#CFE6E6"/>
<path d="M68.125 28.2812H11.875C10.5623 28.2812 9.53125 29.3123 9.53125 30.625V72.8125C9.53125 73.4688 9.8125 74.0312 10.1875 74.5L25.9375 68.125H44.6875L69.8125 74.5C70.1875 74.0312 70.4688 73.4688 70.4688 72.8125V30.625C70.4688 29.3123 69.4377 28.2812 68.125 28.2812Z" fill="#66B3FF"/>
<path d="M68.125 28.2812H40V68.125H44.6875L69.8125 74.5C70.1875 74.0312 70.4688 73.4688 70.4688 72.8125V30.625C70.4688 29.3123 69.4377 28.2812 68.125 28.2812Z" fill="#4D88FF"/>
<path d="M69.8125 74.5C69.3437 74.875 68.7812 75.1562 68.125 75.1562H11.875C11.2188 75.1562 10.6562 74.875 10.1875 74.5L24.2802 60.4073C25.1955 59.492 26.6794 59.492 27.5947 60.4073L28.9677 61.7803C29.883 62.6956 31.3669 62.6956 32.2822 61.7803L43.0302 51.0323C43.9455 50.117 45.4294 50.117 46.3447 51.0323L69.8125 74.5Z" fill="#ADE65C"/>
<path d="M25.9375 51.7188C22.0603 51.7188 18.9062 48.5647 18.9062 44.6875C18.9062 40.8103 22.0603 37.6562 25.9375 37.6562C29.8147 37.6562 32.9688 40.8103 32.9688 44.6875C32.9688 48.5647 29.8147 51.7188 25.9375 51.7188Z" fill="#FFCB66"/>
<path d="M43.0302 51.032L40 54.0622V75.1562H68.125C68.7813 75.1562 69.3438 74.875 69.8125 74.5L46.3448 51.032C45.4294 50.1169 43.9456 50.1169 43.0302 51.032Z" fill="#7ACC52"/>
</svg>
