<svg width="35" height="35" viewBox="0 0 35 35" fill="none" xmlns="http://www.w3.org/2000/svg">
<path d="M29.8744 5.12559C26.5691 1.82027 22.1744 0 17.5 0C12.8256 0 8.4309 1.82027 5.12559 5.12559C1.82027 8.4309 0 12.8256 0 17.5C0 22.1744 1.82034 26.569 5.12559 29.8744C8.43083 33.1798 12.8256 35 17.5 35C22.1744 35 26.5691 33.1797 29.8744 29.8744C33.1797 26.5691 35 22.1744 35 17.5C35 12.8256 33.1797 8.43097 29.8744 5.12559ZM17.5 16.4062C20.2139 16.4062 22.4219 18.6142 22.4219 21.3281C22.4219 23.5756 20.9072 25.4747 18.8454 26.0615C18.6973 26.1037 18.5938 26.2369 18.5938 26.391V27.3129C18.5938 27.9018 18.1411 28.4086 17.5528 28.4363C16.9247 28.4658 16.4062 27.9653 16.4062 27.3438V26.3908C16.4062 26.2371 16.3033 26.1038 16.1556 26.0618C14.1026 25.478 12.5919 23.5931 12.5782 21.3587C12.5746 20.7622 13.0435 20.2519 13.6397 20.2349C14.2585 20.2171 14.7656 20.7134 14.7656 21.3281C14.7656 22.9005 16.0998 24.1672 17.6954 24.0557C19.0424 23.9615 20.1335 22.8704 20.2275 21.5234C20.339 19.9277 19.0723 18.5938 17.5 18.5938C14.7861 18.5938 12.5781 16.3858 12.5781 13.6719C12.5781 11.4244 14.0928 9.52526 16.1546 8.93847C16.3027 8.89629 16.4062 8.76306 16.4062 8.60904V7.68715C16.4062 7.09816 16.8589 6.59142 17.4472 6.56373C18.0753 6.5342 18.5938 7.03466 18.5938 7.65625V8.60925C18.5938 8.76285 18.6967 8.89615 18.8444 8.93819C20.8974 9.52198 22.4081 11.4069 22.4218 13.6413C22.4254 14.2378 21.9565 14.7481 21.3603 14.7651C20.7415 14.7829 20.2344 14.2866 20.2344 13.6719C20.2344 12.0995 18.9002 10.8328 17.3046 10.9443C15.9576 11.0385 14.8665 12.1296 14.7725 13.4766C14.661 15.0723 15.9277 16.4062 17.5 16.4062Z" fill="white"/>
</svg>
