<svg width="80" height="80" viewBox="0 0 80 80" fill="none" xmlns="http://www.w3.org/2000/svg">
<path d="M79.9664 22.3283L73.5353 9.52078C72.6772 7.81188 70.9286 6.73328 69.0162 6.73328H10.9853C9.07312 6.73328 7.32437 7.81203 6.46625 9.52078L0.0351562 22.3283L5.62641 24.733H74.3752L79.9664 22.3283Z" fill="#FA6931"/>
<path d="M73.5362 9.52078C72.678 7.81188 70.9295 6.73328 69.0171 6.73328H63.3652C65.2774 6.73328 67.0262 7.81203 67.8843 9.52078L74.3154 22.3283H79.9671L73.5362 9.52078Z" fill="#FC5327"/>
<path d="M73.3047 75.9291H4.60891V25.9155H73.3047V75.9291Z" fill="#EEDFDA"/>
<path d="M67.6875 25.9153H73.3053V75.9289H67.6875V25.9153Z" fill="#DED0CB"/>
<path d="M51.2207 75.9291H67.6932V38.7573C67.6932 38.2423 67.2757 37.8248 66.7607 37.8248H52.1534C51.6384 37.8248 51.2209 38.2423 51.2209 38.7573V75.9291H51.2207Z" fill="#557981"/>
<path d="M9.75391 75.9291H45.8272V38.7573C45.8272 38.2423 45.4097 37.8248 44.8947 37.8248H10.6864C10.1714 37.8248 9.75391 38.2423 9.75391 38.7573V75.9291Z" fill="#97E4F9"/>
<path d="M9.75391 75.9291H45.8272V38.7573C45.8272 38.2423 45.4097 37.8248 44.8947 37.8248H10.6864C10.1714 37.8248 9.75391 38.2423 9.75391 38.7573V75.9291Z" fill="#97E4F9"/>
<path d="M44.8948 37.8247H39.0684C39.5834 37.8247 40.0009 38.2422 40.0009 38.7572V75.9287H45.8273V38.7573C45.8274 38.2423 45.4099 37.8247 44.8948 37.8247Z" fill="#62D8F9"/>
<path d="M73.3055 32.5405C76.9842 32.5405 79.9664 29.5583 79.9664 25.8795V22.3284H66.6445V25.8795C66.6445 29.5581 69.6267 32.5405 73.3055 32.5405Z" fill="#FC5327"/>
<path d="M59.9832 32.5405C63.662 32.5405 66.6441 29.5583 66.6441 25.8795V22.3284H53.3223V25.8795C53.3223 29.5581 56.3045 32.5405 59.9832 32.5405Z" fill="#ED4322"/>
<path d="M46.6609 32.5405C50.3397 32.5405 53.3219 29.5583 53.3219 25.8795V22.3284H40V25.8795C40 29.5581 42.9822 32.5405 46.6609 32.5405Z" fill="#FC5327"/>
<path d="M33.3406 32.5405C37.0194 32.5405 40.0016 29.5583 40.0016 25.8795V22.3284H26.6797V25.8795C26.6797 29.5581 29.6619 32.5405 33.3406 32.5405Z" fill="#ED4322"/>
<path d="M20.0184 32.5405C23.6971 32.5405 26.6793 29.5583 26.6793 25.8795V22.3284H13.3574V25.8795C13.3574 29.5581 16.3396 32.5405 20.0184 32.5405Z" fill="#FC5327"/>
<path d="M6.69609 32.5405C10.3748 32.5405 13.357 29.5583 13.357 25.8795V22.3284H0.0351562V25.8795C0.0351562 29.5581 3.01734 32.5405 6.69609 32.5405Z" fill="#ED4322"/>
<path d="M2.15594 80H77.8456C79.0169 80 79.9664 79.0505 79.9664 77.8792V73.9789C79.9664 72.8077 79.0169 71.8581 77.8456 71.8581H2.15594C0.984687 71.8581 0.0351562 72.8077 0.0351562 73.9789V77.8792C0.0351562 79.0505 0.984687 80 2.15594 80Z" fill="#FA6931"/>
<path d="M45.8281 71.858H9.75484V62.9238H45.8281V71.858Z" fill="#E5ECF1"/>
<path d="M40 62.9238H45.8264V71.858H40V62.9238Z" fill="#C9E2E7"/>
<path d="M35.2718 46.2273C35.9387 46.2273 36.479 45.6869 36.479 45.0202V37.8248H34.0645V45.0202C34.0646 45.6869 34.6051 46.2273 35.2718 46.2273Z" fill="#EEDFDA"/>
<path d="M39.177 48.4034L36.4106 44.2689C35.8678 43.4577 34.675 43.4577 34.1322 44.2689L31.3658 48.4034C31.1098 48.7859 31.384 49.2994 31.8442 49.2994H38.6986C39.1587 49.2994 39.433 48.7859 39.177 48.4034Z" fill="#FBD307"/>
<path d="M20.3109 46.2273C20.9777 46.2273 21.518 45.6869 21.518 45.0202V37.8248H19.1035V45.0202C19.1037 45.6869 19.644 46.2273 20.3109 46.2273Z" fill="#EEDFDA"/>
<path d="M24.2161 48.4034L21.4497 44.2689C20.9069 43.4577 19.714 43.4577 19.1712 44.2689L16.4048 48.4034C16.1489 48.7859 16.4231 49.2994 16.8833 49.2994H23.7376C24.1978 49.2994 24.472 48.7859 24.2161 48.4034Z" fill="#FBD307"/>
<path d="M56.4474 57.8848C55.7805 57.8848 55.2402 57.3444 55.2402 56.6777V52.5666C55.2402 51.8997 55.7807 51.3594 56.4474 51.3594C57.1141 51.3594 57.6546 51.8998 57.6546 52.5666V56.6777C57.6546 57.3444 57.1141 57.8848 56.4474 57.8848Z" fill="#C9E2E7"/>
<path d="M53.4519 13.4666H26.5494C25.1306 13.4666 23.9805 12.3164 23.9805 10.8977V2.56891C23.9805 1.15016 25.1306 0 26.5494 0H53.4519C54.8706 0 56.0208 1.15016 56.0208 2.56891V10.8975C56.0208 12.3164 54.8706 13.4666 53.4519 13.4666Z" fill="#FBA615"/>
<path d="M53.4523 0H47.6992C49.118 0 50.2681 1.15016 50.2681 2.56891V13.4666H53.4522C54.8709 13.4666 56.0211 12.3164 56.0211 10.8977V2.56891C56.0213 1.15016 54.8711 0 53.4523 0V0Z" fill="#FA9801"/>
<path d="M74.3155 22.3283V25.8794C74.3155 28.5477 72.7459 30.8481 70.4805 31.9114C71.3384 32.3141 72.2958 32.5403 73.3064 32.5403C76.9852 32.5403 79.9673 29.5581 79.9673 25.8794V22.3283H74.3155Z" fill="#ED4322"/>
</svg>
