<svg width="80" height="80" viewBox="0 0 80 80" fill="none" xmlns="http://www.w3.org/2000/svg">
<g clip-path="url(#clip0_147_204)">
<path d="M29.0811 47.5583L30.5618 43.1115L55.6189 51.4551L54.1382 55.9019L29.0811 47.5583Z" fill="#E2D9FB"/>
<path d="M37.8535 64.9531L54.3814 57.8672L56.2277 62.1735L39.6998 69.2595L37.8535 64.9531Z" fill="#E2D9FB"/>
<path d="M22.5158 33.1719C22.0938 33.125 21.672 33.125 21.25 33.125C17.8283 33.125 14.5939 34.25 12.3906 36.3125C10.5623 38.0469 9.53125 40.2031 9.53125 42.5C9.53125 47.6561 14.7812 51.875 21.25 51.875C27.7188 51.875 32.9688 47.6561 32.9688 42.5C32.9688 37.7186 28.4686 33.6875 22.5158 33.1719Z" fill="#97DE3D"/>
<path d="M63.4375 65.9375C56.9761 65.9375 51.7188 61.733 51.7188 56.5625C51.7188 51.392 56.9761 47.1875 63.4375 47.1875C69.8989 47.1875 75.1562 51.392 75.1562 56.5625C75.1562 61.733 69.8989 65.9375 63.4375 65.9375Z" fill="#59C36A"/>
<path d="M30.625 80C24.1636 80 18.9062 75.7955 18.9062 70.625C18.9062 65.4545 24.1636 61.25 30.625 61.25C37.0864 61.25 42.3438 65.4545 42.3438 70.625C42.3438 75.7955 37.0864 80 30.625 80Z" fill="#59C36A"/>
<path d="M32.9688 42.5C32.9688 47.6561 27.7188 51.875 21.25 51.875V33.125C21.672 33.125 22.0937 33.125 22.5158 33.1719C28.4686 33.6875 32.9688 37.7186 32.9688 42.5Z" fill="#59C36A"/>
<path d="M21.25 0C12.2031 0 4.84375 7.35938 4.84375 16.547C5.21891 24 9.85938 28.6875 13.9844 32.7656C19.9842 38.7658 19.047 38.8127 21.25 41.7189C23.453 38.8127 22.5158 38.7658 28.5156 32.7656C32.6406 28.6875 37.2812 24 37.6562 16.547V16.4062C37.6562 7.35938 30.2969 0 21.25 0V0ZM21.25 23.4375C17.3592 23.4375 14.2188 20.297 14.2188 16.4062C14.2188 12.5155 17.3592 9.375 21.25 9.375C25.1408 9.375 28.2812 12.5155 28.2812 16.4062C28.2812 20.297 25.1408 23.4375 21.25 23.4375Z" fill="#FF6C6C"/>
<path d="M37.6562 16.4062V16.547C37.2811 24 32.6406 28.6875 28.5156 32.7656C22.5158 38.7658 23.453 38.8127 21.25 41.7189V23.4375C25.1408 23.4375 28.2812 20.297 28.2812 16.4062C28.2812 12.5155 25.1408 9.375 21.25 9.375V0C30.2969 0 37.6562 7.35938 37.6562 16.4062Z" fill="#E63950"/>
</g>
<defs>
<clipPath id="clip0_147_204">
<rect width="80" height="80" fill="white"/>
</clipPath>
</defs>
</svg>
