<svg width="30" height="18" viewBox="0 0 30 18" fill="none" xmlns="http://www.w3.org/2000/svg">
<path d="M0.660346 0.660347C1.08329 0.237527 1.65686 0 2.2549 0C2.85295 0 3.42651 0.237527 3.84946 0.660347L15.0136 11.8245L26.1778 0.660347C26.6031 0.24951 27.1729 0.0221788 27.7642 0.0273175C28.3556 0.0324563 28.9212 0.269653 29.3394 0.68782C29.7576 1.10599 29.9948 1.67166 29.9999 2.26302C30.0051 2.85437 29.7777 3.42409 29.3669 3.84946L16.6082 16.6082C16.1852 17.031 15.6117 17.2685 15.0136 17.2685C14.4156 17.2685 13.842 17.031 13.4191 16.6082L0.660346 3.84946C0.237527 3.42651 0 2.85295 0 2.2549C0 1.65686 0.237527 1.08329 0.660346 0.660347Z" fill="white"/>
</svg>
