<svg width="85" height="85" viewBox="0 0 85 85" fill="none" xmlns="http://www.w3.org/2000/svg">
<path d="M58.2445 64.001C55.7619 64.001 53.7422 61.9813 53.7422 59.499V50.3137H55.7344V59.499C55.7344 60.8829 56.8606 62.0088 58.2445 62.0088C59.6284 62.0088 60.7544 60.8829 60.7544 59.499V56.4805H62.7465V59.499C62.7462 61.9816 60.7268 64.001 58.2445 64.001Z" fill="#58595B"/>
<path d="M62.7466 51.5366V56.4838H59.4711C59.1408 56.4838 58.9399 56.1196 59.1162 55.84L61.972 51.3124C62.1964 50.9565 62.7466 51.1155 62.7466 51.5366Z" fill="#58595B"/>
<path d="M51.2364 64.001C53.719 64.001 55.7387 61.9813 55.7387 59.499V50.3137H53.7465V59.499C53.7465 60.8829 52.6203 62.0088 51.2364 62.0088C49.8525 62.0088 48.7266 60.8829 48.7266 59.499V56.4805H46.7344V59.499C46.7344 61.9816 48.7538 64.001 51.2364 64.001Z" fill="#58595B"/>
<path d="M46.7344 51.5366V56.4838H50.0099C50.3402 56.4838 50.5411 56.1196 50.3648 55.84L47.509 51.3124C47.2845 50.9565 46.7344 51.1155 46.7344 51.5366Z" fill="#58595B"/>
<path d="M21.9984 79.2552C19.5158 79.2552 17.4961 77.2355 17.4961 74.7532V65.5679H19.4883V74.7532C19.4883 76.1371 20.6145 77.263 21.9984 77.263C23.3823 77.263 24.5083 76.1371 24.5083 74.7532V71.7347H26.5004V74.7532C26.5004 77.2355 24.481 79.2552 21.9984 79.2552Z" fill="#58595B"/>
<path d="M26.5005 66.7904V71.7377H23.225C22.8947 71.7377 22.6938 71.3734 22.8701 71.0939L25.7259 66.5663C25.9503 66.2107 26.5005 66.3697 26.5005 66.7904Z" fill="#58595B"/>
<path d="M14.9903 79.2552C17.4729 79.2552 19.4926 77.2355 19.4926 74.7532V65.5679H17.5004V74.7532C17.5004 76.1371 16.3742 77.263 14.9903 77.263C13.6064 77.263 12.4805 76.1371 12.4805 74.7532V71.7347H10.4883V74.7532C10.4886 77.2355 12.508 79.2552 14.9903 79.2552Z" fill="#58595B"/>
<path d="M10.4883 66.7904V71.7377H13.7638C14.0941 71.7377 14.295 71.3734 14.1187 71.0939L11.2629 66.5663C11.0385 66.2107 10.4883 66.3697 10.4883 66.7904Z" fill="#58595B"/>
<path d="M67.1461 7.00817C65.4617 8.69256 65.4617 11.4235 67.1461 13.1079C68.8305 14.7923 71.5615 14.7923 73.2459 13.1079C74.9303 11.4235 74.9303 8.69256 73.2459 7.00817C71.5615 5.32377 68.8305 5.32377 67.1461 7.00817ZM71.7119 11.5739C70.8748 12.411 69.5175 12.411 68.6801 11.5739C67.8427 10.7369 67.843 9.37954 68.6801 8.54215C69.5171 7.70477 70.8745 7.7051 71.7119 8.54215C72.5493 9.3792 72.5489 10.7365 71.7119 11.5739Z" fill="#EF7816"/>
<path d="M15.443 58.7128C13.7586 60.3971 13.7586 63.1281 15.443 64.8125C17.1274 66.4969 19.8583 66.4969 21.5427 64.8125C23.2271 63.1281 23.2271 60.3971 21.5427 58.7128C19.8583 57.0284 17.1274 57.0284 15.443 58.7128ZM20.0087 63.2782C19.1717 64.1152 17.8143 64.1152 16.977 63.2782C16.1396 62.4411 16.1399 61.0838 16.977 60.2464C17.814 59.409 19.1714 59.4094 20.0087 60.2464C20.8461 61.0835 20.8458 62.4411 20.0087 63.2782Z" fill="#EF7816"/>
<path d="M51.6891 43.2533C50.0047 44.9377 50.0047 47.6687 51.6891 49.3531C53.3735 51.0375 56.1044 51.0375 57.7888 49.3531C59.4732 47.6687 59.4732 44.9377 57.7888 43.2533C56.1044 41.569 53.3735 41.569 51.6891 43.2533ZM56.2548 47.8188C55.4178 48.6558 54.0605 48.6558 53.2231 47.8188C52.3857 46.9817 52.386 45.6244 53.2231 44.787C54.0601 43.95 55.4175 43.95 56.2548 44.787C57.0919 45.6244 57.0919 46.9817 56.2548 47.8188Z" fill="#EF7816"/>
<path d="M51.9925 43.5668C65.1381 30.4213 72.367 16.3371 68.1388 12.1089C63.9107 7.88076 49.8265 15.1097 36.681 28.2552C23.5355 41.4008 16.3065 55.4849 20.5347 59.7131C24.7628 63.9413 38.847 56.7123 51.9925 43.5668Z" fill="#FFA91A"/>
<path d="M21.7993 53.9683C21.7396 53.9683 21.6801 53.9584 21.62 53.9418C21.2681 53.8422 21.0622 53.4769 21.1618 53.1217C21.2581 52.7797 21.6333 52.5672 21.9786 52.6635C22.3309 52.7631 22.5368 53.1283 22.4405 53.4836C22.3575 53.7691 22.0952 53.9683 21.7993 53.9683ZM22.6795 51.4615C22.5932 51.4615 22.5069 51.4449 22.4272 51.4117C22.0882 51.2722 21.9258 50.8838 22.0653 50.5451C22.4139 49.7084 22.822 48.8318 23.2802 47.9353C26.2721 42.1148 31.3655 35.4576 37.6309 29.1922C40.6155 26.2072 43.6569 23.5045 46.6718 21.1603C46.9543 20.9412 47.3856 20.9943 47.6051 21.2765C47.8276 21.5654 47.7778 21.9838 47.4886 22.2062C44.5102 24.5238 41.5087 27.19 38.5705 30.1318C32.3978 36.2976 27.3911 42.8386 24.4625 48.5429C24.014 49.4195 23.6192 50.2629 23.2935 51.0531C23.1909 51.3021 22.9481 51.4615 22.6795 51.4615Z" fill="#FFC91D"/>
<path d="M68.1517 12.1045C67.5816 11.5344 66.8322 11.1728 65.9304 11.0055C67.0032 16.7938 60.0578 28.8718 48.6827 40.2468C37.3077 51.6219 25.23 58.5673 19.4414 57.4945C19.6084 58.3963 19.9703 59.1457 20.5404 59.7158C24.7692 63.9446 38.8556 56.7146 52.0031 43.5671C65.1505 30.4197 72.3808 16.3333 68.1517 12.1045Z" fill="#F79219"/>
<path d="M68.1506 12.1045C67.87 11.824 67.5463 11.5939 67.182 11.4126C69.734 16.5375 62.6169 29.6311 50.3417 41.9066C38.0662 54.1822 24.9722 61.2989 19.8477 58.7473C20.0289 59.1112 20.259 59.4352 20.5393 59.7155C24.768 63.9442 38.8545 56.7142 52.0019 43.5668C65.1493 30.4197 72.3797 16.3333 68.1506 12.1045Z" fill="#EF7816"/>
<path d="M68.1503 12.1045C65.2756 9.22979 57.8457 11.6503 49.2521 17.6252C48.8547 21.1563 50.0095 24.8289 52.7175 27.537C55.4256 30.245 59.0982 31.4002 62.6293 31.0024C68.6045 22.4091 71.0251 14.9792 68.1503 12.1045Z" fill="#EF7816"/>
<path d="M57.7115 26.8587C60.0936 26.8587 62.0246 24.9276 62.0246 22.5456C62.0246 20.1635 60.0936 18.2325 57.7115 18.2325C55.3295 18.2325 53.3984 20.1635 53.3984 22.5456C53.3984 24.9276 55.3295 26.8587 57.7115 26.8587Z" fill="#E6E7E8"/>
<path d="M57.7104 24.7443C58.9248 24.7443 59.9091 23.7599 59.9091 22.5456C59.9091 21.3313 58.9248 20.3469 57.7104 20.3469C56.4961 20.3469 55.5117 21.3313 55.5117 22.5456C55.5117 23.7599 56.4961 24.7443 57.7104 24.7443Z" fill="#58595B"/>
</svg>
