<svg width="84" height="70" viewBox="0 0 84 70" fill="none" xmlns="http://www.w3.org/2000/svg">
<path d="M38.9668 4.74575H44.8995V19.3791H38.9668V4.74575Z" fill="#D2D2D7"/>
<path d="M46.8776 7.31666H36.9907C34.97 7.31666 33.332 5.67865 33.332 3.65801C33.332 1.63801 34.97 0 36.9907 0H46.8776C48.8983 0 50.5363 1.63801 50.5363 3.65801C50.5363 5.67865 48.8983 7.31666 46.8776 7.31666Z" fill="#B9B9BE"/>
<path d="M80.3574 52.1828V63.7455H3.50781V52.1828C3.50781 28.7695 24.4411 10.5287 48.4091 14.4766C66.5347 17.4678 80.3574 33.2113 80.3574 52.1828Z" fill="#B9B9BE"/>
<path d="M80.3594 52.1828V63.7455H16.4629V52.1828C16.4629 33.2113 30.2868 17.4679 48.4111 14.4766C66.5367 17.4679 80.3594 33.2113 80.3594 52.1828Z" fill="#D2D2D7"/>
<path d="M83.8661 65.0892V65.2427C83.8661 67.8712 81.7361 70 79.1089 70H4.75727C2.13005 70 0 67.8712 0 65.2427V65.0892C0 62.8823 1.50428 61.0249 3.54412 60.4893C3.93123 60.3869 4.33753 60.3325 4.75727 60.3325H79.1089C81.301 60.3325 83.1482 61.8163 83.6972 63.8344C83.8079 64.233 83.8661 64.6547 83.8661 65.0892Z" fill="#5A5F64"/>
<path d="M83.698 63.8344H8.44232C6.21437 63.8344 4.30954 62.4472 3.54492 60.4893C3.93203 60.3869 4.33833 60.3325 4.75807 60.3325H79.1097C81.3018 60.3325 83.149 61.8163 83.698 63.8344Z" fill="#7D8287"/>
<path d="M58.7829 37.8656V46.9469C58.7829 48.4186 58.3293 49.7898 57.5531 50.9274C56.2741 52.8054 54.1184 54.0454 51.6857 54.0454H37.6961C35.8578 54.0454 34.3535 52.5411 34.3535 50.7022V35.3145C34.3535 33.4756 35.8578 31.9713 37.6961 31.9713H40.7424C41.038 31.9713 41.3157 31.8401 41.5032 31.611L48.674 22.9552C49.905 21.4592 52.0939 21.1009 53.6814 22.2098C55.457 23.4517 55.7711 25.9382 54.4204 27.5794L52.1195 30.3697C51.6025 31.016 52.0632 31.9713 52.8886 31.9713C54.517 31.9713 55.9913 32.631 57.0572 33.6969C58.1232 34.7649 58.7829 36.2384 58.7829 37.8656Z" fill="#FFA90B"/>
<path d="M25.082 51.1635V34.349C25.082 33.1902 26.0213 32.2509 27.1801 32.2509H31.8708C33.2363 32.2509 34.3528 33.3681 34.3528 34.7329V50.7796C34.3528 52.1444 33.2363 53.2616 31.8708 53.2616H27.1801C26.0213 53.2616 25.082 52.3223 25.082 51.1635Z" fill="#2476ED"/>
</svg>
