<svg width="80" height="80" viewBox="0 0 80 80" fill="none" xmlns="http://www.w3.org/2000/svg">
<path d="M70.007 33.75L77.4995 26.25L55.0082 2.5L24.0332 33.75" fill="#F2C351"/>
<path d="M46.1367 34.5993L62.8573 17.8788L64.6256 19.6472L47.9051 36.3677L46.1367 34.5993Z" fill="#F9D18B"/>
<path d="M59.1094 29.1298L66.608 21.6311L68.3764 23.3995L60.8778 30.8981L59.1094 29.1298Z" fill="#F9D18B"/>
<path d="M36.3117 26.6163L32.7767 30.1513C32.288 30.64 32.288 31.43 32.7767 31.9188L38.0792 37.2213C38.568 37.71 39.358 37.71 39.8467 37.2213L43.3817 33.6863C43.8705 33.1975 43.8705 32.4075 43.3817 31.9188L41.6142 30.1513L39.8467 31.9188L40.7305 32.8025L38.963 34.57L35.428 31.035L37.1955 29.2675L38.0792 30.1513L39.8467 28.3838L38.0792 26.6163C37.5917 26.1275 36.8005 26.1275 36.3117 26.6163Z" fill="#C16B3F"/>
<path d="M54.8734 11.59L56.6409 9.82124L54.8721 8.05374L49.5684 13.3575L51.3371 15.125L53.1046 13.3587L58.4084 18.6612L60.1771 16.8925L54.8734 11.59Z" fill="#C16B3F"/>
<path d="M46.9181 23.5975H45.1169L45.4519 22.5925C45.6019 22.1437 45.4844 21.6475 45.1506 21.3137L43.3831 19.545L41.6144 21.3125L42.8369 22.535L41.9519 25.1862L39.8469 23.0812L38.0781 24.85L45.1494 31.9212L46.9181 30.1525L43.9281 27.1625L44.2831 26.0987H46.3994L48.6844 28.385L50.4531 26.6175L47.8019 23.965C47.5681 23.7287 47.2494 23.5975 46.9181 23.5975Z" fill="#C16B3F"/>
<path d="M51.3363 22.1962L50.4526 21.3125L53.1038 18.6612L51.3351 16.8925L48.6838 19.5437L47.8013 18.66L50.4526 16.0087L48.6838 14.24L45.1488 17.7762C44.6613 18.265 44.6613 19.0562 45.1488 19.545L50.4513 24.8487C50.6951 25.0925 51.0151 25.2137 51.3351 25.2137C51.6563 25.2137 51.9763 25.0925 52.2201 24.8487L55.7563 21.3125L53.9876 19.5437L51.3363 22.1962Z" fill="#C16B3F"/>
<path d="M25 66.25H77.5V33.75H25C25 35.0138 24.255 36.1113 23.155 36.735C22.0175 37.3788 21.25 38.6 21.25 40C21.25 41.7263 22.4162 43.18 24.0025 43.6163C24.5737 43.7725 25 44.245 25 44.8375V45.1625C25 45.755 24.5737 46.2262 24.0025 46.3837C22.4162 46.82 21.25 48.2738 21.25 50C21.25 51.7262 22.4162 53.18 24.0025 53.6163C24.5737 53.7725 25 54.245 25 54.8375V55.1625C25 55.755 24.5737 56.2262 24.0025 56.3837C22.4162 56.82 21.25 58.2738 21.25 60C21.25 61.4 22.0175 62.6213 23.155 63.265C24.255 63.8888 25 64.9862 25 66.25Z" fill="#F7D881"/>
<path d="M37.5374 66.25L26.2874 77.5C25.3937 76.6062 25.1437 75.3038 25.4812 74.085C25.8299 72.825 25.5099 71.4187 24.5187 70.4287C23.2987 69.2087 21.4462 69.005 20.0149 69.8187C19.4999 70.1112 18.8649 70.0788 18.4462 69.66L18.2162 69.43C17.7974 69.0112 17.7649 68.3763 18.0574 67.8613C18.3424 67.3613 18.5024 66.8087 18.5374 66.25" fill="#C66B60"/>
<path d="M2.5 66.25C2.5 64.9862 3.245 63.8888 4.345 63.265C5.4825 62.6213 6.25 61.4 6.25 60C6.25 58.2738 5.08375 56.82 3.4975 56.3837C2.92625 56.2275 2.5 55.755 2.5 55.1625V54.8375C2.5 54.245 2.92625 53.7738 3.4975 53.6163C5.08375 53.18 6.25 51.7262 6.25 50C6.25 48.2738 5.08375 46.82 3.4975 46.3837C2.92625 46.2275 2.5 45.755 2.5 45.1625V44.8375C2.5 44.245 2.92625 43.7738 3.4975 43.6163C5.08375 43.18 6.25 41.7263 6.25 40C6.25 38.6 5.4825 37.3788 4.345 36.735C3.245 36.1113 2.5 35.0138 2.5 33.75H25C25 35.0138 24.255 36.1113 23.155 36.735C22.0175 37.3788 21.25 38.6 21.25 40C21.25 41.7263 22.4163 43.18 24.0025 43.6163C24.5737 43.7725 25 44.245 25 44.8375V45.1625C25 45.755 24.5737 46.2262 24.0025 46.3837C22.4163 46.82 21.25 48.2738 21.25 50C21.25 51.7262 22.4163 53.18 24.0025 53.6163C24.5737 53.7725 25 54.245 25 54.8375V55.1625C25 55.755 24.5737 56.2262 24.0025 56.3837C22.4163 56.82 21.25 58.2738 21.25 60C21.25 61.4 22.0175 62.6213 23.155 63.265C24.255 63.8888 25 64.9862 25 66.25H2.5Z" fill="#E47C6E"/>
<path d="M9.99805 38.75H17.4968V41.25H9.99805V38.75Z" fill="#C66B60"/>
<path d="M9.99805 43.75H17.4968V46.25H9.99805V43.75Z" fill="#C66B60"/>
<path d="M9.99805 48.75H17.4968V51.25H9.99805V48.75Z" fill="#C66B60"/>
<path d="M9.99805 53.75H17.4968V56.25H9.99805V53.75Z" fill="#C66B60"/>
<path d="M9.99805 58.75H17.4968V61.25H9.99805V58.75Z" fill="#C66B60"/>
<path d="M28.748 39.9988H31.248V47.4987H33.7468V39.9988H36.2468V37.5H28.748V39.9988Z" fill="#C16B3F"/>
<path d="M73.7487 37.5H66.25V39.9988H68.75V47.4987H71.2487V39.9988H73.7487V37.5Z" fill="#C16B3F"/>
<path d="M37.498 37.5H39.9968V47.5H37.498V37.5Z" fill="#C16B3F"/>
<path d="M47.4968 37.5H42.498C41.8068 37.5 41.248 38.0588 41.248 38.75V46.25C41.248 46.9412 41.8068 47.5 42.498 47.5H47.4968C48.188 47.5 48.7468 46.9412 48.7468 46.25V43.75H46.2468V45H43.748V40H46.2468V41.25H48.7468V38.75C48.7468 38.0588 48.188 37.5 47.4968 37.5Z" fill="#C16B3F"/>
<path d="M54.9968 39.2263L52.4968 40.4763V37.5H49.998V47.5H52.4968V43.2725L53.5005 42.7712L54.998 44.2688V47.5H57.4968V43.75C57.4968 43.4175 57.3668 43.1 57.1318 42.865L55.858 41.5912L56.8055 41.1175C57.2293 40.9063 57.4968 40.4725 57.4968 40V37.5H54.9968V39.2263Z" fill="#C16B3F"/>
<path d="M58.748 38.75V46.25C58.748 46.9412 59.3068 47.5 59.998 47.5H64.9968V45H61.248V43.75H64.9968V41.25H61.248V40H64.9968V37.5H59.998C59.3068 37.5 58.748 38.0588 58.748 38.75Z" fill="#C16B3F"/>
<path d="M28.748 50H73.7468V52.5H28.748V50Z" fill="#F2C351"/>
<path d="M56.248 55H73.7468V57.5H56.248V55Z" fill="#F2C351"/>
<path d="M30 56.25H50V61.25H30V56.25Z" fill="#C16B3F"/>
<path d="M30 56.25V61.25H43.385C44.9775 59.9187 46.235 58.205 47.0262 56.25H30Z" fill="#E39854"/>
</svg>
