<svg width="35" height="35" viewBox="0 0 35 35" fill="none" xmlns="http://www.w3.org/2000/svg">
<path d="M17.5 0C7.88799 0 0 7.88799 0 17.5C0 27.112 7.88799 35 17.5 35C27.112 35 35 27.112 35 17.5C35 7.88799 27.112 0 17.5 0ZM25.4757 8.0742C25.8761 7.67375 26.5254 7.67375 26.9258 8.0742C27.3262 8.47465 27.3262 9.12386 26.9258 9.52431C26.5254 9.92476 25.8761 9.92476 25.4757 9.52431C25.0752 9.12386 25.0752 8.47465 25.4757 8.0742ZM16.4746 5.19531C16.4746 4.62854 16.9332 4.16992 17.5 4.16992C18.0668 4.16992 18.5254 4.62854 18.5254 5.19531V7.24609C18.5254 7.81286 18.0668 8.27148 17.5 8.27148C16.9332 8.27148 16.4746 7.81286 16.4746 7.24609V5.19531ZM5.19531 18.5254C4.62854 18.5254 4.16992 18.0668 4.16992 17.5C4.16992 16.9332 4.62854 16.4746 5.19531 16.4746H7.24609C7.81286 16.4746 8.27148 16.9332 8.27148 17.5C8.27148 18.0668 7.81286 18.5254 7.24609 18.5254H5.19531ZM9.52431 26.9258C9.12386 27.3262 8.47465 27.3262 8.0742 26.9258C7.67375 26.5254 7.67375 25.8761 8.0742 25.4757C8.47465 25.0752 9.12386 25.0752 9.52431 25.4757C9.92476 25.8761 9.92476 26.5254 9.52431 26.9258ZM9.52431 9.52431C9.12386 9.92476 8.47465 9.92476 8.0742 9.52431C7.67375 9.12386 7.67375 8.47465 8.0742 8.0742C8.47465 7.67375 9.12386 7.67375 9.52431 8.0742C9.92476 8.47465 9.92476 9.12386 9.52431 9.52431ZM18.5254 29.8047C18.5254 30.3715 18.0668 30.8301 17.5 30.8301C16.9332 30.8301 16.4746 30.3715 16.4746 29.8047V27.7539C16.4746 27.1871 16.9332 26.7285 17.5 26.7285C18.0668 26.7285 18.5254 27.1871 18.5254 27.7539V29.8047ZM24.3773 24.3773C23.9768 24.7778 23.3278 24.7778 22.9273 24.3773L16.775 18.225C16.5828 18.0327 16.4746 17.7723 16.4746 17.5V11.3477C16.4746 10.7809 16.9332 10.3223 17.5 10.3223C18.0668 10.3223 18.5254 10.7809 18.5254 11.3477V17.0754L24.3773 22.9273C24.7779 23.3279 24.7779 23.9768 24.3773 24.3773ZM26.9258 26.9258C26.5254 27.3262 25.8761 27.3262 25.4757 26.9258C25.0752 26.5254 25.0752 25.8761 25.4757 25.4757C25.8761 25.0752 26.5254 25.0752 26.9258 25.4757C27.3262 25.8761 27.3262 26.5254 26.9258 26.9258ZM30.8301 17.5C30.8301 18.0668 30.3715 18.5254 29.8047 18.5254H27.7539C27.1871 18.5254 26.7285 18.0668 26.7285 17.5C26.7285 16.9332 27.1871 16.4746 27.7539 16.4746H29.8047C30.3715 16.4746 30.8301 16.9332 30.8301 17.5Z" fill="white"/>
</svg>
