<svg width="90" height="90" viewBox="0 0 90 90" fill="none" xmlns="http://www.w3.org/2000/svg">
<path d="M9.84375 78.75V84.0234C9.84375 84.4896 10.0289 84.9367 10.3586 85.2664C10.6883 85.5961 11.1354 85.7812 11.6016 85.7812H17.9297C18.3959 85.7812 18.843 85.5961 19.1726 85.2664C19.5023 84.9367 19.6875 84.4896 19.6875 84.0234V78.75H9.84375Z" fill="#BB5E1F"/>
<path d="M47.8125 84.0234C47.8125 84.4896 47.9977 84.9367 48.3274 85.2664C48.657 85.5961 49.1041 85.7812 49.5703 85.7812H55.8984C56.1293 85.7812 56.3579 85.7358 56.5711 85.6474C56.7844 85.5591 56.9782 85.4296 57.1414 85.2664C57.3046 85.1032 57.4341 84.9094 57.5224 84.6961C57.6108 84.4829 57.6562 84.2543 57.6562 84.0234V78.75H47.8125V84.0234Z" fill="#BB5E1F"/>
<path d="M12.6562 60.4688L8.4375 68.9062V78.3984C8.4375 78.8646 8.6227 79.3117 8.95235 79.6414C9.28201 79.9711 9.72911 80.1562 10.1953 80.1562H57.3047C57.7709 80.1562 58.218 79.9711 58.5476 79.6414C58.8773 79.3117 59.0625 78.8646 59.0625 78.3984V68.9062L54.8438 60.4688L53.4375 59.0625H14.0625L12.6562 60.4688Z" fill="#FA7D29"/>
<path d="M51.4805 50.0937C51.2292 49.4236 50.7794 48.8462 50.1912 48.4385C49.6029 48.0309 48.9043 47.8125 48.1887 47.8125H19.3113C18.5957 47.8125 17.8971 48.0309 17.3088 48.4385C16.7206 48.8462 16.2708 49.4236 16.0195 50.0937L12.6562 60.4688H54.8438L51.4805 50.0937Z" fill="#FEE5D4"/>
<path d="M55.732 62.245L46.4062 68.9063H21.0938L11.768 62.245L8.4375 68.9063L14.0625 71.7188H16.875L18.2812 74.5313H49.2188L50.625 71.7188H53.4375L59.0625 68.9063L55.732 62.245Z" fill="#FAC850"/>
<path d="M35.1562 66.0938H32.3438C30.0138 66.0938 28.125 67.9825 28.125 70.3125C28.125 72.6425 30.0138 74.5312 32.3438 74.5312H35.1562C37.4862 74.5312 39.375 72.6425 39.375 70.3125C39.375 67.9825 37.4862 66.0938 35.1562 66.0938Z" fill="#FEE5D4"/>
<path d="M18.2812 74.5312L21.0938 80.1562H46.4062L49.2188 74.5312H18.2812Z" fill="#BB5E1F"/>
<path d="M80.1562 54.8438H66.0938V57.6562H68.9062V64.6875H71.7188V57.6562H74.5312V64.6875H77.3438V57.6562H80.1562V54.8438Z" fill="#FA7D29"/>
<path d="M79.8047 63.2812H66.4453C65.4745 63.2812 64.6875 64.0682 64.6875 65.0391V84.0234C64.6875 84.9943 65.4745 85.7812 66.4453 85.7812H79.8047C80.7755 85.7812 81.5625 84.9943 81.5625 84.0234V65.0391C81.5625 64.0682 80.7755 63.2812 79.8047 63.2812Z" fill="#FAC850"/>
<path d="M81.5625 80.1562L64.6875 74.5312V68.9062L81.5625 74.5312V80.1562Z" fill="#FA7D29"/>
<path d="M67.1484 11.25H64.6875V4.21875H61.875V11.25H28.125V4.21875H25.3125V11.25H22.8516C22.3854 11.25 21.9383 11.4352 21.6086 11.7649C21.2789 12.0945 21.0938 12.5416 21.0938 13.0078V39.0234C21.0938 39.4896 21.2789 39.9367 21.6086 40.2664C21.9383 40.5961 22.3854 40.7812 22.8516 40.7812H67.1484C67.6146 40.7812 68.0617 40.5961 68.3914 40.2664C68.7211 39.9367 68.9062 39.4896 68.9062 39.0234V13.0078C68.9062 12.5416 68.7211 12.0945 68.3914 11.7649C68.0617 11.4352 67.6146 11.25 67.1484 11.25Z" fill="#25B1FA"/>
<path d="M56.2549 33.75L62.4985 30.9938C62.7393 30.8333 62.9367 30.6158 63.0733 30.3607C63.2098 30.1055 63.2812 29.8206 63.2812 29.5312C63.2812 29.2419 63.2098 28.957 63.0733 28.7018C62.9367 28.4467 62.7393 28.2292 62.4985 28.0687L57.1405 25.903C56.563 25.518 55.8845 25.3125 55.1904 25.3125H51.9051L40.7812 18.2812H36.5625L40.7812 26.7188L35.1562 28.125L29.5312 23.9062H26.7188L29.5312 33.75H56.2549Z" fill="#FAFEFF"/>
<path d="M25.3125 15.4688H28.125V18.2812H25.3125V15.4688Z" fill="#FAFEFF"/>
<path d="M61.875 15.4688H64.6875V18.2812H61.875V15.4688Z" fill="#FAFEFF"/>
</svg>
