<svg width="35" height="35" viewBox="0 0 35 35" fill="none" xmlns="http://www.w3.org/2000/svg">
<rect width="35" height="35" rx="17.5" fill="#7C509A"/>
<path d="M22.9722 8.35267C19.6371 7.71578 16.1738 7.71578 12.8387 8.35267C11.3635 8.67112 9.5036 10.4544 9.18292 11.8556C8.60569 14.5943 8.60569 17.3966 9.18292 20.1353C9.56774 21.5365 11.4277 23.3198 12.8387 23.6383C12.9028 23.6383 12.9669 23.7019 12.9669 23.7656V27.7781C12.9669 27.9692 13.2235 28.0966 13.3518 27.9055L15.2759 25.9311C15.2759 25.9311 16.8151 24.3388 17.0717 24.0841C17.0717 24.0841 17.1358 24.0204 17.1999 24.0204C19.124 24.0841 21.1122 23.893 23.0363 23.5746C24.5115 23.2561 26.3714 21.4728 26.6921 20.0716C27.2693 17.333 27.2693 14.5306 26.6921 11.7919C26.3073 10.4544 24.4473 8.67112 22.9722 8.35267ZM23.0363 20.3264C22.7156 20.9633 22.3308 21.4728 21.6895 21.7913C21.4971 21.8549 21.3046 21.9186 21.1122 21.9823C20.8557 21.9186 20.6633 21.8549 20.4709 21.7913C18.4185 20.9633 16.4944 19.8169 14.9552 18.1609C14.1214 17.2056 13.4159 16.1228 12.8387 14.9764C12.5821 14.4032 12.3256 13.8937 12.1332 13.3205C11.9408 12.811 12.2615 12.3015 12.5821 11.9193C12.9028 11.5372 13.2876 11.2824 13.7366 11.0913C14.0573 10.9003 14.3779 11.0277 14.6345 11.2824C15.1476 11.9193 15.6607 12.5562 16.0455 13.2568C16.302 13.7026 16.2379 14.2121 15.7889 14.5306C15.6607 14.5943 15.5965 14.658 15.4683 14.7854C15.4041 14.849 15.2758 14.9127 15.2117 15.0401C15.0834 15.2312 15.0834 15.4223 15.1476 15.6133C15.6607 17.0782 16.6227 18.2246 18.0978 18.8615C18.3544 18.9889 18.5468 19.0526 18.8675 19.0526C19.3164 18.9889 19.5088 18.4794 19.8295 18.2246C20.1502 17.9699 20.535 17.9699 20.9198 18.1609C21.2405 18.352 21.5612 18.6068 21.946 18.8615C22.2667 19.1163 22.5874 19.3073 22.908 19.5621C23.1005 19.6895 23.1646 20.0079 23.0363 20.3264ZM20.3426 15.5496C20.2143 15.5496 20.2785 15.5496 20.3426 15.5496C20.0861 15.5496 20.0219 15.4223 19.9578 15.2312C19.9578 15.1038 19.9578 14.9127 19.8937 14.7854C19.8295 14.5306 19.7012 14.2758 19.4447 14.0848C19.3164 14.0211 19.1882 13.9574 19.0599 13.8937C18.8675 13.83 18.7392 13.83 18.5468 13.83C18.3544 13.7663 18.2902 13.6389 18.2902 13.4479C18.2902 13.3205 18.4827 13.1931 18.6109 13.1931C19.6371 13.2568 20.4067 13.83 20.535 15.0401C20.535 15.1038 20.535 15.2312 20.535 15.2949C20.535 15.4223 20.4709 15.5496 20.3426 15.5496ZM19.7012 12.7473C19.3806 12.6199 19.0599 12.4925 18.6751 12.4288C18.5468 12.4288 18.3544 12.3651 18.2261 12.3651C18.0337 12.3651 17.9054 12.2378 17.9696 12.0467C17.9696 11.8556 18.0978 11.7282 18.2902 11.7919C18.9316 11.8556 19.5088 11.983 20.0861 12.2378C21.2405 12.811 21.8819 13.7663 22.0743 15.0401C22.0743 15.1038 22.0743 15.1675 22.0743 15.2312C22.0743 15.3586 22.0743 15.4859 22.0743 15.677C22.0743 15.7407 22.0743 15.8044 22.0743 15.8681C22.0101 16.1228 21.5612 16.1865 21.4971 15.8681C21.4971 15.8044 21.4329 15.677 21.4329 15.6133C21.4329 15.0401 21.3046 14.4669 21.0481 13.9574C20.6633 13.3842 20.2143 13.002 19.7012 12.7473ZM23.1646 16.5687C22.9722 16.5687 22.8439 16.3776 22.8439 16.1865C22.8439 15.8044 22.7798 15.4223 22.7156 15.0401C22.4591 13.002 20.7916 11.3461 18.8033 11.0277C18.4827 10.964 18.162 10.964 17.9054 10.9003C17.713 10.9003 17.4565 10.9003 17.3923 10.6455C17.3282 10.4544 17.5206 10.2634 17.713 10.2634C17.7772 10.2634 17.8413 10.2634 17.8413 10.2634C20.4709 10.3271 17.9696 10.2634 17.8413 10.2634C20.535 10.3271 22.7798 12.1104 23.2287 14.7854C23.2929 15.2312 23.357 15.677 23.357 16.1865C23.4853 16.3776 23.357 16.5687 23.1646 16.5687Z" fill="white"/>
</svg>
