<svg width="80" height="80" viewBox="0 0 80 80" fill="none" xmlns="http://www.w3.org/2000/svg">
<g clip-path="url(#clip0_183_249)">
<path d="M39.7109 41.0682L42.0926 66.3984L43.3922 76.5059C43.5765 78.4858 45.2393 80 47.2295 80H62.4C64.3901 80 66.0528 78.486 66.2373 76.5059L69.5365 41.068L54.6479 36.1368L39.7109 41.0682Z" fill="#73C3EE"/>
<path d="M54.6483 36.1368L51.4238 37.2014L63.0982 41.0682L59.799 76.5061C59.6146 78.486 57.9518 80 55.9618 80H62.4004C64.3904 80 66.0532 78.486 66.2377 76.5059L69.5368 41.068L54.6483 36.1368Z" fill="#59ACD9"/>
<path d="M70.8442 27.0226H38.3906L39.7112 41.0682H69.5367L70.8442 27.0226Z" fill="#C6E7F7"/>
<path d="M64.4052 27.0226L63.0977 41.0682H69.5363L70.8438 27.0226H64.4052Z" fill="#B5E0F5"/>
<path d="M33.3744 14.4132H31.6248V6.35815H20.3951V14.4132H18.6457C13.4307 14.4132 9.20312 18.6434 9.20312 23.8614V25.6034C9.20312 27.3864 10.6476 28.8317 12.4295 28.8317H39.5906C41.3724 28.8317 42.817 27.3864 42.817 25.6034V23.8614C42.817 18.6434 38.5893 14.4132 33.3744 14.4132V14.4132Z" fill="#C6E7F7"/>
<path d="M33.3747 14.4132H31.6252V6.35815H25.1865V14.4132H26.9361C32.151 14.4132 36.3786 18.6434 36.3786 23.8614V25.6034C36.3786 27.3864 34.9341 28.8317 33.1522 28.8317H39.5909C41.3728 28.8317 42.8173 27.3864 42.8173 25.6034V23.8614C42.8173 18.6434 38.5897 14.4132 33.3747 14.4132V14.4132Z" fill="#B5E0F5"/>
<path d="M39.5741 46.022H12.4459C10.655 46.022 9.20312 44.5701 9.20312 42.7792V32.0589C9.20312 30.2765 10.6481 28.8315 12.4305 28.8315H39.5896C41.372 28.8315 42.817 30.2765 42.817 32.0589V42.7792C42.817 44.5703 41.365 46.022 39.5741 46.022V46.022Z" fill="#73C3EE"/>
<path d="M39.5898 28.8317H33.1512C34.9336 28.8317 36.3786 30.2767 36.3786 32.0591V42.7794C36.3786 44.5703 34.9266 46.0222 33.1357 46.0222H39.5744C41.3653 46.0222 42.8172 44.5703 42.8172 42.7794V32.0591C42.8172 30.2767 41.3722 28.8317 39.5898 28.8317V28.8317Z" fill="#59ACD9"/>
<path d="M42.9348 55.8465C42.9348 54.0457 41.5187 52.5861 39.7719 52.5861C41.5187 52.5861 42.9348 51.1263 42.9348 49.3257C42.9348 47.5252 41.5187 46.0654 39.7719 46.0654H12.3191C10.5723 46.0654 9.15625 47.525 9.15625 49.3257C9.15625 51.1265 10.5723 52.5861 12.3191 52.5861C10.5723 52.5861 9.15625 54.0459 9.15625 55.8465C9.15625 57.647 10.5723 59.1068 12.3191 59.1068C12.3191 59.1068 9.20341 59.1506 9.20341 63.1841V70.5518C9.20341 75.77 13.431 80 18.646 80H18.6767H33.3441H33.3747C38.5896 80 42.8173 75.7698 42.8173 70.5518V63.1841C42.8173 59.2044 39.7719 59.1068 39.7719 59.1068C41.5187 59.1068 42.9348 57.647 42.9348 55.8465Z" fill="#C6E7F7"/>
<path d="M42.9352 55.8464C42.9352 54.0457 41.5192 52.5861 39.7724 52.5861C41.5192 52.5861 42.9352 51.1263 42.9352 49.3257C42.9352 47.525 41.5192 46.0654 39.7724 46.0654H33.3338C35.0806 46.0654 36.4966 47.525 36.4966 49.3257C36.4966 51.1265 35.0806 52.5861 33.3338 52.5861C35.0806 52.5861 36.4966 54.0457 36.4966 55.8464C36.4966 57.6472 35.0806 59.1068 33.3338 59.1068C33.3338 59.1068 36.3791 59.2044 36.3791 63.1841V70.5518C36.3791 75.77 32.1515 80.0001 26.9365 80.0001H33.3446H33.3752C38.5901 80.0001 42.8177 75.77 42.8177 70.5518V63.1841C42.8177 59.2044 39.7724 59.1068 39.7724 59.1068C41.5192 59.1068 42.9352 57.647 42.9352 55.8464Z" fill="#B5E0F5"/>
<path d="M33.6821 8.84443H18.3382C17.8946 8.84443 17.5352 8.48483 17.5352 8.04137V2.61924C17.5352 1.17264 18.7078 0 20.1542 0H31.8659C33.3125 0 34.4852 1.17264 34.4852 2.61924V8.04121C34.4853 8.48483 34.1257 8.84443 33.6821 8.84443V8.84443Z" fill="#73C3EE"/>
<path d="M31.8664 0H25.4277C26.8743 0 28.047 1.17264 28.047 2.61924V8.04121C28.047 8.48483 27.6874 8.84443 27.2439 8.84443H33.6825C34.1262 8.84443 34.4856 8.48483 34.4856 8.04121V2.61924C34.4856 1.17264 33.313 0 31.8664 0Z" fill="#59ACD9"/>
</g>
<defs>
<clipPath id="clip0_183_249">
<rect width="80" height="80" fill="white"/>
</clipPath>
</defs>
</svg>
