<svg width="55" height="86" viewBox="0 0 55 86" fill="none" xmlns="http://www.w3.org/2000/svg">
<path d="M16.5002 24.0762V20.6253H8.25011V24.0762C3.43755 25.7816 0 30.3605 0 35.7505V82.5011C0 84.0138 1.22395 85.2511 2.75004 85.2511H22.0003C23.5129 85.2511 24.7503 84.0138 24.7503 82.5011V35.7505C24.7503 30.3605 21.2994 25.7816 16.5002 24.0762Z" fill="#656D78"/>
<path d="M44.001 85.2498C43.2403 85.2498 42.626 84.6348 42.626 83.8748V67.3866C42.626 66.6266 43.2403 66.0116 44.001 66.0116C44.7617 66.0116 45.376 66.6266 45.376 67.3866V83.8748C45.376 84.6348 44.7617 85.2498 44.001 85.2498Z" fill="#CCD1D9"/>
<path d="M8.25 0H16.5001V6.86166H8.25V0Z" fill="#ED5565"/>
<path d="M8.25 6.86166H16.5001V20.6253H8.25V6.86166Z" fill="#DA4453"/>
<path d="M52.2358 38.5139L54.9859 56.3758H32.999L35.7491 38.5139H52.2358Z" fill="#E6E9ED"/>
<path d="M52.2358 38.5139H49.4824L52.2325 56.3758H54.9858L52.2358 38.5139Z" fill="#CCD1D9"/>
<path d="M54.9859 56.3758H54.9993C54.9993 62.4532 50.0766 67.3759 43.9992 67.3759C37.9217 67.3759 33.0125 62.4673 32.999 56.3892V56.3758H54.9859Z" fill="#ED5565"/>
<path d="M54.9871 56.3758H52.2478C52.2478 61.9859 48.0482 66.6031 42.624 67.2812C43.0752 67.3376 43.5331 67.3759 44.0004 67.3759C50.0779 67.3759 55.0005 62.4532 55.0005 56.3758H54.9871Z" fill="#DA4453"/>
<path d="M4.125 71.4983V45.3783H20.6252V71.4983H4.125Z" fill="#ED5565"/>
<path d="M16.5012 24.0762V20.6253H12.3721V25.4533C17.1705 27.158 20.6222 31.7369 20.6222 37.1268V42.6256H20.6262V74.251H20.6222V82.5011C20.6222 84.0138 19.3848 85.2511 17.8721 85.2511H22.0012C23.5139 85.2511 24.7513 84.0138 24.7513 82.5011V35.7505C24.7513 30.3605 21.3003 25.7816 16.5012 24.0762Z" fill="#434A54"/>
<path d="M12.3721 6.86166H16.5012V20.6253H12.3721V6.86166Z" fill="#D3374E"/>
<path d="M12.3721 0H16.5012V6.86166H12.3721V0Z" fill="#DA4453"/>
<path d="M12.378 52.9248C12.378 54.0655 11.4568 54.9873 10.3155 54.9873C9.17408 54.9873 8.25293 54.0655 8.25293 52.9248C8.25293 51.7968 9.17408 50.8623 10.3155 50.8623C11.4568 50.8623 12.378 51.7968 12.378 52.9248Z" fill="#DA4453"/>
<path d="M12.378 54.4287C13.5193 54.4287 14.4405 55.364 14.4405 56.4912C14.4405 57.6326 13.5193 58.5538 12.378 58.5538C11.2366 58.5538 10.3154 57.6326 10.3154 56.4912C10.3154 55.364 11.2366 54.4287 12.378 54.4287Z" fill="#DA4453"/>
<path d="M12.3779 52.9248C12.3779 51.7968 13.2991 50.8623 14.4405 50.8623C15.5818 50.8623 16.503 51.7968 16.503 52.9248C16.503 54.0655 15.5818 54.9873 14.4405 54.9873C13.2991 54.9873 12.3779 54.0655 12.3779 52.9248Z" fill="#DA4453"/>
<path d="M16.4999 63.2441H8.24709C7.4864 63.2441 6.87207 62.6291 6.87207 61.8691C6.87207 61.1084 7.4864 60.4941 8.24709 60.4941H16.4999C17.2599 60.4941 17.8749 61.1084 17.8749 61.8691C17.8749 62.6291 17.2599 63.2441 16.4999 63.2441Z" fill="#DA4453"/>
<path d="M13.7483 67.3705H11.001C10.2403 67.3705 9.62598 66.7555 9.62598 65.9955C9.62598 65.2348 10.2403 64.6205 11.001 64.6205H13.7483C14.5084 64.6205 15.1234 65.2348 15.1234 65.9955C15.1234 66.7555 14.5084 67.3705 13.7483 67.3705Z" fill="#DA4453"/>
<path d="M52.2419 85.2498H35.7471C34.9864 85.2498 34.3721 84.6348 34.3721 83.8748C34.3721 83.1141 34.9864 82.4998 35.7471 82.4998H52.2419C53.002 82.4998 53.617 83.1141 53.617 83.8748C53.617 84.6348 53.002 85.2498 52.2419 85.2498Z" fill="#E6E9ED"/>
</svg>
