<svg width="80" height="80" viewBox="0 0 80 80" fill="none" xmlns="http://www.w3.org/2000/svg">
<path d="M45.6246 52.5C55.8783 44.9306 67.6558 41.5075 62.4996 23.75L56.2496 2.5C56.0214 1.69188 55.2139 1.25 54.3746 1.25H39.9996H25.6246C24.7852 1.25 23.9777 1.69188 23.7496 2.5L17.4996 23.75C12.3502 40.2844 24.1139 44.6994 34.3746 52.5C37.8402 55.135 37.4996 57.9619 37.4996 58.75V70.625C28.7496 71.875 24.0714 74.825 21.8746 76.875C20.7027 77.9688 21.4458 78.75 21.8746 78.75H39.9946H39.9996H40.0046H58.1246C58.5533 78.75 59.2964 77.9688 58.1246 76.875C55.9277 74.825 51.0152 72.1612 42.4996 70.625V58.75C42.4996 57.9619 42.1221 55.0856 45.6246 52.5Z" fill="url(#paint0_linear_183_218)"/>
<path d="M58.7499 21.25L54.3749 5.625C54.1736 4.91125 53.7499 4.375 52.4999 4.375H39.9999H27.4999C26.2499 4.375 25.8261 4.91125 25.6249 5.625L21.2499 21.25C16.5599 37.8544 26.4643 47.1856 39.9999 47.5C53.5355 47.1856 63.4399 37.8544 58.7499 21.25Z" fill="url(#paint1_linear_183_218)"/>
<path d="M58.7499 21.25L58.1511 19.1112C53.3668 17.0606 46.7161 17.1312 39.9999 20C33.3099 22.665 26.0824 22.1062 21.5624 20.1331L21.2499 21.25C16.5599 37.8544 26.4643 47.1856 39.9999 47.5C53.5355 47.1856 63.4399 37.8544 58.7499 21.25Z" fill="url(#paint2_linear_183_218)"/>
<defs>
<linearGradient id="paint0_linear_183_218" x1="-38.4679" y1="47.38" x2="18.1983" y2="42.1719" gradientUnits="userSpaceOnUse">
<stop stop-color="#F1F2F2"/>
<stop offset="1" stop-color="#E6E7E8"/>
</linearGradient>
<linearGradient id="paint1_linear_183_218" x1="16.5218" y1="28.8087" x2="-23.797" y2="35.2681" gradientUnits="userSpaceOnUse">
<stop stop-color="#F1F2F2"/>
<stop offset="1" stop-color="#E6E7E8"/>
</linearGradient>
<linearGradient id="paint2_linear_183_218" x1="40.5705" y1="6.90563" x2="39.8411" y2="35.3431" gradientUnits="userSpaceOnUse">
<stop stop-color="#E15C63"/>
<stop offset="0.4062" stop-color="#DE585F"/>
<stop offset="0.8264" stop-color="#D44B53"/>
<stop offset="1" stop-color="#CE444C"/>
</linearGradient>
</defs>
</svg>
